<svg xmlns="http://www.w3.org/2000/svg" xmlns:xlink="http://www.w3.org/1999/xlink" width="249.59" height="277.5" viewBox="0 0 249.59 277.5">
  <defs>
    <style>
      .cls-1 {
        fill: #fff;
      }

      .cls-2 {
        fill: url(#linear-gradient);
      }

      .cls-3 {
        fill: url(#linear-gradient-2);
      }

      .cls-4 {
        fill: url(#linear-gradient-3);
      }

      .cls-5 {
        fill: #00d8ff;
      }

      .cls-6 {
        fill: #ff5474;
      }

      .cls-7 {
        fill: #2115d1;
      }

      .cls-8 {
        fill: #3d33d7;
      }

      .cls-9 {
        fill: #544bdc;
      }

      .cls-10 {
        fill: #756ee2;
      }

      .cls-11 {
        fill: #a49fec;
      }

      .cls-12 {
        fill: #ccc9f4;
      }

      .cls-13 {
        fill: #f5f4fd;
      }

      .cls-14 {
        fill: #05d9ff;
      }

      .cls-15 {
        fill: #2edfff;
      }

      .cls-16 {
        fill: #5ce6ff;
      }

      .cls-17 {
        fill: #73eaff;
      }

      .cls-18 {
        fill: #b8f4ff;
      }

      .cls-19 {
        fill: #e5fbff;
      }

      .cls-20 {
        fill: #ff1f49;
      }

      .cls-21 {
        fill: #ff3a5e;
      }

      .cls-22 {
        fill: #ff4b6d;
      }

      .cls-23 {
        fill: #ff607d;
      }

      .cls-24 {
        fill: #ff849b;
      }

      .cls-25 {
        fill: #ffd4dc;
      }

      .cls-26 {
        fill: #ffebef;
      }

      .cls-27 {
        fill: url(#linear-gradient-4);
      }

      .cls-28 {
        fill: url(#linear-gradient-5);
      }

      .cls-29 {
        fill: url(#linear-gradient-6);
      }

      .cls-30 {
        opacity: 0.87;
      }

      .cls-31, .cls-44 {
        fill: none;
      }

      .cls-31 {
        stroke: #1b3477;
        stroke-miterlimit: 10;
        stroke-width: 0.29px;
      }

      .cls-32 {
        fill: url(#linear-gradient-7);
      }

      .cls-33 {
        fill: #1b3477;
      }

      .cls-34 {
        fill: #4236ed;
      }

      .cls-35 {
        fill: url(#linear-gradient-8);
      }

      .cls-36 {
        fill: #eae8fa;
      }

      .cls-37 {
        fill: #ffc8ab;
      }

      .cls-38 {
        fill: #3a30d1;
      }

      .cls-39 {
        fill: url(#linear-gradient-10);
      }

      .cls-40 {
        fill: url(#linear-gradient-11);
      }

      .cls-41 {
        fill: url(#linear-gradient-12);
      }

      .cls-42 {
        fill: #de5e60;
      }

      .cls-43 {
        fill: url(#linear-gradient-13);
      }

      .cls-45 {
        fill: #dedfe1;
      }

      .cls-46 {
        fill: #e8e8ea;
      }

      .cls-47 {
        fill: #f1f2f4;
      }

      .cls-48 {
        fill: #2c21d1;
      }
    </style>
    <linearGradient id="linear-gradient" y1="0.5" x2="1" y2="0.5" gradientUnits="objectBoundingBox">
      <stop offset="0.13" stop-color="#00d8ff"/>
      <stop offset="0.43" stop-color="#1b96f8"/>
      <stop offset="0.69" stop-color="#3062f2"/>
      <stop offset="0.89" stop-color="#3d42ee"/>
      <stop offset="1" stop-color="#4236ed"/>
    </linearGradient>
    <linearGradient id="linear-gradient-2" x1="4.22" y1="0.436" x2="43.721" y2="-0.239" xlink:href="#linear-gradient"/>
    <linearGradient id="linear-gradient-3" x1="-0.057" y1="1.247" x2="0.56" y2="0.419" xlink:href="#linear-gradient"/>
    <linearGradient id="linear-gradient-4" x1="0" y1="0.5" x2="1" y2="0.5" xlink:href="#linear-gradient"/>
    <linearGradient id="linear-gradient-5" x1="4.212" y1="0.436" x2="43.63" y2="-0.239" xlink:href="#linear-gradient"/>
    <linearGradient id="linear-gradient-6" x1="-0.057" y1="1.247" x2="0.56" y2="0.419" xlink:href="#linear-gradient"/>
    <linearGradient id="linear-gradient-7" x1="62.092" y1="0.5" x2="63.093" y2="0.5" gradientUnits="objectBoundingBox">
      <stop offset="0" stop-color="#5ecceb"/>
      <stop offset="0.47" stop-color="#3a30d1"/>
      <stop offset="1" stop-color="#ff3b60"/>
    </linearGradient>
    <linearGradient id="linear-gradient-8" x1="4.22" y1="0.436" x2="43.721" y2="-0.239" xlink:href="#linear-gradient"/>
    <linearGradient id="linear-gradient-10" x1="0.388" y1="1.134" x2="0.588" y2="0.044" gradientUnits="objectBoundingBox">
      <stop offset="0" stop-color="#fff"/>
      <stop offset="0.33" stop-color="#fdfcff"/>
      <stop offset="0.61" stop-color="#f5f1ff"/>
      <stop offset="0.87" stop-color="#e9e0ff"/>
      <stop offset="1" stop-color="#e0d4ff"/>
    </linearGradient>
    <linearGradient id="linear-gradient-11" x1="0.494" y1="0.955" x2="0.506" y2="0.016" xlink:href="#linear-gradient-10"/>
    <linearGradient id="linear-gradient-12" x1="0.53" y1="1.011" x2="0.481" y2="0.173" gradientUnits="objectBoundingBox">
      <stop offset="0" stop-color="#fff"/>
      <stop offset="0.41" stop-color="#fdfcff"/>
      <stop offset="0.75" stop-color="#f5f1ff"/>
      <stop offset="1" stop-color="#ece4ff"/>
    </linearGradient>
    <linearGradient id="linear-gradient-13" x1="0.486" y1="0.936" x2="0.527" y2="-0.171" xlink:href="#linear-gradient-10"/>
  </defs>
  <g id="image" transform="translate(-62.019 -48.185)">
    <g id="Layer_2" data-name="Layer 2" transform="translate(62.019 48.185)">
      <g id="OBJECTS">
        <path id="Path_323" data-name="Path 323" class="cls-1" d="M159.605,1.45,40.76,70.068l.236,84.3L159.841,85.757Z" transform="translate(-14.037 -0.499)"/>
        <path id="Path_324" data-name="Path 324" class="cls-2" d="M159.605,1.45,40.76,70.068V81.587L159.631,12.95Z" transform="translate(-14.037 -0.499)"/>
        <path id="Path_325" data-name="Path 325" class="cls-3" d="M38.25,104.66l.243,84.3,1.639.951-.236-84.3Z" transform="translate(-13.172 -36.042)"/>
        <path id="Path_326" data-name="Path 326" class="cls-4" d="M158.741.951,157.1,0,38.25,68.618l1.646.951Z" transform="translate(-13.172)"/>
        <path id="Path_327" data-name="Path 327" class="cls-5" d="M212.05,15.162h0a3.724,3.724,0,0,1-1.692,2.924c-.931.538-1.692.1-1.7-.97a3.717,3.717,0,0,1,1.691-2.918h0C211.283,13.66,212.043,14.087,212.05,15.162Z" transform="translate(-71.857 -4.809)"/>
        <path id="Path_328" data-name="Path 328" class="cls-1" d="M202.963,20.563h0a3.744,3.744,0,0,1-1.691,2.931c-.931.538-1.692.1-1.692-.977h0a3.672,3.672,0,0,1,1.685-2.911h0C202.2,19.062,202.956,19.488,202.963,20.563Z" transform="translate(-68.73 -6.67)"/>
        <path id="Path_329" data-name="Path 329" class="cls-6" d="M190,28.176a3.711,3.711,0,0,1,1.685-2.918h0c.931-.538,1.692-.111,1.7.964h0a3.724,3.724,0,0,1-1.691,2.924c-.931.538-1.692.1-1.692-.97Z" transform="translate(-65.431 -8.618)"/>
        <path id="Path_330" data-name="Path 330" class="cls-5" d="M89.068,84.035l21.2,19.557,2.681-7.232,2.485,3.475L126.1,78.37v31.077L40.958,158.605,40.84,116.56l19.334,12.47,7.159-12.542,5.186,1.921Z" transform="translate(-14.064 -26.989)"/>
        <path id="Path_331" data-name="Path 331" class="cls-7" d="M204.22,115.563l.02,6.314,5.494-3.173-.02-6.314Z" transform="translate(-70.328 -38.704)"/>
        <g id="Group_108" data-name="Group 108" transform="translate(133.872 65.687)">
          <path id="Path_332" data-name="Path 332" class="cls-8" d="M204.19,103.357l.02,6.314L209.7,106.5l-.02-6.307Z" transform="translate(-204.19 -100.19)"/>
        </g>
        <g id="Group_109" data-name="Group 109" transform="translate(133.846 57.682)">
          <path id="Path_333" data-name="Path 333" class="cls-9" d="M204.15,91.147l.02,6.314,5.494-3.173-.02-6.307Z" transform="translate(-204.15 -87.98)"/>
        </g>
        <g id="Group_110" data-name="Group 110" transform="translate(133.826 49.677)">
          <path id="Path_334" data-name="Path 334" class="cls-10" d="M204.12,78.943l.02,6.307,5.494-3.173-.02-6.307Z" transform="translate(-204.12 -75.77)"/>
        </g>
        <g id="Group_111" data-name="Group 111" transform="translate(133.806 41.671)">
          <path id="Path_335" data-name="Path 335" class="cls-11" d="M204.09,66.733l.013,6.307,5.494-3.167-.013-6.314Z" transform="translate(-204.09 -63.56)"/>
        </g>
        <g id="Group_112" data-name="Group 112" transform="translate(133.78 33.666)">
          <path id="Path_336" data-name="Path 336" class="cls-12" d="M204.05,54.523l.02,6.314,5.494-3.173-.02-6.314Z" transform="translate(-204.05 -51.35)"/>
        </g>
        <g id="Group_113" data-name="Group 113" transform="translate(133.754 25.668)">
          <path id="Path_337" data-name="Path 337" class="cls-13" d="M204.01,42.317l.02,6.314,5.494-3.173-.013-6.307Z" transform="translate(-204.01 -39.15)"/>
        </g>
        <path id="Path_338" data-name="Path 338" class="cls-14" d="M191.1,123.143l.02,6.314,5.494-3.173-.02-6.314Z" transform="translate(-65.81 -41.315)"/>
        <g id="Group_114" data-name="Group 114" transform="translate(125.264 70.65)">
          <path id="Path_339" data-name="Path 339" class="cls-5" d="M191.06,110.933l.02,6.314,5.494-3.173-.02-6.314Z" transform="translate(-191.06 -107.76)"/>
        </g>
        <g id="Group_115" data-name="Group 115" transform="translate(125.244 62.651)">
          <path id="Path_340" data-name="Path 340" class="cls-15" d="M191.03,98.727l.02,6.314,5.494-3.173-.02-6.307Z" transform="translate(-191.03 -95.56)"/>
        </g>
        <g id="Group_116" data-name="Group 116" transform="translate(125.224 54.646)">
          <path id="Path_341" data-name="Path 341" class="cls-16" d="M191,86.523l.013,6.307,5.494-3.173-.013-6.307Z" transform="translate(-191 -83.35)"/>
        </g>
        <g id="Group_117" data-name="Group 117" transform="translate(125.198 46.641)">
          <path id="Path_342" data-name="Path 342" class="cls-17" d="M190.96,74.313l.02,6.307,5.494-3.173-.02-6.307Z" transform="translate(-190.96 -71.14)"/>
        </g>
        <g id="Group_118" data-name="Group 118" transform="translate(125.178 38.636)">
          <path id="Path_343" data-name="Path 343" class="cls-18" d="M190.93,62.1l.013,6.307,5.494-3.167-.013-6.314Z" transform="translate(-190.93 -58.93)"/>
        </g>
        <g id="Group_119" data-name="Group 119" transform="translate(125.152 30.637)">
          <path id="Path_344" data-name="Path 344" class="cls-19" d="M190.89,49.9l.02,6.314,5.494-3.173-.02-6.307Z" transform="translate(-190.89 -46.73)"/>
        </g>
        <path id="Path_345" data-name="Path 345" class="cls-20" d="M177.97,130.723l.02,6.307,5.494-3.167-.02-6.314Z" transform="translate(-61.289 -43.925)"/>
        <path id="Path_346" data-name="Path 346" class="cls-21" d="M177.94,118.513l.02,6.314,5.488-3.173-.02-6.314Z" transform="translate(-61.278 -39.72)"/>
        <path id="Path_347" data-name="Path 347" class="cls-22" d="M177.9,106.307l.02,6.307,5.494-3.167-.02-6.307Z" transform="translate(-61.264 -35.519)"/>
        <path id="Path_348" data-name="Path 348" class="cls-23" d="M177.87,94.1l.02,6.314,5.488-3.173-.013-6.307Z" transform="translate(-61.254 -31.314)"/>
        <path id="Path_349" data-name="Path 349" class="cls-24" d="M177.84,81.893l.013,6.307,5.494-3.173-.02-6.307Z" transform="translate(-61.244 -27.109)"/>
        <g id="Group_120" data-name="Group 120" transform="translate(116.57 43.606)">
          <path id="Path_350" data-name="Path 350" class="cls-25" d="M177.8,69.683l.02,6.307,5.488-3.167-.013-6.314Z" transform="translate(-177.8 -66.51)"/>
        </g>
        <g id="Group_121" data-name="Group 121" transform="translate(116.55 35.6)">
          <path id="Path_351" data-name="Path 351" class="cls-26" d="M177.77,57.473l.013,6.307,5.494-3.167-.02-6.314Z" transform="translate(-177.77 -54.3)"/>
        </g>
        <path id="Path_352" data-name="Path 352" class="cls-1" d="M283.571,60.26,205.48,105.347l.157,55.394,78.091-45.087Z" transform="translate(-70.762 -20.752)"/>
        <path id="Path_353" data-name="Path 353" class="cls-27" d="M283.571,60.26,205.48,105.347l.02,7.559,78.091-45.094Z" transform="translate(-70.762 -20.752)"/>
        <path id="Path_354" data-name="Path 354" class="cls-28" d="M203.83,128.07l.157,55.4,1.082.623-.157-55.394Z" transform="translate(-70.194 -44.104)"/>
        <path id="Path_355" data-name="Path 355" class="cls-29" d="M283,59.929l-1.075-.629-78.1,45.087,1.082.629Z" transform="translate(-70.194 -20.421)"/>
        <path id="Path_356" data-name="Path 356" class="cls-6" d="M283.67,114.11l-78.19,45.146.157,20.029L283.729,134.2Z" transform="translate(-70.762 -39.297)"/>
        <path id="Path_357" data-name="Path 357" class="cls-5" d="M318.039,69.263h0a2.446,2.446,0,0,1-1.115,1.921c-.61.354-1.115.072-1.115-.656a2.426,2.426,0,0,1,1.108-1.914h0C317.534,68.273,318.033,68.555,318.039,69.263Z" transform="translate(-108.757 -23.579)"/>
        <path id="Path_358" data-name="Path 358" class="cls-1" d="M312.063,72.813h0a2.439,2.439,0,0,1-1.108,1.921c-.616.354-1.108.072-1.115-.656h0a2.426,2.426,0,0,1,1.108-1.914h0C311.564,71.823,312.063,72.105,312.063,72.813Z" transform="translate(-106.701 -24.802)"/>
        <path id="Path_359" data-name="Path 359" class="cls-6" d="M303.57,77.821a2.439,2.439,0,0,1,1.108-1.9h0c.616-.354,1.115-.072,1.115.656h0a2.432,2.432,0,0,1-1.108,1.921c-.616.354-1.108.066-1.115-.656Z" transform="translate(-104.542 -26.093)"/>
        <g id="Group_122" data-name="Group 122" class="cls-30" transform="translate(151.987 68.755)">
          <line id="Line_18" data-name="Line 18" class="cls-31" y2="17.577" transform="translate(41.167)"/>
          <line id="Line_19" data-name="Line 19" class="cls-31" y2="4.373" transform="translate(29.051 20.259)"/>
          <line id="Line_20" data-name="Line 20" class="cls-31" y2="8.005" transform="translate(19.872 21.977)"/>
          <line id="Line_21" data-name="Line 21" class="cls-31" y2="13.355" transform="translate(0 28.094)"/>
        </g>
        <path id="Path_360" data-name="Path 360" class="cls-32" d="M224.4,130.973l.072-.046c2.091-1.206,4.006-1.095,5.1.354l2.3,3.042c.8,1.056,2.131,1.226,3.665.452l.308-.17a9.605,9.605,0,0,0,3.593-4.078,12.8,12.8,0,0,1,4.589-5.245l.157-.092c1.737-1,3.4-1.075,4.543-.2l.243.177a3.113,3.113,0,0,0,3.481-.164,5.749,5.749,0,0,0,.518-.334,10.28,10.28,0,0,0,3.554-4.845l2.839-7.8a16.725,16.725,0,0,1,6.248-8.182l.426-.262c2.5-1.442,4.806-1.383,6.242.177l8.812,9.579-1.731,1-8.248-8.969c-1.167-1.265-3.042-1.311-5.068-.144l-.341.249a13.644,13.644,0,0,0-5.075,6.648l-2.858,7.776a13.689,13.689,0,0,1-4.655,6.307c-.223.157-.446.3-.656.426-1.744,1.01-3.422,1.1-4.589.216l-.243-.177c-.892-.656-2.177-.584-3.534.2l-.059.033a9.71,9.71,0,0,0-3.514,4.032,12.739,12.739,0,0,1-4.72,5.343l-.393.216c-1.967.99-3.763.774-4.793-.584l-2.282-3.068c-.826-1.088-2.268-1.193-3.829-.288l-.1.059a9.716,9.716,0,0,0-3.835,4.865l-5.2,13.821-1.633.944,5.586-14.843a12.8,12.8,0,0,1,5.075-6.412Z" transform="translate(-73.607 -35.31)"/>
        <g id="Group_123" data-name="Group 123" class="cls-30" transform="translate(195.802 81.08)">
          <path id="Path_361" data-name="Path 361" class="cls-33" d="M309.724,124.51l.007.99-11.08,6.392v-.983Z" transform="translate(-298.65 -123.958)"/>
          <path id="Path_362" data-name="Path 362" class="cls-33" d="M316.626,123.728c.236-.138.433-.033.433.243a.957.957,0,0,1-.426.741h0a.266.266,0,0,1-.433-.243A.944.944,0,0,1,316.626,123.728Z" transform="translate(-304.694 -123.668)"/>
        </g>
        <g id="Group_124" data-name="Group 124" class="cls-30" transform="translate(195.802 83.973)">
          <path id="Path_363" data-name="Path 363" class="cls-33" d="M309.724,128.92l.007.99L298.65,136.3v-.99Z" transform="translate(-298.65 -128.37)"/>
          <path id="Path_364" data-name="Path 364" class="cls-33" d="M316.626,128.133a.27.27,0,0,1,.433.249.97.97,0,0,1-.426.741h0a.266.266,0,0,1-.433-.243A.957.957,0,0,1,316.626,128.133Z" transform="translate(-304.694 -128.081)"/>
        </g>
        <g id="Group_125" data-name="Group 125" class="cls-30" transform="translate(195.802 86.864)">
          <path id="Path_365" data-name="Path 365" class="cls-33" d="M309.724,133.33l.007.983-11.08,6.4v-.99Z" transform="translate(-298.65 -132.78)"/>
          <path id="Path_366" data-name="Path 366" class="cls-33" d="M316.626,132.543a.27.27,0,0,1,.433.249.97.97,0,0,1-.426.741h0a.268.268,0,0,1-.433-.249A.944.944,0,0,1,316.626,132.543Z" transform="translate(-304.694 -132.491)"/>
        </g>
        <g id="Group_126" data-name="Group 126" class="cls-30" transform="translate(195.802 89.766)">
          <path id="Path_367" data-name="Path 367" class="cls-33" d="M309.724,137.74l.007.983-11.08,6.4v-.99Z" transform="translate(-298.65 -137.2)"/>
          <path id="Path_368" data-name="Path 368" class="cls-33" d="M316.626,136.971a.267.267,0,0,1,.433.243.983.983,0,0,1-.426.747h0a.268.268,0,0,1-.433-.249A.944.944,0,0,1,316.626,136.971Z" transform="translate(-304.694 -136.917)"/>
        </g>
        <path id="Path_369" data-name="Path 369" class="cls-1" d="M239.484,168.94v.983l-11.074,6.392v-.983Z" transform="translate(-78.659 -58.179)"/>
        <path id="Path_370" data-name="Path 370" class="cls-1" d="M246.386,168.148c.236-.138.433-.033.433.243a.951.951,0,0,1-.433.741h0a.263.263,0,0,1-.426-.243A.924.924,0,0,1,246.386,168.148Z" transform="translate(-84.703 -57.885)"/>
        <path id="Path_371" data-name="Path 371" class="cls-1" d="M239.484,174.31v.99l-11.074,6.392v-.99Z" transform="translate(-78.659 -60.028)"/>
        <path id="Path_372" data-name="Path 372" class="cls-1" d="M246.386,173.523a.27.27,0,0,1,.433.249.957.957,0,0,1-.433.741h0a.264.264,0,0,1-.426-.249.937.937,0,0,1,.426-.741Z" transform="translate(-84.703 -59.739)"/>
        <path id="Path_373" data-name="Path 373" class="cls-1" d="M239.484,180.36v.99l-11.074,6.392v-.983Z" transform="translate(-78.659 -62.112)"/>
        <path id="Path_374" data-name="Path 374" class="cls-1" d="M246.386,179.578c.236-.138.433-.033.433.243a.957.957,0,0,1-.433.741h0a.263.263,0,0,1-.426-.243A.924.924,0,0,1,246.386,179.578Z" transform="translate(-84.703 -61.822)"/>
        <g id="Group_127" data-name="Group 127" class="cls-30" transform="translate(195.802 92.644)">
          <path id="Path_375" data-name="Path 375" class="cls-33" d="M309.724,142.14l.007.99-11.08,6.392v-.983Z" transform="translate(-298.65 -141.594)"/>
          <path id="Path_376" data-name="Path 376" class="cls-33" d="M316.626,141.361a.267.267,0,0,1,.433.243.957.957,0,0,1-.426.741h0a.266.266,0,0,1-.433-.243A.944.944,0,0,1,316.626,141.361Z" transform="translate(-304.694 -141.307)"/>
        </g>
        <path id="Path_377" data-name="Path 377" class="cls-34" d="M280.77,145.822h-.046a9.487,9.487,0,0,0-4.294,7.356v.092c0,2.74,1.967,3.842,4.334,2.465h0a9.487,9.487,0,0,0,4.3-7.448C285.045,145.592,283.13,144.484,280.77,145.822Z" transform="translate(-95.196 -50.022)"/>
        <path id="Path_378" data-name="Path 378" class="cls-34" d="M263.36,155.622h-.039A9.494,9.494,0,0,0,259,163.089c0,2.727,1.967,3.835,4.307,2.485h0a9.441,9.441,0,0,0,4.3-7.448C267.641,155.386,265.727,154.284,263.36,155.622Z" transform="translate(-89.193 -53.397)"/>
        <path id="Path_379" data-name="Path 379" class="cls-34" d="M121.345,102.81,2.5,171.428l.243,84.3L121.588,187.11Z" transform="translate(-0.861 -35.405)"/>
        <path id="Path_380" data-name="Path 380" class="cls-1" d="M121.345,102.81,2.5,171.428V182.94L121.378,114.31Z" transform="translate(-0.861 -35.405)"/>
        <path id="Path_381" data-name="Path 381" class="cls-35" d="M0,206.01l.236,84.307,1.646.951-.243-84.3Z" transform="translate(0 -70.945)"/>
        <path id="Path_382" data-name="Path 382" class="cls-4" d="M120.484,102.311l-1.639-.951L0,169.971l1.639.957Z" transform="translate(0 -34.906)"/>
        <path id="Path_383" data-name="Path 383" class="cls-5" d="M173.8,116.522h0a3.73,3.73,0,0,1-1.691,2.924c-.938.538-1.7.1-1.7-.97a3.7,3.7,0,0,1,1.685-2.918h0C173.033,115.02,173.793,115.447,173.8,116.522Z" transform="translate(-58.685 -39.715)"/>
        <path id="Path_384" data-name="Path 384" class="cls-34" d="M164.706,121.922h0a3.7,3.7,0,0,1-1.685,2.924c-.938.544-1.691.1-1.691-.97h0a3.7,3.7,0,0,1,1.678-2.918h0C163.946,120.42,164.706,120.847,164.706,121.922Z" transform="translate(-55.558 -41.575)"/>
        <path id="Path_385" data-name="Path 385" class="cls-6" d="M151.79,129.536a3.7,3.7,0,0,1,1.678-2.918h0c.938-.538,1.7-.111,1.7.964h0a3.711,3.711,0,0,1-1.685,2.924C152.544,131.043,151.79,130.611,151.79,129.536Z" transform="translate(-52.273 -43.524)"/>
        <ellipse id="Ellipse_42" data-name="Ellipse 42" class="cls-36" cx="20.987" cy="9.113" rx="20.987" ry="9.113" transform="translate(207.617 183.391)"/>
        <path id="Path_386" data-name="Path 386" class="cls-37" d="M312.474,166.616a71.628,71.628,0,0,1-10.306-6.464,22.808,22.808,0,0,0-4.144-2.675,10.1,10.1,0,0,0-2.229-.6,8.589,8.589,0,0,1-2.97-1.213.256.256,0,0,0-.19-.033.275.275,0,0,0-.413.079c-.413.656,0,1.311.577,1.7a11,11,0,0,0,1.777,1,4.34,4.34,0,0,0,2.327,4.366c.4.2.846.3,1.265.472.623.262,1.095.728,1.718.97a3.324,3.324,0,0,0,1.967.092c2.622,2.708,8.707,7.717,8.707,7.717C310.816,171.4,312.474,166.616,312.474,166.616Z" transform="translate(-100.577 -53.573)"/>
        <path id="Path_387" data-name="Path 387" class="cls-6" d="M356.669,284.231a11.33,11.33,0,0,1-7.009-.78c-1.37.039-7.481-3.049-8.49-.374-.892,2.341,2.334,4.5,4.052,4.924,3.757.911,6.556,2.78,8.044,3.1,1.121.236,2.577.393,3.475-.492C357.816,289.548,357.718,285.627,356.669,284.231Z" transform="translate(-117.438 -97.109)"/>
        <path id="Path_388" data-name="Path 388" class="cls-34" d="M353.267,291.27c-1.508-.321-4.288-2.19-8.045-3.1-1.442-.347-3.934-1.928-4.176-3.809-.334,2.157,2.57,4.071,4.176,4.458,3.757.911,6.556,2.78,8.045,3.1,1.121.236,2.577.393,3.475-.492a2.282,2.282,0,0,0,.492-.9A4.491,4.491,0,0,1,353.267,291.27Z" transform="translate(-117.439 -97.927)"/>
        <path id="Path_389" data-name="Path 389" class="cls-34" d="M346.265,282.331a3.553,3.553,0,0,0-1.81,2.137c-.085.42.557.6.656.177a2.9,2.9,0,0,1,2.124-2.072.885.885,0,0,0-.97-.243Z" transform="translate(-118.619 -97.209)"/>
        <path id="Path_390" data-name="Path 390" class="cls-34" d="M348.411,282.906a3.671,3.671,0,0,0-1.836,2.17c-.092.42.557.6.656.177a2.9,2.9,0,0,1,2.124-2.072A.859.859,0,0,0,348.411,282.906Z" transform="translate(-119.349 -97.41)"/>
        <path id="Path_391" data-name="Path 391" class="cls-34" d="M350.471,283.536a3.547,3.547,0,0,0-1.855,2.164c-.085.42.557.6.656.177a2.9,2.9,0,0,1,2.118-2.072.819.819,0,0,0-.918-.269Z" transform="translate(-120.052 -97.627)"/>
        <path id="Path_392" data-name="Path 392" class="cls-38" d="M359.665,197.57c-1.311.157-13.355.924-13.355.924.256,4.635,2.026,24.947,2.767,30.729.7,5.494,2.406,25.156,2.406,25.156,2.583,2.806,7.009.78,7.009.78s1.233-22.357.538-28.808C357.711,214.144,360.052,205.562,359.665,197.57Z" transform="translate(-119.261 -68.038)"/>
        <path id="Path_393" data-name="Path 393" class="cls-6" d="M345.366,291.321a11.258,11.258,0,0,1-7.015-.78c-1.37.039-7.481-3.049-8.49-.374-.885,2.341,2.334,4.511,4.058,4.924,3.757.911,6.556,2.786,8.038,3.1,1.128.236,2.583.393,3.475-.492C346.507,296.644,346.415,292.717,345.366,291.321Z" transform="translate(-113.544 -99.55)"/>
        <path id="Path_394" data-name="Path 394" class="cls-34" d="M341.96,298.374c-1.508-.315-4.281-2.19-8.038-3.1-1.442-.348-3.934-1.928-4.176-3.8-.334,2.15,2.57,4.065,4.176,4.452,3.757.911,6.556,2.786,8.038,3.1,1.128.236,2.583.393,3.475-.492a2.21,2.21,0,0,0,.5-.9A4.5,4.5,0,0,1,341.96,298.374Z" transform="translate(-113.547 -100.375)"/>
        <path id="Path_395" data-name="Path 395" class="cls-34" d="M334.965,289.421a3.586,3.586,0,0,0-1.81,2.137c-.092.42.557.6.656.177a2.9,2.9,0,0,1,2.124-2.072A.885.885,0,0,0,334.965,289.421Z" transform="translate(-114.727 -99.65)"/>
        <path id="Path_396" data-name="Path 396" class="cls-34" d="M337.1,289.977a3.717,3.717,0,0,0-1.836,2.17c-.085.426.557.6.656.184a2.9,2.9,0,0,1,2.118-2.078A.859.859,0,0,0,337.1,289.977Z" transform="translate(-115.455 -99.846)"/>
        <path id="Path_397" data-name="Path 397" class="cls-34" d="M339.171,290.635a3.475,3.475,0,0,0-1.855,2.164c-.085.42.557.6.656.177a2.885,2.885,0,0,1,2.118-2.072A.813.813,0,0,0,339.171,290.635Z" transform="translate(-116.161 -100.071)"/>
        <path id="Path_398" data-name="Path 398" class="cls-34" d="M349.663,204.42c-1.311.157-14.653,1.088-14.653,1.088.256,4.635,2.026,24.914,2.76,30.723.7,5.494,2.406,25.156,2.406,25.156,2.583,2.806,7.015.78,7.015.78s1.233-22.35.531-28.808C346.4,221.152,350.043,212.412,349.663,204.42Z" transform="translate(-115.369 -70.397)"/>
        <path id="Path_399" data-name="Path 399" class="cls-6" d="M348.748,145.865a5.7,5.7,0,0,0-4.2-5.212,11.067,11.067,0,0,0-6.923.656,30.69,30.69,0,0,0-9.893,6.491,17.171,17.171,0,0,0-3.986,6.845c-.656,1.967-1.449,3.842-2.164,5.77l-1.475-.9a7.743,7.743,0,0,0-2.17,6.9s4.589,3.665,5.665,3.658c2.97,0,4.393-6.032,5-7.612-1.082,11.454-.754,21.236-.479,22.042,11.926,5.4,22.37-.61,22.4-2.623C350.6,176.876,349.259,154.054,348.748,145.865Z" transform="translate(-109.445 -48.341)"/>
        <path id="Path_400" data-name="Path 400" class="cls-37" d="M350.445,117.85a6.871,6.871,0,0,0-6.556-3.6c-2.531.125-5.245,1.436-6.1,3.98-1.108,3.278-2.236,7.389-.584,10.621C342.591,139.367,352.517,121.613,350.445,117.85Z" transform="translate(-115.837 -39.339)"/>
        <path id="Path_401" data-name="Path 401" class="cls-37" d="M350.485,134.106a.341.341,0,0,0-.5-.289c-1.77,1.062-5.619.767-5.619,1.016,0,0-.734,5.284-1.016,6.95a.354.354,0,0,0,.236.413,6,6,0,0,0,5.8-1.174,3.166,3.166,0,0,0,1.357-2.059A32.662,32.662,0,0,0,350.485,134.106Z" transform="translate(-118.237 -46.069)"/>
        <path id="Path_402" data-name="Path 402" class="cls-34" d="M352.368,117.5a6.256,6.256,0,0,0-1.088-1.967,7.905,7.905,0,0,0-6.523-3.055h-.072a3.789,3.789,0,0,0-.452-.328,2.78,2.78,0,0,0-1.311-.393c-.5,0-1.488.164-1.711.708a.347.347,0,0,0-.138-.079c-2.819-.747-5.8,1.239-5.166,4.334.6,2.937,3.567,4.589,6.4,4.865,0,0,.052,1.416.072,2.918a2.249,2.249,0,0,1,1.875-.885,1.311,1.311,0,0,1,1.311,1.619c-.354,1.108-1.967,1.554-3.14,1.239v1.534a1.724,1.724,0,0,0,.361,1.18,1.5,1.5,0,0,0,.734.387c.446.118.911.144,1.364.223a3.114,3.114,0,0,1,1.023.328,8.206,8.206,0,0,0,.82.518c.964.387,1.5-.806,1.914-1.449a16.206,16.206,0,0,1,1.724-2.072,8.262,8.262,0,0,0,1.423-2.072,11.074,11.074,0,0,0,1.056-4.871A8.675,8.675,0,0,0,352.368,117.5Z" transform="translate(-115.648 -38.487)"/>
        <ellipse id="Ellipse_43" data-name="Ellipse 43" class="cls-36" cx="20.987" cy="9.113" rx="20.987" ry="9.113" transform="translate(122.549 259.273)"/>
        <g id="Group_128" data-name="Group 128" transform="translate(83.002 175.236)">
          <path id="Path_403" data-name="Path 403" class="cls-39" d="M126.6,305v56.135a1.842,1.842,0,0,0,1.082,1.514V306.514A1.855,1.855,0,0,1,126.6,305Z" transform="translate(-126.6 -280.27)"/>
          <path id="Path_404" data-name="Path 404" class="cls-40" d="M128.25,307.26l.013,56.135,18.594,10.8-.013-56.135Z" transform="translate(-127.168 -281.048)"/>
          <path id="Path_405" data-name="Path 405" class="cls-41" d="M203.679,288.551a1.849,1.849,0,0,0,1.1-1.541v56.135a1.875,1.875,0,0,1-1.088,1.554l-39.042,22.54V311.1Z" transform="translate(-139.703 -274.075)"/>
          <path id="Path_406" data-name="Path 406" class="cls-42" d="M127.7,290.443c-1.455.839-1.469,2.209,0,3.049L146.3,304.3a5.783,5.783,0,0,0,5.245,0l39.042-22.54c1.462-.846,1.475-2.209,0-3.049l-18.594-10.8a5.835,5.835,0,0,0-5.245,0Z" transform="translate(-126.603 -267.28)"/>
          <path id="Path_407" data-name="Path 407" class="cls-43" d="M156.61,323.74v56.135a5.809,5.809,0,0,0,5.245,0V323.74a5.783,5.783,0,0,1-5.245,0Z" transform="translate(-136.935 -286.724)"/>
        </g>
        <path id="Path_408" data-name="Path 408" class="cls-38" d="M224.92,282.538l.125-.138Z" transform="translate(-77.457 -97.252)"/>
        <path id="Path_409" data-name="Path 409" class="cls-38" d="M225.76,281.327a.767.767,0,0,0,0-.177A.767.767,0,0,1,225.76,281.327Z" transform="translate(-77.746 -96.821)"/>
        <path id="Path_410" data-name="Path 410" class="cls-38" d="M225.44,281.91a1.036,1.036,0,0,0,.085-.17,1.034,1.034,0,0,1-.085.17Z" transform="translate(-77.636 -97.024)"/>
        <path id="Path_411" data-name="Path 411" class="cls-38" d="M127,300c.059.079.144.157.223.243A.818.818,0,0,0,127,300Z" transform="translate(-43.736 -103.313)"/>
        <path id="Path_412" data-name="Path 412" class="cls-38" d="M127.53,300.52a3.338,3.338,0,0,0,.472.334,3.338,3.338,0,0,1-.472-.334Z" transform="translate(-43.918 -103.492)"/>
        <path id="Path_413" data-name="Path 413" class="cls-38" d="M126.71,299.34a1.088,1.088,0,0,0,.118.229A1.088,1.088,0,0,1,126.71,299.34Z" transform="translate(-43.636 -103.085)"/>
        <path id="Path_414" data-name="Path 414" class="cls-38" d="M126.672,299.127a1.088,1.088,0,0,0,.118.229.4.4,0,0,0,.079.17,2.228,2.228,0,0,0,.223.243l.118.131a3.338,3.338,0,0,0,.472.334l18.594,10.8v4.085l-18.594-10.8A1.842,1.842,0,0,1,126.6,302.8V298.72a1.4,1.4,0,0,0,.039.229A1.675,1.675,0,0,0,126.672,299.127Z" transform="translate(-43.598 -102.872)"/>
        <path id="Path_415" data-name="Path 415" class="cls-38" d="M161.875,317.51v4.085a5.783,5.783,0,0,1-5.245,0V317.51A5.782,5.782,0,0,0,161.875,317.51Z" transform="translate(-53.94 -109.343)"/>
        <path id="Path_416" data-name="Path 416" class="cls-38" d="M203.659,282.324a3.161,3.161,0,0,0,.485-.341l.125-.138a2.364,2.364,0,0,0,.216-.236,1.036,1.036,0,0,0,.085-.171,1.166,1.166,0,0,0,.125-.236.763.763,0,0,0,0-.177.99.99,0,0,0,.039-.236h0v4.085a1.875,1.875,0,0,1-1.1,1.541l-39.042,22.54v-4.085Z" transform="translate(-56.681 -96.697)"/>
        <path id="Path_417" data-name="Path 417" class="cls-34" d="M191.672,274.228a.768.768,0,0,1,0,.177,1.167,1.167,0,0,1-.125.236,1.039,1.039,0,0,1-.085.171,2.357,2.357,0,0,1-.216.236l-.125.138a3.159,3.159,0,0,1-.485.341l-39.042,22.54a5.783,5.783,0,0,1-5.245,0l-18.633-10.824a3.333,3.333,0,0,1-.472-.334l-.118-.131c-.079-.085-.164-.164-.223-.243a.541.541,0,0,1-.079-.17,1.088,1.088,0,0,1-.118-.229,1.677,1.677,0,0,1,0-.177,1.731,1.731,0,0,1,1.062-1.764l39-22.521a5.835,5.835,0,0,1,5.245,0l18.594,10.8a1.842,1.842,0,0,1,1.075,1.514A.992.992,0,0,1,191.672,274.228Z" transform="translate(-43.632 -89.899)"/>
        <path id="Path_418" data-name="Path 418" class="cls-44" d="M208.37,282.952a.563.563,0,0,0,.085-.092.563.563,0,0,1-.085.092Z" transform="translate(-71.758 -97.41)"/>
        <path id="Path_419" data-name="Path 419" class="cls-44" d="M208.93,282.138a.743.743,0,0,0,0-.118A.743.743,0,0,1,208.93,282.138Z" transform="translate(-71.95 -97.121)"/>
        <path id="Path_420" data-name="Path 420" class="cls-44" d="M208.72,282.545a.846.846,0,0,0,.059-.1.844.844,0,0,1-.059.1Z" transform="translate(-71.878 -97.265)"/>
        <path id="Path_421" data-name="Path 421" class="cls-44" d="M143.75,294.43a1.575,1.575,0,0,0,.144.157A1.573,1.573,0,0,1,143.75,294.43Z" transform="translate(-49.504 -101.394)"/>
        <path id="Path_422" data-name="Path 422" class="cls-44" d="M144.09,294.8a1.619,1.619,0,0,0,.308.223,1.619,1.619,0,0,1-.308-.223Z" transform="translate(-49.621 -101.522)"/>
        <path id="Path_423" data-name="Path 423" class="cls-44" d="M143.54,294c0,.046.052.1.079.151A.458.458,0,0,1,143.54,294Z" transform="translate(-49.432 -101.246)"/>
        <path id="Path_424" data-name="Path 424" class="cls-45" d="M143.519,293.862c0,.046.052.1.079.151a.86.86,0,0,0,.059.111,1.568,1.568,0,0,0,.144.157.926.926,0,0,0,.079.085,1.62,1.62,0,0,0,.308.223l12.273,7.14v2.695l-12.273-7.133a1.213,1.213,0,0,1-.708-1v-2.544a.74.74,0,0,0,.039.111Z" transform="translate(-49.411 -101.109)"/>
        <path id="Path_425" data-name="Path 425" class="cls-46" d="M166.755,306v2.695a3.822,3.822,0,0,1-3.475,0V306A3.822,3.822,0,0,0,166.755,306Z" transform="translate(-56.23 -105.379)"/>
        <path id="Path_426" data-name="Path 426" class="cls-47" d="M194.328,282.8a2.438,2.438,0,0,0,.315-.229.564.564,0,0,0,.085-.092.825.825,0,0,0,.144-.157.844.844,0,0,0,.059-.1c0-.052.059-.1.079-.157a.74.74,0,0,0,0-.118,1.3,1.3,0,0,0,0-.157h0v2.695a1.239,1.239,0,0,1-.728,1.016L168.51,300.367v-2.708Z" transform="translate(-58.031 -97.038)"/>
        <path id="Path_427" data-name="Path 427" class="cls-1" d="M186.455,277.428a.738.738,0,0,1,0,.118c0,.052-.052.1-.079.157a.843.843,0,0,1-.059.1.826.826,0,0,1-.144.157.566.566,0,0,1-.085.092,2.444,2.444,0,0,1-.315.229l-25.818,14.876a3.822,3.822,0,0,1-3.475,0l-12.273-7.133a1.621,1.621,0,0,1-.308-.223.928.928,0,0,1-.079-.085,1.575,1.575,0,0,1-.144-.157c0-.039-.039-.079-.059-.111a1.586,1.586,0,0,1-.079-.151.739.739,0,0,1,0-.118,1.154,1.154,0,0,1,.7-1.167l25.773-14.876a3.822,3.822,0,0,1,3.475,0l12.273,7.127a1.226,1.226,0,0,1,.715,1,1.308,1.308,0,0,1-.02.157Z" transform="translate(-49.429 -92.542)"/>
        <path id="Path_428" data-name="Path 428" class="cls-27" d="M159.067,292.961a2.2,2.2,0,0,1-1.062-.236l-12-6.976,25.51-14.725a2.492,2.492,0,0,1,2.131,0l12,6.976-25.51,14.732A2.223,2.223,0,0,1,159.067,292.961Z" transform="translate(-50.279 -93.252)"/>
        <path id="Path_429" data-name="Path 429" class="cls-37" d="M183.063,282.72c.249-.695,1.39-.334,1.9-.374a26.04,26.04,0,0,1,5.153-.059c.747.092,1.488.256,2.229.393,2.924.518,5.442.138,8.392-.177,0,0,.839,3.809.9,4.327,0,0-6-.852-8.818-1.573a16.963,16.963,0,0,1-3.855.97,2.8,2.8,0,0,1-.741-.039,1.75,1.75,0,0,0-.8-.072,9.67,9.67,0,0,0-1.311.623.374.374,0,0,1-.492-.125.721.721,0,0,1,.144-.892,2.144,2.144,0,0,1,.544-.426,5.35,5.35,0,0,1,1.049-.406c.256-.072.5-.321.223-.544a.388.388,0,0,0-.111-.066c-.983-.5-2.19.1-3.226-.3C183.8,283.782,182.84,283.323,183.063,282.72Z" transform="translate(-63.031 -97.178)"/>
        <path id="Path_430" data-name="Path 430" class="cls-5" d="M197.932,280.12c.6.079,12.595-.656,12.595-.656s.656-1.816,1.357-3.685a11.99,11.99,0,0,1,2.288,4.235,11.644,11.644,0,0,1,.052,4.642c-.656.734-1.246,1.311-1.7,1.311-2.2,0-15.191-1.442-15.735-2.288C196.9,282.782,196.122,281.569,197.932,280.12Z" transform="translate(-67.744 -94.972)"/>
        <path id="Path_431" data-name="Path 431" class="cls-37" d="M181.329,292.217c-2.95.321-5.468.7-8.392.177a13.755,13.755,0,0,0-4.766-.374,8.933,8.933,0,0,0-1.7.5,6.609,6.609,0,0,1-2.445.4.19.19,0,0,0-.138.052.216.216,0,0,0-.243.216c0,.61.538.846,1.069.885a8.951,8.951,0,0,0,1.567-.059,3.344,3.344,0,0,0,3.278,1.934,17.589,17.589,0,0,0,3.855-.97c2.819.715,8.825,1.587,8.825,1.587C182.168,296.026,181.329,292.217,181.329,292.217Z" transform="translate(-56.354 -100.532)"/>
        <path id="Path_432" data-name="Path 432" class="cls-5" d="M228.653,399.264a11.053,11.053,0,0,1-6.871-.767c-1.311.039-7.33-2.983-8.32-.367-.865,2.295,2.288,4.419,3.973,4.825,3.678.892,6.405,2.727,7.867,3.042,1.1.229,2.531.38,3.4-.485C229.774,404.476,229.683,400.634,228.653,399.264Z" transform="translate(-73.46 -136.739)"/>
        <path id="Path_433" data-name="Path 433" class="cls-34" d="M225.325,406.163c-1.475-.315-4.2-2.15-7.867-3.042-1.41-.341-3.849-1.888-4.091-3.73-.328,2.118,2.518,3.986,4.091,4.366,3.678.892,6.405,2.727,7.867,3.042,1.1.229,2.531.38,3.4-.485a2.111,2.111,0,0,0,.485-.879,4.425,4.425,0,0,1-3.888.728Z" transform="translate(-73.469 -137.54)"/>
        <path id="Path_434" data-name="Path 434" class="cls-34" d="M218.456,397.4a3.521,3.521,0,0,0-1.77,2.091c-.085.413.544.59.656.177a2.832,2.832,0,0,1,2.078-2.032A.865.865,0,0,0,218.456,397.4Z" transform="translate(-74.619 -136.834)"/>
        <path id="Path_435" data-name="Path 435" class="cls-34" d="M220.559,397.975a3.638,3.638,0,0,0-1.8,2.124c-.085.413.551.59.656.177a2.832,2.832,0,0,1,2.078-2.032.833.833,0,0,0-.931-.269Z" transform="translate(-75.331 -137.036)"/>
        <path id="Path_436" data-name="Path 436" class="cls-34" d="M222.582,398.584a3.455,3.455,0,0,0-1.816,2.118c-.085.413.544.59.656.177a2.832,2.832,0,0,1,2.078-2.032.806.806,0,0,0-.918-.262Z" transform="translate(-76.024 -137.245)"/>
        <path id="Path_437" data-name="Path 437" class="cls-38" d="M230.878,316c-.761,7.336-2.78,15.905-.413,25.917,1.914,8.071.039,29.569.039,29.569s-4.216,2.623-6.956-.374c0,0-.485-18.285-2.845-28.408-1.088-4.668-2.491-16.5-2.367-26.7Z" transform="translate(-75.187 -108.823)"/>
        <path id="Path_438" data-name="Path 438" class="cls-5" d="M213.726,407.994a11.028,11.028,0,0,1-6.864-.767c-1.344.039-7.33-2.983-8.32-.367-.872,2.295,2.282,4.419,3.973,4.825,3.678.892,6.4,2.727,7.868,3.042,1.1.229,2.524.38,3.4-.485C214.847,413.206,214.755,409.364,213.726,407.994Z" transform="translate(-68.321 -139.745)"/>
        <path id="Path_439" data-name="Path 439" class="cls-34" d="M210.4,414.9c-1.482-.315-4.2-2.15-7.868-3.042-1.416-.341-3.849-1.888-4.1-3.724-.328,2.111,2.524,3.98,4.1,4.36,3.678.892,6.4,2.727,7.868,3.042,1.1.229,2.524.38,3.4-.485a2.1,2.1,0,0,0,.479-.879A4.392,4.392,0,0,1,210.4,414.9Z" transform="translate(-68.328 -140.55)"/>
        <path id="Path_440" data-name="Path 440" class="cls-34" d="M203.535,406.129a3.5,3.5,0,0,0-1.77,2.091.34.34,0,0,0,.656.177,2.832,2.832,0,0,1,2.078-2.032A.859.859,0,0,0,203.535,406.129Z" transform="translate(-69.48 -139.84)"/>
        <path id="Path_441" data-name="Path 441" class="cls-34" d="M205.632,406.694a3.626,3.626,0,0,0-1.8,2.124c-.085.413.544.59.656.177a2.852,2.852,0,0,1,2.078-2.032.833.833,0,0,0-.938-.269Z" transform="translate(-70.193 -140.038)"/>
        <path id="Path_442" data-name="Path 442" class="cls-34" d="M207.661,407.313a3.436,3.436,0,0,0-1.816,2.118.34.34,0,0,0,.656.177,2.832,2.832,0,0,1,2.078-2.032.8.8,0,0,0-.918-.262Z" transform="translate(-70.885 -140.251)"/>
        <path id="Path_443" data-name="Path 443" class="cls-34" d="M216.179,314.768c-1.377.17-12.227-2.668-12.227-2.668-1.508,11.014.42,28.952,1.823,34.978,2.367,10.123,2.852,28.408,2.852,28.408,2.74,2.983,6.956.374,6.956.374s1.869-21.491-.039-29.569C212.54,333.618,216.585,323.246,216.179,314.768Z" transform="translate(-70.047 -107.48)"/>
        <path id="Path_444" data-name="Path 444" class="cls-5" d="M178.43,279.436c.6.079,12.457-.5,12.457-.5s2.668-7.291,2.878-7.717c.7-1.442,1.364-2.9,2.078-4.34,2.95-6,9.139-12.319,16.45-11.021a4.537,4.537,0,0,1,2.236.944,6.2,6.2,0,0,1,2.059,4.13,31.234,31.234,0,0,1-.951,11.611c-1.246,4.766-1.875,8.9-.354,13.676,1.18,3.711,2.7,8.13,1.8,12.018a24.914,24.914,0,0,1-23.262.924c.479-6.989,3.049-16.8,3.16-18.1-.656.557-2.944,4.38-4.1,4.366-2.2,0-15.191-1.442-15.735-2.282a3.219,3.219,0,0,1,1.278-3.717Z" transform="translate(-60.948 -88.053)"/>
        <path id="Path_445" data-name="Path 445" class="cls-37" d="M202.571,232.673a6.681,6.681,0,0,1,4.393-2.478,8.726,8.726,0,0,1,6.969,2.393,7.868,7.868,0,0,1,2.544,6.556c.066.059-.387,10.1-.82,11.4a31.27,31.27,0,0,1-6.189.872c-.052-1.311-.616-3.744-1.547-4.589a4.131,4.131,0,0,1-2.734.721c-2.321-.4-3.534-4.078-4.085-5.979A10.172,10.172,0,0,1,202.571,232.673Z" transform="translate(-69.112 -79.257)"/>
        <path id="Path_446" data-name="Path 446" class="cls-6" d="M197.982,232.783a9.461,9.461,0,0,1,2.085-2.419,11.4,11.4,0,0,1,6.523-2.557,10.66,10.66,0,0,1,8.182,3.009c2.341,2.38,1.967,5.973,4.642,8.077a9.126,9.126,0,0,1,3.475,8.031.7.7,0,0,0,.328.656,5.507,5.507,0,0,1,1.737,7.153,5.422,5.422,0,0,1-1.888,1.888.658.658,0,0,0-.118.118c.918,4.163-2.983,7.048-6.845,7.14a5.1,5.1,0,0,1-4.629-2.524,56.222,56.222,0,0,0-2.819-5.022c-.931-1.239-2.931-2.242-4.432-1.455a3.16,3.16,0,0,1-1.311-1.639c-.734-2.013.2-3.993,1.311-5.651a11.269,11.269,0,0,0,1.056-3.036,2.557,2.557,0,0,1,.911-1.383,1.665,1.665,0,0,0,.754-1.541.656.656,0,0,0-1.265-.236c-.184.374-.321.741-.393.9-.151.341-.656.144-.656-.184,0-.557,0-1.134-.046-1.685a1.534,1.534,0,0,0-1.023-1.4.656.656,0,0,0-.328-.039,18,18,0,0,1-4.386.374C197.831,239.188,196.71,234.9,197.982,232.783Z" transform="translate(-67.985 -78.442)"/>
        <path id="Path_447" data-name="Path 447" class="cls-48" d="M161.146,200.59v1.5l-16.85,9.736-.007-1.5Z" transform="translate(-49.69 -69.078)"/>
        <path id="Path_448" data-name="Path 448" class="cls-48" d="M171.656,199.394c.361-.2.656-.046.656.374a1.449,1.449,0,0,1-.656,1.128h0c-.367.21-.656.039-.656-.374A1.442,1.442,0,0,1,171.656,199.394Z" transform="translate(-58.888 -68.636)"/>
        <path id="Path_449" data-name="Path 449" class="cls-48" d="M161.146,207.3v1.5l-16.85,9.729-.007-1.5Z" transform="translate(-49.69 -71.389)"/>
        <path id="Path_450" data-name="Path 450" class="cls-48" d="M171.656,206.1c.361-.2.656-.046.656.374a1.462,1.462,0,0,1-.656,1.128h0c-.367.21-.656.039-.656-.374a1.429,1.429,0,0,1,.656-1.128Z" transform="translate(-58.888 -70.947)"/>
        <path id="Path_451" data-name="Path 451" class="cls-48" d="M161.146,214.01v1.5l-16.85,9.729-.007-1.5Z" transform="translate(-49.69 -73.7)"/>
        <path id="Path_452" data-name="Path 452" class="cls-48" d="M171.656,212.812c.361-.21.656-.046.656.374a1.469,1.469,0,0,1-.656,1.128h0a.4.4,0,0,1-.656-.374,1.429,1.429,0,0,1,.656-1.128Z" transform="translate(-58.888 -73.256)"/>
        <path id="Path_453" data-name="Path 453" class="cls-48" d="M161.146,220.72v1.5l-16.85,9.729-.007-1.5Z" transform="translate(-49.69 -76.011)"/>
        <path id="Path_454" data-name="Path 454" class="cls-48" d="M171.656,219.522c.361-.21.656-.046.656.374a1.469,1.469,0,0,1-.656,1.128h0a.4.4,0,0,1-.656-.374,1.429,1.429,0,0,1,.656-1.128Z" transform="translate(-58.888 -75.567)"/>
        <path id="Path_455" data-name="Path 455" class="cls-48" d="M161.146,227.43v1.5l-16.85,9.729-.007-1.5Z" transform="translate(-49.69 -78.321)"/>
        <path id="Path_456" data-name="Path 456" class="cls-48" d="M171.656,226.224c.361-.2.656-.039.656.374a1.449,1.449,0,0,1-.656,1.128h0c-.367.216-.656.039-.656-.374a1.442,1.442,0,0,1,.656-1.128Z" transform="translate(-58.888 -77.876)"/>
        <path id="Path_457" data-name="Path 457" class="cls-1" d="M161.146,145.85v30.677l-16.85,9.729-.007-30.677Z" transform="translate(-49.69 -50.227)"/>
        <path id="Path_458" data-name="Path 458" class="cls-1" d="M36.572,221.24l-.144.072h0c-7.868,4.543-14.234,15.565-14.207,24.606s6.386,12.667,14.22,8.2l.059-.033h0c7.867-4.543,14.24-15.558,14.214-24.606S44.367,216.814,36.572,221.24Zm-.066,26.881h-.039c-5,2.852-9.061.525-9.08-5.245s4.052-12.811,9.074-15.735h0l.092-.046c4.983-2.826,9.028-.492,9.041,5.245s-4.058,12.909-9.094,15.807Z" transform="translate(-7.652 -75.54)"/>
        <path id="Path_459" data-name="Path 459" class="cls-5" d="M43.952,221.238l-.144.072h0l-.157.1v5.9l.177-.111h0l.092-.046c4.983-2.826,9.028-.492,9.041,5.245s-3.993,12.713-8.976,15.65v5.933c7.867-4.589,14.155-15.545,14.129-24.56S51.747,216.812,43.952,221.238Z" transform="translate(-15.032 -75.538)"/>
        <path id="Path_460" data-name="Path 460" class="cls-6" d="M52.963,232.452v.184l5.16-3.14h0c0-8.989-6.353-12.647-14.161-8.222l-.144.072h0l-.157.1v5.9l.177-.111h0l.092-.046C48.9,224.381,52.95,226.709,52.963,232.452Z" transform="translate(-15.035 -75.555)"/>
        <path id="Path_461" data-name="Path 461" class="cls-48" d="M36.25,283.65l.007,1.5-9.88,5.8-.007-1.5Z" transform="translate(-9.081 -97.682)"/>
        <path id="Path_462" data-name="Path 462" class="cls-48" d="M24.086,293.594c.361-.2.656-.039.656.374a1.469,1.469,0,0,1-.656,1.134h0c-.367.21-.656.033-.656-.374a1.456,1.456,0,0,1,.656-1.134Z" transform="translate(-8.069 -101.077)"/>
        <path id="Path_463" data-name="Path 463" class="cls-48" d="M58.49,270.92v1.5l-9.874,5.8-.007-1.5Z" transform="translate(-16.74 -93.298)"/>
        <path id="Path_464" data-name="Path 464" class="cls-48" d="M46.326,280.872c.354-.21.656-.046.656.374a1.469,1.469,0,0,1-.656,1.128h0c-.367.21-.656.033-.656-.374A1.416,1.416,0,0,1,46.326,280.872Z" transform="translate(-15.728 -96.694)"/>
        <path id="Path_465" data-name="Path 465" class="cls-48" d="M36.25,289.37l.007,1.5-9.88,5.8-.007-1.5Z" transform="translate(-9.081 -99.652)"/>
        <path id="Path_466" data-name="Path 466" class="cls-48" d="M24.086,299.322c.361-.21.656-.046.656.374a1.462,1.462,0,0,1-.656,1.128h0a.4.4,0,0,1-.656-.374A1.429,1.429,0,0,1,24.086,299.322Z" transform="translate(-8.069 -103.048)"/>
        <path id="Path_467" data-name="Path 467" class="cls-48" d="M58.49,276.64v1.5l-9.874,5.809-.007-1.508Z" transform="translate(-16.74 -95.268)"/>
        <path id="Path_468" data-name="Path 468" class="cls-48" d="M46.326,286.594c.354-.2.656-.046.656.374a1.462,1.462,0,0,1-.656,1.128h0c-.367.21-.656.039-.656-.374a1.416,1.416,0,0,1,.656-1.128Z" transform="translate(-15.728 -98.665)"/>
        <path id="Path_469" data-name="Path 469" class="cls-48" d="M36.25,295.09l.007,1.5-9.88,5.809-.007-1.5Z" transform="translate(-9.081 -101.622)"/>
        <path id="Path_470" data-name="Path 470" class="cls-48" d="M24.086,305.044c.361-.2.656-.046.656.374a1.449,1.449,0,0,1-.656,1.128h0c-.367.21-.656.039-.656-.374a1.442,1.442,0,0,1,.656-1.128Z" transform="translate(-8.069 -105.019)"/>
        <path id="Path_471" data-name="Path 471" class="cls-48" d="M58.49,282.37v1.5l-9.874,5.8-.007-1.5Z" transform="translate(-16.74 -97.241)"/>
        <path id="Path_472" data-name="Path 472" class="cls-48" d="M46.326,292.314c.354-.2.656-.046.656.374a1.449,1.449,0,0,1-.656,1.128h0c-.367.21-.656.039-.656-.374a1.423,1.423,0,0,1,.656-1.128Z" transform="translate(-15.728 -100.635)"/>
        <path id="Path_473" data-name="Path 473" class="cls-6" d="M88.522,186.345l-.066.039A14.5,14.5,0,0,0,81.9,197.575v.138c0,4.17,2.963,5.848,6.556,3.757h0a14.462,14.462,0,0,0,6.556-11.336C95.012,185.964,92.088,184.312,88.522,186.345Z" transform="translate(-28.204 -63.874)"/>
        <path id="Path_474" data-name="Path 474" class="cls-1" d="M93.2,196.8a.656.656,0,0,0,.282-.485V192.1c0-.177-.131-.249-.288-.164l-3.6,2.078v-.38c0-.236-.164-.328-.374-.21l-2.072,1.167a.806.806,0,0,0-.367.656v4.93c0,.177.125.249.282.157l5.448-3.121Z" transform="translate(-29.885 -66.084)"/>
        <path id="Path_475" data-name="Path 475" class="cls-6" d="M112.8,170.551l-.066.039a14.483,14.483,0,0,0-6.556,11.192v.138c0,4.17,2.957,5.848,6.556,3.757h0a14.462,14.462,0,0,0,6.556-11.336C119.292,170.17,116.395,168.544,112.8,170.551Z" transform="translate(-36.566 -58.439)"/>
        <path id="Path_476" data-name="Path 476" class="cls-1" d="M114.495,180.113l2.032.052-.393-2.367,1.633-2.78h0l-2.268.931-1.016-1.77h0l-1.01,2.937L111.21,178.8l1.646.892-.38,2.813Z" transform="translate(-38.298 -59.983)"/>
        <path id="Path_477" data-name="Path 477" class="cls-1" d="M114.482,186.514a.2.2,0,0,0-.092.157v2.386c0,.059.039.079.092.052a.2.2,0,0,0,.085-.157v-2.386C114.567,186.507,114.528,186.488,114.482,186.514Z" transform="translate(-39.393 -64.227)"/>
        <path id="Path_478" data-name="Path 478" class="cls-1" d="M117.882,184.545a.229.229,0,0,0-.092.164v2.38c0,.059.046.085.092.052a.19.19,0,0,0,.092-.157V184.6A.058.058,0,0,0,117.882,184.545Z" transform="translate(-40.564 -63.549)"/>
        <path id="Path_479" data-name="Path 479" class="cls-1" d="M116.175,184.193a.2.2,0,0,0-.085.157V188.6c0,.059.039.085.085.052a.19.19,0,0,0,.092-.157v-4.255C116.267,184.186,116.228,184.16,116.175,184.193Z" transform="translate(-39.979 -63.426)"/>
        <path id="Path_480" data-name="Path 480" class="cls-6" d="M88.522,248.354l-.066.033A14.522,14.522,0,0,0,81.9,259.579v.144c0,4.17,2.963,5.848,6.556,3.757h0a14.46,14.46,0,0,0,6.556-11.329C95.012,247.987,92.088,246.315,88.522,248.354Z" transform="translate(-28.204 -85.228)"/>
        <path id="Path_481" data-name="Path 481" class="cls-1" d="M86.328,261.775l.616-.361a6.779,6.779,0,0,1-.426,1.514,6.005,6.005,0,0,0,1.265-2l5.363-3.095a1.521,1.521,0,0,0,.688-1.213v-4.039c0-.439-.308-.616-.695-.393l-6.471,3.776-.354.2a1.508,1.508,0,0,0-.695,1.193v4.045C85.633,261.82,85.948,261.991,86.328,261.775Zm6.5-5.12-6.2,3.58a.065.065,0,0,1-.1-.059.236.236,0,0,1,.1-.184l6.2-3.573c.052-.033.1,0,.1.059a.236.236,0,0,1-.1.177Zm0-.9-6.2,3.573c-.052.033-.1,0-.1-.059a.223.223,0,0,1,.1-.177l6.2-3.58c.059-.033.1,0,.1.066a.223.223,0,0,1-.111.177Zm0-.911-6.2,3.58a.065.065,0,0,1-.1-.059.223.223,0,0,1,.1-.177l6.2-3.58a.066.066,0,0,1,.1.059.223.223,0,0,1-.111.177Zm-6.209,2.439,6.2-3.573c.059,0,.1,0,.1.059a.236.236,0,0,1-.1.177l-6.2,3.58a.065.065,0,0,1-.1-.059A.256.256,0,0,1,86.623,257.277Z" transform="translate(-29.485 -86.815)"/>
        <path id="Path_482" data-name="Path 482" class="cls-6" d="M87.1,258.348l6.2-3.58a.236.236,0,0,0,.1-.177c0-.066-.046-.092-.1-.059l-6.2,3.58a.256.256,0,0,0-.1.184C87,258.355,87.046,258.381,87.1,258.348Z" transform="translate(-29.961 -87.65)"/>
        <path id="Path_483" data-name="Path 483" class="cls-6" d="M93.3,255.913l-6.2,3.58a.223.223,0,0,0-.1.177c0,.066.046.092.1.059l6.2-3.58a.223.223,0,0,0,.1-.177.066.066,0,0,0-.1-.059Z" transform="translate(-29.961 -88.126)"/>
        <path id="Path_484" data-name="Path 484" class="cls-6" d="M93.3,257.292l-6.2,3.58a.223.223,0,0,0-.1.157.064.064,0,0,0,.1.059l6.2-3.573a.223.223,0,0,0,.1-.177C93.405,257.286,93.36,257.26,93.3,257.292Z" transform="translate(-29.961 -88.6)"/>
        <path id="Path_485" data-name="Path 485" class="cls-6" d="M93.311,258.683l-6.2,3.573a.236.236,0,0,0-.1.184c0,.066.046.092.1.059l6.2-3.58a.236.236,0,0,0,.1-.177C93.409,258.676,93.363,258.65,93.311,258.683Z" transform="translate(-29.964 -89.079)"/>
        <path id="Path_486" data-name="Path 486" class="cls-6" d="M88.522,216.854l-.066.033A14.522,14.522,0,0,0,81.9,228.078v.144c0,4.163,2.963,5.848,6.556,3.75h0a14.46,14.46,0,0,0,6.556-11.329C95.012,216.48,92.088,214.815,88.522,216.854Z" transform="translate(-28.204 -74.38)"/>
        <path id="Path_487" data-name="Path 487" class="cls-1" d="M93.875,222.969c0-1.423-1.016-2-2.255-1.311h0a4.9,4.9,0,0,0-1.967,2.452c-.387-.564-1.121-.656-1.967-.19a4.924,4.924,0,0,0-2.236,3.875h0c0,3.278,4.216,3.37,4.216,3.37h0S93.881,225.972,93.875,222.969Z" transform="translate(-29.427 -76.234)"/>
        <path id="Path_488" data-name="Path 488" class="cls-6" d="M112.8,232.425l-.066.033a14.506,14.506,0,0,0-6.556,11.2v.138c0,4.17,2.957,5.848,6.556,3.757h0a14.472,14.472,0,0,0,6.556-11.336C119.292,232.044,116.395,230.392,112.8,232.425Z" transform="translate(-36.566 -79.743)"/>
        <path id="Path_489" data-name="Path 489" class="cls-1" d="M116.157,237.9l-3.494,2.032V243.1l-1.6.924c-.046,0-.066.1-.039.125l1.659,1.154,1.7,1.187.079-.046,1.685-3.14,1.652-3.068c0-.052,0-.1-.039-.079l-1.6.924v-3.167" transform="translate(-38.23 -81.927)"/>
        <path id="Path_490" data-name="Path 490" class="cls-6" d="M112.8,201.09h-.066a14.5,14.5,0,0,0-6.556,11.192v.144c0,4.163,2.957,5.848,6.556,3.75h0a14.46,14.46,0,0,0,6.556-11.329C119.292,200.684,116.395,199.051,112.8,201.09Z" transform="translate(-36.566 -68.949)"/>
        <path id="Path_491" data-name="Path 491" class="cls-1" d="M112.678,215.146l3.494-2.019V209.96l1.606-.924c.046,0,.066-.1.039-.125l-1.659-1.154-1.7-1.187-.079.046-1.685,3.14L111,212.825c0,.059,0,.1.039.079l1.6-.924v3.167" transform="translate(-38.226 -71.138)"/>
        <path id="Path_492" data-name="Path 492" class="cls-1" d="M282.983,148.863l-2.622,1.495v2.354l-1.193.656s-.052.079,0,.092l1.233.859,1.259.885.059-.033,1.265-2.288,1.226-2.282v-.059l-1.193.656V148.85" transform="translate(-96.13 -51.26)"/>
        <path id="Path_493" data-name="Path 493" class="cls-1" d="M263.356,165.34l2.623-1.495v-2.354l1.187-.688c.039,0,.052-.072.033-.092l-1.219-.859L264.667,159h-.059l-1.252,2.341-1.226,2.282v.059l1.193-.656v2.347" transform="translate(-90.271 -54.756)"/>
      </g>
    </g>
  </g>
</svg>
