<svg xmlns="http://www.w3.org/2000/svg" width="295.964" height="235.911" viewBox="0 0 295.964 235.911">
  <defs>
    <style>
      .cls-1 {
        fill: #f5f5f5;
      }

      .cls-2 {
        fill: #e0e0e0;
      }

      .cls-3 {
        fill: #ebebeb;
      }

      .cls-4 {
        fill: #27debf;
      }

      .cls-5 {
        opacity: 0.2;
      }

      .cls-10, .cls-12, .cls-6, .cls-9 {
        fill: #fff;
      }

      .cls-7, .cls-9 {
        opacity: 0.7;
      }

      .cls-8 {
        opacity: 0.5;
      }

      .cls-10 {
        opacity: 0.8;
      }

      .cls-11 {
        fill: #455a64;
      }

      .cls-12 {
        opacity: 0.6;
      }
    </style>
  </defs>
  <g id="image" transform="translate(-38.86 -89.773)">
    <g id="Layer_2" data-name="Layer 2" transform="translate(38.859 89.773)">
      <g id="Floor" transform="translate(0.001 81.3)">
        <path id="Path_223" data-name="Path 223" class="cls-1" d="M43.345,255.012c57.789,30.189,151.489,30.189,209.278,0s57.789-79.138,0-109.327-151.489-30.189-209.278,0S-14.45,224.822,43.345,255.012Z" transform="translate(-0.001 -123.042)"/>
      </g>
      <g id="Filing_Cabinets" data-name="Filing Cabinets" transform="translate(8.418 54.518)">
        <path id="Path_224" data-name="Path 224" class="cls-2" d="M31.535,221.6,12.75,210.746V170.46L31.535,181.3Z" transform="translate(-12.743 -112.347)"/>
        <path id="Path_225" data-name="Path 225" class="cls-3" d="M41.18,178.914,68.02,163.42v40.292L41.18,219.207Z" transform="translate(-22.388 -109.959)"/>
        <path id="Path_226" data-name="Path 226" class="cls-1" d="M58.375,157.849,31.535,173.344,12.75,162.5,39.589,147Z" transform="translate(-12.743 -104.389)"/>
        <path id="Path_227" data-name="Path 227" class="cls-2" d="M45.24,182.856l21.474-12.4.5.284v14.92l-21.474,12.4-.5-.291Z" transform="translate(-23.766 -112.347)"/>
        <path id="Path_228" data-name="Path 228" class="cls-1" d="M45.99,183.286l21.474-12.4v14.92l-21.474,12.4Z" transform="translate(-24.02 -112.493)"/>
        <path id="Path_229" data-name="Path 229" class="cls-2" d="M58.289,184.964l3.647-2.108c.476-.271.859-.145.859.284a1.724,1.724,0,0,1-.859,1.269l-3.647,2.108c-.476.271-.859.145-.859-.278a1.725,1.725,0,0,1,.859-1.275Z" transform="translate(-27.901 -116.505)"/>
        <path id="Path_230" data-name="Path 230" class="cls-2" d="M44.5,211.432l21.468-12.4v14.926l.5.284-21.474,12.4-.5-.284Z" transform="translate(-23.511 -122.04)"/>
        <path id="Path_231" data-name="Path 231" class="cls-1" d="M45.24,211.866l21.474-12.4v14.92l-21.474,12.4Z" transform="translate(-23.766 -122.189)"/>
        <path id="Path_232" data-name="Path 232" class="cls-2" d="M57.559,213.544l3.654-2.108c.469-.271.859-.145.859.277a1.744,1.744,0,0,1-.859,1.275L57.559,215.1c-.476.271-.859.145-.859-.284A1.725,1.725,0,0,1,57.559,213.544Z" transform="translate(-27.654 -126.2)"/>
        <path id="Path_233" data-name="Path 233" class="cls-2" d="M31.532,157.1,12.74,146.252V105.96l18.792,10.849Z" transform="translate(-12.74 -90.466)"/>
        <path id="Path_234" data-name="Path 234" class="cls-3" d="M41.18,114.424,68.02,98.93v40.286l-26.84,15.5Z" transform="translate(-22.388 -88.081)"/>
        <path id="Path_235" data-name="Path 235" class="cls-1" d="M58.371,93.359,31.532,108.854,12.74,98,39.586,82.51Z" transform="translate(-12.74 -82.51)"/>
        <path id="Path_236" data-name="Path 236" class="cls-2" d="M45.24,118.356l21.474-12.4.489.284V121.17l-21.468,12.4-.5-.284Z" transform="translate(-23.766 -90.466)"/>
        <path id="Path_237" data-name="Path 237" class="cls-2" d="M58.289,120.472l3.647-2.108c.476-.278.859-.152.859.278a1.7,1.7,0,0,1-.859,1.269l-3.647,2.128c-.476.271-.859.145-.859-.284A1.7,1.7,0,0,1,58.289,120.472Z" transform="translate(-27.901 -94.624)"/>
        <path id="Path_238" data-name="Path 238" class="cls-2" d="M44.49,146.936l21.474-12.4v14.926l.5.284-21.474,12.4-.5-.284Z" transform="translate(-23.511 -100.161)"/>
        <path id="Path_239" data-name="Path 239" class="cls-1" d="M45.24,147.372l21.474-12.4V149.9l-21.474,12.4Z" transform="translate(-23.766 -100.307)"/>
        <path id="Path_240" data-name="Path 240" class="cls-2" d="M57.559,149.045l3.641-2.121c.469-.278.852-.152.852.278a1.7,1.7,0,0,1-.859,1.269l-3.634,2.121c-.476.277-.859.152-.859-.278a1.7,1.7,0,0,1,.859-1.269Z" transform="translate(-27.654 -104.313)"/>
        <path id="Path_241" data-name="Path 241" class="cls-2" d="M45.24,118.356l21.474-12.4v14.926l-21.474,12.4Z" transform="translate(-23.766 -90.466)"/>
        <path id="Path_242" data-name="Path 242" class="cls-2" d="M87.955,113.636,76.2,106.85V120l11.748,6.786Z" transform="translate(-34.269 -90.767)"/>
        <path id="Path_243" data-name="Path 243" class="cls-3" d="M57.43,136.2V117.607l4.605-2.669.76,1.117,13.42-7.744v17.041Z" transform="translate(-27.901 -91.263)"/>
        <path id="Path_244" data-name="Path 244" class="cls-1" d="M57.43,136.6l1.341-16.268L77.556,109.48l-1.341,16.268Z" transform="translate(-27.901 -91.66)"/>
        <path id="Path_245" data-name="Path 245" class="cls-3" d="M56.232,132.844,45.99,126.93v13.149l10.242,5.914Z" transform="translate(-24.02 -97.58)"/>
        <path id="Path_246" data-name="Path 246" class="cls-1" d="M61.49,127.736l21.474-12.4-.007,14.926-21.468,12.4Z" transform="translate(-29.279 -93.648)"/>
        <path id="Path_247" data-name="Path 247" class="cls-2" d="M73.789,129.422l3.647-2.108c.476-.277.859-.152.859.278a1.7,1.7,0,0,1-.859,1.269l-3.647,2.108c-.476.278-.859.152-.859-.278A1.7,1.7,0,0,1,73.789,129.422Z" transform="translate(-33.16 -97.66)"/>
        <path id="Path_248" data-name="Path 248" class="cls-2" d="M61.124,133.89l-.714-.41V148.4l.714.416Z" transform="translate(-28.912 -99.802)"/>
        <path id="Path_249" data-name="Path 249" class="cls-3" d="M60.41,127.116l21.468-12.4.72.41-21.474,12.4Z" transform="translate(-28.912 -93.437)"/>
        <path id="Path_250" data-name="Path 250" class="cls-2" d="M367.412,184.645,348.62,173.8V133.51l18.792,10.849Z" transform="translate(-126.689 -99.812)"/>
        <path id="Path_251" data-name="Path 251" class="cls-3" d="M377.06,141.971l26.839-15.5v40.292L377.06,182.257Z" transform="translate(-136.337 -97.424)"/>
        <path id="Path_252" data-name="Path 252" class="cls-1" d="M394.251,120.9l-26.839,15.5L348.62,125.554l26.839-15.494Z" transform="translate(-126.689 -91.856)"/>
        <path id="Path_253" data-name="Path 253" class="cls-2" d="M381.12,145.906l21.474-12.4.489.284V148.72l-21.468,12.4-.5-.284Z" transform="translate(-137.714 -99.812)"/>
        <path id="Path_254" data-name="Path 254" class="cls-1" d="M381.87,146.336l21.468-12.4v14.926l-21.468,12.4Z" transform="translate(-137.969 -99.958)"/>
        <path id="Path_255" data-name="Path 255" class="cls-2" d="M394.169,148.022l3.647-2.108c.476-.278.859-.152.859.278a1.7,1.7,0,0,1-.859,1.269l-3.654,2.108c-.469.278-.852.152-.852-.278A1.7,1.7,0,0,1,394.169,148.022Z" transform="translate(-141.85 -103.97)"/>
        <path id="Path_256" data-name="Path 256" class="cls-2" d="M380.37,174.486l21.474-12.4v14.92l.5.291-21.474,12.4-.5-.284Z" transform="translate(-137.46 -109.508)"/>
        <path id="Path_257" data-name="Path 257" class="cls-1" d="M381.12,174.916l21.474-12.4v14.926l-21.474,12.4Z" transform="translate(-137.714 -109.654)"/>
        <path id="Path_258" data-name="Path 258" class="cls-2" d="M393.419,176.6l3.647-2.114c.476-.271.859-.145.859.284a1.7,1.7,0,0,1-.859,1.269l-3.647,2.108c-.476.278-.859.152-.859-.278A1.7,1.7,0,0,1,393.419,176.6Z" transform="translate(-141.596 -113.665)"/>
      </g>
      <g id="Plants" transform="translate(47.557 137.186)">
        <path id="Path_259" data-name="Path 259" class="cls-4" d="M99.232,257.619s.079-10.479-6.528-18.336c-5.854-6.958-8.96-11.371-7.116-13.407s5.8-2.524,11.153,3.1,5.762,21.223,5.022,24.751Z" transform="translate(-76.413 -213.337)"/>
        <path id="Path_260" data-name="Path 260" class="cls-5" d="M99.232,257.619s.079-10.479-6.528-18.336c-5.854-6.958-8.96-11.371-7.116-13.407s5.8-2.524,11.153,3.1,5.762,21.223,5.022,24.751Z" transform="translate(-76.413 -213.337)"/>
        <path id="Path_261" data-name="Path 261" class="cls-6" d="M102.069,247.2a.33.33,0,0,1-.324-.264c-2.313-10.816-8.253-16.8-11.583-19.4a.33.33,0,0,1,.4-.522c3.409,2.643,9.468,8.761,11.827,19.783a.337.337,0,0,1-.258.4Z" transform="translate(-78.106 -214.181)"/>
        <path id="Path_262" data-name="Path 262" class="cls-4" d="M94.569,268.083l-2.683,1.553a4.876,4.876,0,0,0-3.621-3.105c-2.94-.661-5.993-.548-8.054-3.1s.449-5.319,0-7.2-.747-2.418-4.427-4.295-5.141-4.989-2.365-7.1,7.268-.562,9.99,1.322a15.349,15.349,0,0,0,7.414,2.418c2.7.33,7.11,1.843,6.436,8.114a49.378,49.378,0,0,1-2.689,11.391Z" transform="translate(-71.974 -219.903)"/>
        <path id="Path_263" data-name="Path 263" class="cls-6" d="M90.331,267.23a.335.335,0,1,1-.106-.661c.244-.079,5.947-1.883,8.378.053a.337.337,0,0,1,.053.469.324.324,0,0,1-.463.046c-2.147-1.718-7.711.04-7.764.059A.257.257,0,0,1,90.331,267.23Z" transform="translate(-78.07 -227.335)"/>
        <path id="Path_264" data-name="Path 264" class="cls-6" d="M96.906,268.723a.324.324,0,0,1-.324-.3c-1.473-13.915-18.237-20.483-18.408-20.582a.33.33,0,0,1-.185-.423.324.324,0,0,1,.423-.192c.172.066,17.312,6.812,18.825,21.144a.33.33,0,0,1-.291.363Z" transform="translate(-74.007 -221.051)"/>
        <path id="Path_265" data-name="Path 265" class="cls-4" d="M346.85,246.651c.073-.225,2.907-14.821,0-25.168-2.643-9.488-6.092-12.99-11.008-13.757s-7.07,2.788-4.427,7.559,8.894,11.167,10.433,21.884c.661,4.407,1.163,8.24,1.163,8.24Z" transform="translate(-159.604 -207.622)"/>
        <path id="Path_266" data-name="Path 266" class="cls-5" d="M346.85,246.651c.073-.225,2.907-14.821,0-25.168-2.643-9.488-6.092-12.99-11.008-13.757s-7.07,2.788-4.427,7.559,8.894,11.167,10.433,21.884c.661,4.407,1.163,8.24,1.163,8.24Z" transform="translate(-159.604 -207.622)"/>
        <path id="Path_267" data-name="Path 267" class="cls-6" d="M347.429,239.382h0a.33.33,0,0,1-.317-.35c.661-11.807-3.2-22.36-10.109-27.527a.33.33,0,0,1,.4-.529c7.09,5.286,11.068,16.063,10.374,28.095a.324.324,0,0,1-.344.311Z" transform="translate(-161.841 -208.738)"/>
        <path id="Path_268" data-name="Path 268" class="cls-4" d="M361.479,257.477c-.377-2.709,1.183-6.786,4.89-7.744s5.359-3.092,4.024-5.425-1.024-4.453,2.339-5.425,6.31-2.643,4.374-6.2c-1.407-2.57-1.718-4.229,1.731-9.3,2.854-4.2.522-6.667-3.066-6.2s-5.788,4.724-8.028,5.445-2.755-3.1-5.709-1.394-2.775,6.072-2.868,9.118-.291,3.74-2.96,3.363-5.286.066-5.226,6.522c.04,5.544,3,12.4,3,12.4Z" transform="translate(-166.627 -210.849)"/>
        <path id="Path_269" data-name="Path 269" class="cls-6" d="M359.609,254.494h-.04a.33.33,0,0,1-.291-.363c1.863-16.651,16.149-30.685,19.875-33.533a.33.33,0,1,1,.4.522c-3.68,2.815-17.787,16.664-19.618,33.084A.337.337,0,0,1,359.609,254.494Z" transform="translate(-169.443 -211.997)"/>
        <path id="Path_270" data-name="Path 270" class="cls-6" d="M369.47,244.022a.344.344,0,0,1-.31-.218.33.33,0,0,1,.192-.423,25.926,25.926,0,0,1,11.622-1.011.334.334,0,1,1-.1.661c-.059,0-6.125-.945-11.292.971A.218.218,0,0,1,369.47,244.022Z" transform="translate(-172.788 -219.325)"/>
        <path id="Path_271" data-name="Path 271" class="cls-6" d="M360.1,255.26a.344.344,0,0,1-.251-.112,19.406,19.406,0,0,1-4.348-9.032.33.33,0,0,1,.271-.377.344.344,0,0,1,.383.278,19.162,19.162,0,0,0,4.189,8.7.324.324,0,0,1-.244.548Z" transform="translate(-168.159 -220.552)"/>
      </g>
      <g id="Folder_2" data-name="Folder 2" transform="translate(70.152 31.954)">
        <path id="Path_272" data-name="Path 272" class="cls-4" d="M106.17,99.5V201.772L210.845,141.34V48.36L133.009,93.3l-2.683-7.751Z" transform="translate(-106.17 -48.36)"/>
        <path id="Path_273" data-name="Path 273" class="cls-7" d="M106.17,99.5V201.772L210.845,141.34V48.36L133.009,93.3l-2.683-7.751Z" transform="translate(-106.17 -48.36)"/>
        <path id="Path_274" data-name="Path 274" class="cls-2" d="M106.17,201.772l5.372-92.974L216.217,48.36l-5.372,92.98Z" transform="translate(-106.17 -48.36)"/>
        <path id="Path_275" data-name="Path 275" class="cls-4" d="M106.17,202.569l8.054-91.427L218.9,50.71l-8.055,91.427Z" transform="translate(-106.17 -49.157)"/>
        <path id="Path_276" data-name="Path 276" class="cls-7" d="M106.17,202.569l8.054-91.427L218.9,50.71l-8.055,91.427Z" transform="translate(-106.17 -49.157)"/>
      </g>
      <g id="Folder_1" data-name="Folder 1" transform="translate(86.261 41.25)">
        <path id="Path_277" data-name="Path 277" class="cls-4" d="M130.55,113.575v102.27l104.675-60.432V62.44L157.39,107.377,154.7,99.627Z" transform="translate(-130.55 -62.433)"/>
        <path id="Path_278" data-name="Path 278" class="cls-8" d="M130.55,113.575v102.27l104.675-60.432V62.44L157.39,107.377,154.7,99.627Z" transform="translate(-130.55 -62.433)"/>
        <path id="Path_279" data-name="Path 279" class="cls-2" d="M130.55,215.842l5.365-92.974L240.591,62.43l-5.365,92.98Z" transform="translate(-130.55 -62.43)"/>
        <path id="Path_280" data-name="Path 280" class="cls-4" d="M130.55,216.639l8.048-91.427L243.273,64.78l-8.048,91.427Z" transform="translate(-130.55 -63.227)"/>
        <path id="Path_281" data-name="Path 281" class="cls-8" d="M130.55,216.639l8.048-91.427L243.273,64.78l-8.048,91.427Z" transform="translate(-130.55 -63.227)"/>
      </g>
      <g id="Documents" transform="translate(105.046)">
        <path id="Path_282" data-name="Path 282" class="cls-2" d="M241.911,317.968c-18.785-10.849-36.215-22.637-44.171-36.48l24.15-13.948Z" transform="translate(-172.13 -90.764)"/>
        <path id="Path_283" data-name="Path 283" class="cls-4" d="M158.98,129.985V232.262l104.675-60.438V78.85L185.82,123.787l-2.683-7.744Z" transform="translate(-158.98 -26.75)"/>
        <path id="Path_284" data-name="Path 284" class="cls-5" d="M158.98,129.985V232.262l104.675-60.438V78.85L185.82,123.787l-2.683-7.744Z" transform="translate(-158.98 -26.75)"/>
        <path id="Path_285" data-name="Path 285" class="cls-6" d="M204.464,133.64c-.264,0-.3-.3-.3-.489V45.933a2.2,2.2,0,0,1,.978-1.7L280.7.612a.72.72,0,0,1,.33-.112c.264,0,.3.3.3.489V88.207a2.213,2.213,0,0,1-.978,1.7l-75.55,43.609a.72.72,0,0,1-.344.126Z" transform="translate(-174.307 -0.17)"/>
        <path id="Path_286" data-name="Path 286" class="cls-4" d="M280.825.661a.748.748,0,0,1,0,.152V88.031a1.9,1.9,0,0,1-.813,1.407l-75.55,43.609a.786.786,0,0,1-.132.066.443.443,0,0,1,0-.152V45.743a1.91,1.91,0,0,1,.813-1.414L280.693.72a.535.535,0,0,1,.139-.059m.04-.661a1.051,1.051,0,0,0-.509.159l-75.55,43.609a2.531,2.531,0,0,0-1.143,1.982v87.218c0,.515.258.819.661.819a1.031,1.031,0,0,0,.509-.159l75.55-43.609a2.524,2.524,0,0,0,1.143-1.982V.819c0-.522-.258-.819-.661-.819Z" transform="translate(-174.141)"/>
        <path id="Path_287" data-name="Path 287" class="cls-9" d="M280.825.661a.748.748,0,0,1,0,.152V88.031a1.9,1.9,0,0,1-.813,1.407l-75.55,43.609a.786.786,0,0,1-.132.066.443.443,0,0,1,0-.152V45.743a1.91,1.91,0,0,1,.813-1.414L280.693.72a.535.535,0,0,1,.139-.059m.04-.661a1.051,1.051,0,0,0-.509.159l-75.55,43.609a2.531,2.531,0,0,0-1.143,1.982v87.218c0,.515.258.819.661.819a1.031,1.031,0,0,0,.509-.159l75.55-43.609a2.524,2.524,0,0,0,1.143-1.982V.819c0-.522-.258-.819-.661-.819Z" transform="translate(-174.141)"/>
        <path id="Path_288" data-name="Path 288" class="cls-4" d="M215.85,66.324,242.689,50.83V81.819L215.85,97.32Z" transform="translate(-178.273 -17.244)"/>
        <path id="Path_289" data-name="Path 289" class="cls-10" d="M215.85,66.324,242.689,50.83V81.819L215.85,97.32Z" transform="translate(-178.273 -17.244)"/>
        <path id="Path_290" data-name="Path 290" class="cls-6" d="M240.725,62.56v9.3l-.839.469V69.458c0-1.573-1.282-2.108-2.861-1.2L225.64,74.83a5.926,5.926,0,0,0-2.861,4.506v2.848l-.839.5V73.423Z" transform="translate(-180.339 -21.224)"/>
        <path id="Path_291" data-name="Path 291" class="cls-6" d="M236.929,89.8c-1.374.793-2.491-.04-2.491-1.863V73l-3.449,1.877V89.922a5.934,5.934,0,0,1-2.491,4.744l-2.5,1.46v.985l13.42-7.744v-.991Z" transform="translate(-181.717 -24.766)"/>
        <path id="Path_292" data-name="Path 292" class="cls-11" d="M264.59,39.3c0,.852.773,1.1,1.718.555L292.4,24.791a3.429,3.429,0,0,0,1.711-2.537c0-.859-.766-1.1-1.711-.562L266.308,36.757A3.429,3.429,0,0,0,264.59,39.3Z" transform="translate(-194.809 -7.262)"/>
        <path id="Path_293" data-name="Path 293" class="cls-11" d="M264.59,53.371c0,.852.773,1.1,1.718.555L292.4,38.868a3.442,3.442,0,0,0,1.711-2.544c0-.859-.766-1.1-1.711-.562L266.308,50.827a3.429,3.429,0,0,0-1.718,2.544Z" transform="translate(-194.809 -12.035)"/>
        <path id="Path_294" data-name="Path 294" class="cls-11" d="M264.59,67.443c0,.852.773,1.1,1.718.555L292.4,52.94a3.442,3.442,0,0,0,1.711-2.544c0-.852-.766-1.1-1.711-.555L266.308,64.9a3.429,3.429,0,0,0-1.718,2.544Z" transform="translate(-194.809 -16.81)"/>
        <path id="Path_295" data-name="Path 295" class="cls-11" d="M264.59,81.513c0,.859.773,1.1,1.718.562L292.4,67.01a3.442,3.442,0,0,0,1.711-2.544c0-.852-.766-1.1-1.711-.555L266.308,78.969a3.429,3.429,0,0,0-1.718,2.544Z" transform="translate(-194.809 -21.583)"/>
        <path id="Path_296" data-name="Path 296" class="cls-11" d="M215.85,114.193c0,.852.766,1.1,1.718.555l58.3-33.658a3.442,3.442,0,0,0,1.711-2.524c0-.852-.766-1.1-1.711-.555l-58.3,33.658A3.429,3.429,0,0,0,215.85,114.193Z" transform="translate(-178.273 -26.367)"/>
        <path id="Path_297" data-name="Path 297" class="cls-11" d="M215.85,128.263c0,.852.766,1.1,1.718.562l58.3-33.665a3.442,3.442,0,0,0,1.711-2.537c0-.859-.766-1.11-1.711-.562l-58.3,33.658A3.429,3.429,0,0,0,215.85,128.263Z" transform="translate(-178.273 -31.134)"/>
        <path id="Path_298" data-name="Path 298" class="cls-11" d="M215.85,142.337c0,.859.766,1.1,1.718.562l58.3-33.639a3.442,3.442,0,0,0,1.711-2.537c0-.859-.766-1.11-1.711-.562l-58.3,33.7A3.423,3.423,0,0,0,215.85,142.337Z" transform="translate(-178.273 -35.917)"/>
        <path id="Path_299" data-name="Path 299" class="cls-4" d="M158.98,237.833,177.765,155.7,282.44,95.27l-18.785,82.124Z" transform="translate(-158.98 -32.321)"/>
        <path id="Path_300" data-name="Path 300" class="cls-4" d="M197.74,189.308v60.908l24.15-13.948V175.36Z" transform="translate(-172.13 -59.492)"/>
        <path id="Path_301" data-name="Path 301" class="cls-5" d="M197.74,189.308v60.908l24.15-13.948V175.36Z" transform="translate(-172.13 -59.492)"/>
        <path id="Path_302" data-name="Path 302" class="cls-6" d="M242.738,271.342c-2.055-1.526-21.864-16.671-31.934-38.323-10.717-23.02-10.711-49.866-10.7-59.976v-.311l71.81-41.462c0,10.2,0,37.088,10.764,60.187,9.839,21.144,28.888,36.1,31.907,38.383Z" transform="translate(-172.93 -44.534)"/>
        <path id="Path_303" data-name="Path 303" class="cls-4" d="M271.41,131.593c0,10.625.2,37,10.8,59.758,9.5,20.41,27.586,35.092,31.61,38.2l-71.228,41.125c-2.782-2.1-21.844-16.988-31.65-38.046-10.691-22.954-10.684-49.748-10.678-59.837v-.126l71.149-41.072m.661-1.143L199.6,172.288c0,9.5-.2,37.127,10.737,60.617,10.737,23.06,32.2,38.555,32.2,38.555l72.471-41.838s-21.474-15.495-32.211-38.555c-10.935-23.49-10.73-51.115-10.73-60.617Z" transform="translate(-172.76 -44.256)"/>
        <path id="Path_304" data-name="Path 304" class="cls-9" d="M271.41,131.593c0,10.625.2,37,10.8,59.758,9.5,20.41,27.586,35.092,31.61,38.2l-71.228,41.125c-2.782-2.1-21.844-16.988-31.65-38.046-10.691-22.954-10.684-49.748-10.678-59.837v-.126l71.149-41.072m.661-1.143L199.6,172.288c0,9.5-.2,37.127,10.737,60.617,10.737,23.06,32.2,38.555,32.2,38.555l72.471-41.838s-21.474-15.495-32.211-38.555c-10.935-23.49-10.73-51.115-10.73-60.617Z" transform="translate(-172.76 -44.256)"/>
        <path id="Path_305" data-name="Path 305" class="cls-11" d="M284.25,151.527l-22.915,13.215a3.251,3.251,0,0,0-1.665,2.511c.033.839.833,1.07,1.777.522l22.921-13.215a3.251,3.251,0,0,0,1.652-2.511C285.988,151.21,285.2,150.979,284.25,151.527Z" transform="translate(-193.14 -51.305)"/>
        <path id="Path_306" data-name="Path 306" class="cls-11" d="M285.021,165.165,262.106,178.38a3.038,3.038,0,0,0-1.6,2.465c.073.813.905,1.031,1.85.489l22.921-13.215a3.026,3.026,0,0,0,1.579-2.465C286.792,164.834,285.973,164.616,285.021,165.165Z" transform="translate(-193.422 -55.93)"/>
        <path id="Path_307" data-name="Path 307" class="cls-11" d="M286.445,178.431l-22.921,13.215a2.834,2.834,0,0,0-1.52,2.425c.112.793.978.985,1.929.436l22.915-13.215a2.8,2.8,0,0,0,1.507-2.425C288.242,178.074,287.39,177.889,286.445,178.431Z" transform="translate(-193.927 -60.429)"/>
        <path id="Path_308" data-name="Path 308" class="cls-11" d="M288.56,191.3l-22.921,13.215a2.615,2.615,0,0,0-1.44,2.379c.159.766,1.057.945,1.982.4L289.1,194.074a2.591,2.591,0,0,0,1.427-2.372C290.37,190.936,289.5,190.757,288.56,191.3Z" transform="translate(-194.668 -64.793)"/>
        <path id="Path_309" data-name="Path 309" class="cls-11" d="M291.426,203.747l-22.921,13.215a2.319,2.319,0,0,0-1.321,2.332c.238.74,1.143.892,2.088.344l22.882-13.188a2.326,2.326,0,0,0,1.321-2.326C293.25,203.384,292.371,203.2,291.426,203.747Z" transform="translate(-195.671 -69.014)"/>
        <path id="Path_310" data-name="Path 310" class="cls-11" d="M278.16,215.726l-55.84,32.244a2.181,2.181,0,0,0-1.262,2.28c.258.707,1.242.833,2.187.284L279.1,218.29a2.164,2.164,0,0,0,1.242-2.273C280.089,215.31,279.1,215.178,278.16,215.726Z" transform="translate(-180.019 -73.071)"/>
        <path id="Path_311" data-name="Path 311" class="cls-11" d="M282.681,227.157l-55.859,32.251c-.945.548-1.467,1.54-1.15,2.22s1.322.773,2.286.225l55.866-32.277c.945-.542,1.454-1.533,1.143-2.207S283.64,226.615,282.681,227.157Z" transform="translate(-181.574 -76.943)"/>
        <path id="Path_312" data-name="Path 312" class="cls-11" d="M288.25,238.074,232.4,270.325c-.951.542-1.421,1.513-1.044,2.147s1.454.714,2.405.165l55.859-32.251c.945-.548,1.4-1.507,1.024-2.141S289.221,237.525,288.25,238.074Z" transform="translate(-183.489 -80.644)"/>
        <path id="Path_313" data-name="Path 313" class="cls-11" d="M294.762,248.375l-55.833,32.251c-.951.548-1.374,1.487-.945,2.095a1.965,1.965,0,0,0,2.511.1l55.853-32.251c.951-.548,1.361-1.473.932-2.081A1.986,1.986,0,0,0,294.762,248.375Z" transform="translate(-185.725 -84.133)"/>
        <path id="Path_314" data-name="Path 314" class="cls-11" d="M302.19,258.179,246.33,290.43c-.945.548-1.321,1.467-.846,2.042a2.171,2.171,0,0,0,2.6.046l55.853-32.251c.951-.542,1.322-1.454.839-2.028A2.151,2.151,0,0,0,302.19,258.179Z" transform="translate(-188.257 -87.455)"/>
        <path id="Path_315" data-name="Path 315" class="cls-11" d="M310.368,267.521l-55.886,32.251c-.945.542-1.288,1.44-.76,1.982a2.369,2.369,0,0,0,2.676,0l55.859-32.244c.945-.548,1.282-1.434.753-1.982A2.3,2.3,0,0,0,310.368,267.521Z" transform="translate(-191.037 -90.619)"/>
        <path id="Path_316" data-name="Path 316" class="cls-11" d="M319.351,276.444,263.5,308.695c-.945.548-1.255,1.421-.661,1.982a2.493,2.493,0,0,0,2.762-.053l55.853-32.244c.951-.548,1.249-1.414.661-1.936A2.565,2.565,0,0,0,319.351,276.444Z" transform="translate(-194.113 -93.649)"/>
        <path id="Path_317" data-name="Path 317" class="cls-4" d="M236.091,179,209.74,194.2c.291,9.541,1.381,23.318,5.372,37.18l26.351-15.2C237.471,202.291,236.381,188.515,236.091,179Z" transform="translate(-176.201 -60.727)"/>
        <path id="Path_318" data-name="Path 318" class="cls-10" d="M236.091,179,209.74,194.2c.291,9.541,1.381,23.318,5.372,37.18l26.351-15.2C237.471,202.291,236.381,188.515,236.091,179Z" transform="translate(-176.201 -60.727)"/>
        <path id="Path_319" data-name="Path 319" class="cls-4" d="M220.484,197.07a4.374,4.374,0,0,0-1.288-3.35l-9.455,5.471c.073,2.517.211,5.345.436,8.378a6.158,6.158,0,0,0,3.581-.628C217.471,205.2,220.484,200.783,220.484,197.07Z" transform="translate(-176.201 -65.72)"/>
        <path id="Path_320" data-name="Path 320" class="cls-12" d="M220.484,197.07a4.374,4.374,0,0,0-1.288-3.35l-9.455,5.471c.073,2.517.211,5.345.436,8.378a6.158,6.158,0,0,0,3.581-.628C217.471,205.2,220.484,200.783,220.484,197.07Z" transform="translate(-176.201 -65.72)"/>
        <path id="Path_321" data-name="Path 321" class="cls-4" d="M244.42,215.077h0c-1.758-2.22-5.332-9.052-6.859-12.032a.661.661,0,0,0-1.222.112,72.518,72.518,0,0,0-2.854,17.345,25.108,25.108,0,0,1-5.6-6.224.581.581,0,0,0-1.051.178,64.8,64.8,0,0,0-1.434,22.009h0l21.25-12.27C245.774,221.136,245.041,218.09,244.42,215.077Z" transform="translate(-181.391 -68.761)"/>
        <path id="Path_322" data-name="Path 322" class="cls-12" d="M244.42,215.077h0c-1.758-2.22-5.332-9.052-6.859-12.032a.661.661,0,0,0-1.222.112,72.518,72.518,0,0,0-2.854,17.345,25.108,25.108,0,0,1-5.6-6.224.581.581,0,0,0-1.051.178,64.8,64.8,0,0,0-1.434,22.009h0l21.25-12.27C245.774,221.136,245.041,218.09,244.42,215.077Z" transform="translate(-181.391 -68.761)"/>
      </g>
    </g>
  </g>
</svg>
