<svg xmlns="http://www.w3.org/2000/svg" width="53.58" height="53.58" viewBox="0 0 53.58 53.58">
  <defs>
    <style>
      .cls-1 {
        fill: #fff;
      }
    </style>
  </defs>
  <g id="email" transform="translate(-0.014 -0.17)">
    <path id="Path_95" data-name="Path 95" class="cls-1" d="M26.79,0A26.79,26.79,0,1,0,53.58,26.79,26.79,26.79,0,0,0,26.79,0Zm0,51.794A25,25,0,1,1,49.277,15.842,24.511,24.511,0,0,1,51.794,26.79,25.033,25.033,0,0,1,26.79,51.794Zm0,0" transform="translate(0.014 0.17)"/>
    <path id="Path_96" data-name="Path 96" class="cls-1" d="M145.9,144h-25a.893.893,0,0,0-.893.893v19.646a.893.893,0,0,0,.893.893h25a.893.893,0,0,0,.893-.893V144.893A.893.893,0,0,0,145.9,144Zm-2.411,1.786L133.4,154.433,123.3,145.786Zm-21.7,17.86V146.834l11.028,9.452a.892.892,0,0,0,1.161,0L145,146.834v16.812Zm0,0" transform="translate(-106.605 -127.926)"/>
  </g>
</svg>
