<svg xmlns="http://www.w3.org/2000/svg" xmlns:xlink="http://www.w3.org/1999/xlink" width="653" height="519" viewBox="0 0 653 519">
  <defs>
    <clipPath id="clip-path">
      <path id="blue" d="M40,0H653a0,0,0,0,1,0,0V519a0,0,0,0,1,0,0H40A40,40,0,0,1,0,479V40A40,40,0,0,1,40,0Z" fill="#88c0ff"/>
    </clipPath>
    <linearGradient id="linear-gradient" x1="1.247" y1="0.5" x2="-0.034" y2="0.5" gradientUnits="objectBoundingBox">
      <stop offset="0" stop-color="#5761d7"/>
      <stop offset="0.16" stop-color="#5e67da"/>
      <stop offset="0.41" stop-color="#727ae2"/>
      <stop offset="0.69" stop-color="#9297ee"/>
      <stop offset="1" stop-color="#bcbeff"/>
    </linearGradient>
    <linearGradient id="linear-gradient-2" x1="1" y1="0.5" x2="0" y2="0.5" gradientUnits="objectBoundingBox">
      <stop offset="0" stop-color="#42e8e0"/>
      <stop offset="0.15" stop-color="#43e3e0"/>
      <stop offset="0.33" stop-color="#45d5df"/>
      <stop offset="0.52" stop-color="#49bddd"/>
      <stop offset="0.72" stop-color="#4e9cdb"/>
      <stop offset="0.93" stop-color="#5472d8"/>
      <stop offset="1" stop-color="#5761d7"/>
    </linearGradient>
    <linearGradient id="linear-gradient-3" y1="0.5" y2="0.5" xlink:href="#linear-gradient-2"/>
    <linearGradient id="linear-gradient-4" y1="0.5" y2="0.5" xlink:href="#linear-gradient-2"/>
    <radialGradient id="radial-gradient" cx="3.376" cy="0.487" r="2.886" gradientTransform="matrix(0.705, -0.709, -0.709, -0.705, -10.574, -2.632)" gradientUnits="objectBoundingBox">
      <stop offset="0" stop-color="#c0bff6"/>
      <stop offset="1" stop-color="#393091"/>
    </radialGradient>
    <radialGradient id="radial-gradient-2" cx="0.189" cy="0.333" r="0.737" gradientTransform="matrix(-1.17, 0, 0, 1.359, 1.534, -0.479)" xlink:href="#radial-gradient"/>
    <linearGradient id="linear-gradient-8" x1="-6.06" y1="1.967" x2="-6.06" y2="1.023" gradientUnits="objectBoundingBox">
      <stop offset="0" stop-color="#42e8e0"/>
      <stop offset="0" stop-color="#42e6df"/>
      <stop offset="0.14" stop-color="#40b6cb"/>
      <stop offset="0.27" stop-color="#3e8db9"/>
      <stop offset="0.41" stop-color="#3c6baa"/>
      <stop offset="0.55" stop-color="#3b519f"/>
      <stop offset="0.69" stop-color="#3a3f97"/>
      <stop offset="0.84" stop-color="#393493"/>
      <stop offset="1" stop-color="#393091"/>
    </linearGradient>
    <radialGradient id="radial-gradient-3" cx="0.922" cy="-0.908" r="1.455" gradientTransform="matrix(-1.224, 0, 0, 1, 2.051, 0)" xlink:href="#radial-gradient"/>
    <radialGradient id="radial-gradient-4" cx="0.817" cy="0.453" r="0.845" gradientTransform="matrix(0.928, -0.372, -0.372, -0.928, 0.182, 1.184)" xlink:href="#radial-gradient"/>
    <linearGradient id="linear-gradient-9" x1="0.43" y1="0.005" x2="0.57" y2="0.995" xlink:href="#linear-gradient-8"/>
    <radialGradient id="radial-gradient-5" cx="0.525" cy="-0.033" r="0.984" gradientTransform="matrix(-1.224, 0, 0, 1, 1.167, 0)" xlink:href="#radial-gradient"/>
    <radialGradient id="radial-gradient-6" cx="0.929" cy="0.599" r="1.043" gradientTransform="matrix(0.696, -0.718, -0.718, -0.696, -10.323, -4.049)" xlink:href="#radial-gradient"/>
    <linearGradient id="linear-gradient-10" x1="-11.929" y1="10.029" x2="-11.249" y2="10.762" xlink:href="#linear-gradient-8"/>
    <radialGradient id="radial-gradient-7" cx="-0.24" cy="0.119" r="0.778" gradientTransform="matrix(-1.624, 0.119, 0.321, 1.636, 13.777, 33.096)" xlink:href="#radial-gradient"/>
    <linearGradient id="linear-gradient-11" x1="6.739" y1="2.252" x2="5.655" y2="2.252" xlink:href="#linear-gradient-8"/>
    <radialGradient id="radial-gradient-8" cx="-0.706" cy="0.224" r="1.101" gradientTransform="matrix(-0.366, 0.876, 1.108, 0.801, 143.39, 43.084)" xlink:href="#radial-gradient"/>
    <linearGradient id="linear-gradient-12" x1="80.908" y1="-14.043" x2="81.337" y2="-13.289" xlink:href="#linear-gradient-8"/>
    <linearGradient id="linear-gradient-13" x1="0.501" y1="1" x2="0.501" gradientUnits="objectBoundingBox">
      <stop offset="0" stop-color="#161242"/>
      <stop offset="0.12" stop-color="#171746"/>
      <stop offset="0.25" stop-color="#1a2550"/>
      <stop offset="0.4" stop-color="#1f3d62"/>
      <stop offset="0.55" stop-color="#265f7b"/>
      <stop offset="0.72" stop-color="#2f899a"/>
      <stop offset="0.88" stop-color="#39bdc0"/>
      <stop offset="1" stop-color="#42e8e0"/>
    </linearGradient>
    <linearGradient id="linear-gradient-14" x1="0.505" y1="1" x2="0.505" y2="0" xlink:href="#linear-gradient-13"/>
  </defs>
  <g id="Mask_Group_5" data-name="Mask Group 5" clip-path="url(#clip-path)">
    <g id="Asset_1" data-name="Asset 1" transform="translate(124.739 22.733)">
      <g id="Layer_2" data-name="Layer 2">
        <g id="Ñëîé_1" data-name="Ñëîé 1">
          <path id="Path_107" data-name="Path 107" d="M180.9,320.4a5.454,5.454,0,0,0,2.727-.832l17.656-10.185a.724.724,0,0,0-.723-1.254l-17.656,10.2a2.577,2.577,0,0,1-4.281-2.481V311.59a3.968,3.968,0,0,0-6.435-3.709l-3.695,2.113a.736.736,0,0,0-.259,1,.709.709,0,0,0,.982.259l3.681-2.127a2.563,2.563,0,0,1,4.281,2.468v4.254a4.458,4.458,0,0,0,1.936,4.09,3.518,3.518,0,0,0,1.786.464Z" transform="translate(48.473 -26.892)" fill="#42e8e0"/>
          <path id="Path_108" data-name="Path 108" d="M173.414,324.731a5.549,5.549,0,0,0,2.727-.832l17.643-10.185a.723.723,0,1,0-.709-1.254l-17.725,10.185a2.563,2.563,0,0,1-4.281-2.468v-4.254a3.981,3.981,0,0,0-6.449-3.722l-3.681,2.127a.724.724,0,1,0,.723,1.254l3.681-2.127a2.563,2.563,0,0,1,4.281,2.468v4.254a4.445,4.445,0,0,0,1.936,4.09,3.464,3.464,0,0,0,1.854.464Z" transform="translate(62.814 -27.27)" fill="#42e8e0"/>
          <path id="Path_109" data-name="Path 109" d="M165.632,329.064a5.645,5.645,0,0,0,2.727-.832l17.725-10.2a.723.723,0,1,0-.723-1.241l-17.725,10.185a2.563,2.563,0,0,1-4.281-2.468v-4.254a3.968,3.968,0,0,0-6.435-3.722l-3.695,2.127a.723.723,0,0,0,.723,1.241l3.695-2.127a2.577,2.577,0,0,1,4.281,2.481v4.254a4.431,4.431,0,0,0,1.922,4.09,3.422,3.422,0,0,0,1.786.464Z" transform="translate(77.468 -27.649)" fill="#42e8e0"/>
          <path id="Path_110" data-name="Path 110" d="M158.26,333.437a5.536,5.536,0,0,0,2.727-.845l17.656-10.185a.723.723,0,0,0,.259-.982.736.736,0,0,0-.982-.273l-17.656,10.2a2.563,2.563,0,0,1-4.281-2.468v-4.308a3.981,3.981,0,0,0-6.449-3.722l-3.681,2.141a.723.723,0,0,0,.723,1.241l3.681-2.127a2.577,2.577,0,0,1,4.281,2.468v4.268a4.458,4.458,0,0,0,1.936,4.09,3.532,3.532,0,0,0,1.786.5Z" transform="translate(91.711 -28.028)" fill="#42e8e0"/>
          <path id="Path_111" data-name="Path 111" d="M150.849,337.716a5.454,5.454,0,0,0,2.727-.832L171.232,326.7a.724.724,0,0,0-.723-1.254l-17.643,10.2a2.577,2.577,0,0,1-4.281-2.481v-4.254a3.981,3.981,0,0,0-6.449-3.722l-3.681,2.127a.723.723,0,1,0,.709,1.254l3.695-2.127a2.563,2.563,0,0,1,4.281,2.468v4.254a4.472,4.472,0,0,0,1.922,4.09,3.558,3.558,0,0,0,1.786.464Z" transform="translate(105.981 -28.408)" fill="#42e8e0"/>
          <path id="Path_112" data-name="Path 112" d="M143.274,342.049a5.645,5.645,0,0,0,2.727-.832l17.725-10.2a.723.723,0,0,0-.723-1.241l-17.725,10.185A2.563,2.563,0,0,1,141,337.5v-4.254a3.968,3.968,0,0,0-6.435-3.722l-3.695,2.127a.723.723,0,0,0-.259.982.736.736,0,0,0,.982.273l3.681-2.141a3.15,3.15,0,0,1,3.081-.368,3.1,3.1,0,0,1,1.2,2.85V337.5a4.431,4.431,0,0,0,1.936,4.09A3.4,3.4,0,0,0,143.274,342.049Z" transform="translate(120.428 -28.787)" fill="#42e8e0"/>
          <path id="Path_113" data-name="Path 113" d="M135.843,346.382a5.7,5.7,0,0,0,2.727-.832l17.643-10.2a.723.723,0,0,0,.273-.982.736.736,0,0,0-.982-.273l-17.725,10.2a2.563,2.563,0,0,1-4.281-2.468v-4.268a3.968,3.968,0,0,0-6.449-3.709l-3.681,2.127a.723.723,0,0,0-.273.982.736.736,0,0,0,1,.259l3.681-2.127a3.054,3.054,0,0,1,3.068-.368,3.1,3.1,0,0,1,1.213,2.836v4.268a4.418,4.418,0,0,0,1.936,4.09A3.34,3.34,0,0,0,135.843,346.382Z" transform="translate(134.717 -29.166)" fill="#42e8e0"/>
          <path id="Path_114" data-name="Path 114" d="M128.215,350.7a5.453,5.453,0,0,0,2.727-.832L148.6,339.681a.724.724,0,0,0-.723-1.254l-17.643,10.158a2.577,2.577,0,0,1-4.281-2.481v-4.254a3.968,3.968,0,0,0-6.435-3.722l-3.695,2.127a.724.724,0,1,0,.723,1.254l3.695-2.127a2.563,2.563,0,0,1,4.281,2.468V346.1a4.472,4.472,0,0,0,1.922,4.09A3.558,3.558,0,0,0,128.215,350.7Z" transform="translate(149.216 -29.541)" fill="#42e8e0"/>
          <path id="Path_115" data-name="Path 115" d="M120.546,355.035a5.454,5.454,0,0,0,2.727-.832L141,344.005a.723.723,0,1,0-.723-1.241L122.55,352.949a2.563,2.563,0,0,1-4.281-2.468v-4.24a3.968,3.968,0,0,0-6.449-3.722l-3.681,2.127a.724.724,0,1,0,.723,1.254l3.681-2.127a2.563,2.563,0,0,1,4.308,2.468v4.254a4.431,4.431,0,0,0,1.936,4.09,3.4,3.4,0,0,0,1.759.45Z" transform="translate(163.757 -29.925)" fill="#42e8e0"/>
          <path id="Path_116" data-name="Path 116" d="M113.068,359.367a5.645,5.645,0,0,0,2.727-.832l17.725-10.2a.723.723,0,0,0,.273-.982.736.736,0,0,0-1-.259l-17.643,10.185a2.577,2.577,0,0,1-4.336-2.481v-4.254a3.968,3.968,0,0,0-6.435-3.722l-3.695,2.127a.718.718,0,0,0,.723,1.241l3.695-2.127a2.577,2.577,0,0,1,4.281,2.481V354.8a4.445,4.445,0,0,0,1.922,4.09A3.422,3.422,0,0,0,113.068,359.367Z" transform="translate(178.093 -30.303)" fill="#42e8e0"/>
          <path id="Path_117" data-name="Path 117" d="M105.558,363.688a5.453,5.453,0,0,0,2.727-.832l17.684-10.185a.724.724,0,1,0-.723-1.254l-17.656,10.2a3.054,3.054,0,0,1-3.068.368,3.109,3.109,0,0,1-1.186-2.85V354.88a3.981,3.981,0,0,0-6.449-3.722l-3.681,2.127a.736.736,0,0,0-.259,1,.709.709,0,0,0,.982.259l3.654-2.086a2.563,2.563,0,0,1,4.281,2.468v4.254a4.472,4.472,0,0,0,1.936,4.09A3.517,3.517,0,0,0,105.558,363.688Z" transform="translate(192.475 -30.683)" fill="#42e8e0"/>
          <path id="Path_118" data-name="Path 118" d="M98.105,368.032a5.55,5.55,0,0,0,2.727-.832l17.643-10.185a.736.736,0,0,0,.273-1,.723.723,0,0,0-.982-.259l-17.725,10.185a2.563,2.563,0,0,1-4.2-2.468v-4.254a3.981,3.981,0,0,0-6.422-3.654L85.739,357.7a.723.723,0,0,0-.273.982.736.736,0,0,0,1,.273l3.681-2.127a2.563,2.563,0,0,1,4.336,2.4v4.254a4.445,4.445,0,0,0,1.936,4.09,3.463,3.463,0,0,0,1.691.464Z" transform="translate(206.786 -31.073)" fill="#42e8e0"/>
          <path id="Path_119" data-name="Path 119" d="M90.574,372.309a5.644,5.644,0,0,0,2.727-.832l17.725-10.2a.723.723,0,0,0-.723-1.241L92.578,370.223a2.563,2.563,0,0,1-4.322-2.413v-4.254a4.472,4.472,0,0,0-1.922-4.09,4.417,4.417,0,0,0-4.513.382l-3.695,2.127a.723.723,0,0,0,.723,1.241l3.695-2.127a2.577,2.577,0,0,1,4.349,2.468v4.254a4.431,4.431,0,0,0,1.922,4.09,3.4,3.4,0,0,0,1.759.409Z" transform="translate(221.188 -31.45)" fill="#42e8e0"/>
          <path id="Path_120" data-name="Path 120" d="M82.931,376.673a5.453,5.453,0,0,0,2.727-.832l17.725-10.185a.724.724,0,0,0-.723-1.254L84.935,374.6a2.577,2.577,0,0,1-4.281-2.468v-4.268a3.968,3.968,0,0,0-6.449-3.709l-3.681,2.127a.723.723,0,0,0,.723,1.241l3.681-2.127a2.563,2.563,0,0,1,4.268,2.468v4.268a4.458,4.458,0,0,0,1.936,4.09A3.518,3.518,0,0,0,82.931,376.673Z" transform="translate(235.703 -31.82)" fill="#42e8e0"/>
          <path id="Path_121" data-name="Path 121" d="M75.4,381.008a5.454,5.454,0,0,0,2.727-.832l17.725-10.185a.724.724,0,1,0-.723-1.254l-17.643,10.2a3.15,3.15,0,0,1-3.081.368,3.1,3.1,0,0,1-1.2-2.85V372.2a3.981,3.981,0,0,0-6.449-3.722L63.064,370.6a.736.736,0,0,0-.259,1,.723.723,0,0,0,.982.259l3.695-2.127a2.563,2.563,0,0,1,4.281,2.468v4.254a4.472,4.472,0,0,0,1.922,4.09,3.559,3.559,0,0,0,1.718.464Z" transform="translate(250.089 -32.2)" fill="#42e8e0"/>
          <path id="Path_122" data-name="Path 122" d="M67.863,385.349a5.644,5.644,0,0,0,2.727-.832l17.725-10.2a.723.723,0,1,0-.723-1.241L69.867,383.263a2.563,2.563,0,0,1-4.281-2.468v-4.254a3.964,3.964,0,0,0-6.435-3.708l-3.695,2.127a.723.723,0,0,0-.259.982.736.736,0,0,0,.982.273l3.763-2.154a2.577,2.577,0,0,1,4.281,2.482V380.8a4.431,4.431,0,0,0,1.936,4.09A3.4,3.4,0,0,0,67.863,385.349Z" transform="translate(264.501 -32.588)" fill="#42e8e0"/>
          <path id="Path_123" data-name="Path 123" d="M60.565,389.673a5.576,5.576,0,0,0,2.727-.845l17.643-10.185a.723.723,0,0,0-.709-1.254l-17.656,10.2a3.1,3.1,0,0,1-3.068.382,3.109,3.109,0,0,1-1.213-2.85v-4.268a3.981,3.981,0,0,0-6.449-3.722l-3.681,2.141a.714.714,0,1,0,.709,1.241l3.736-2.127a3.054,3.054,0,0,1,3.068-.368,3.1,3.1,0,0,1,1.213,2.836v4.268a4.418,4.418,0,0,0,1.936,4.09A3.476,3.476,0,0,0,60.565,389.673Z" transform="translate(278.657 -32.958)" fill="#42e8e0"/>
          <path id="Path_124" data-name="Path 124" d="M52.9,393.993a5.454,5.454,0,0,0,2.727-.832L73.35,382.976a.724.724,0,1,0-.723-1.254L54.9,391.92a3.123,3.123,0,0,1-3.068.368,3.109,3.109,0,0,1-1.213-2.85v-4.254a3.968,3.968,0,0,0-6.435-3.722l-3.695,2.127a.724.724,0,0,0,.723,1.254l3.668-2.127a3.1,3.1,0,0,1,3.068-.382,3.109,3.109,0,0,1,1.213,2.85v4.254a4.472,4.472,0,0,0,1.922,4.09A3.559,3.559,0,0,0,52.9,393.993Z" transform="translate(293.195 -33.337)" fill="#42e8e0"/>
          <path id="Path_125" data-name="Path 125" d="M45.291,398.33a5.686,5.686,0,0,0,2.727-.832l17.725-10.2a.723.723,0,1,0-.723-1.241L47.3,396.244a3.1,3.1,0,0,1-3.068.382,3.081,3.081,0,0,1-1.213-2.85v-4.2a3.968,3.968,0,0,0-6.449-3.722l-3.681,2.127a.724.724,0,1,0,.723,1.254l3.681-2.141a3.122,3.122,0,0,1,3.068-.368,3.081,3.081,0,0,1,1.213,2.85v4.254a4.431,4.431,0,0,0,1.936,4.09,3.4,3.4,0,0,0,1.786.409Z" transform="translate(307.675 -33.721)" fill="#42e8e0"/>
          <path id="Path_126" data-name="Path 126" d="M37.818,402.67a5.644,5.644,0,0,0,2.727-.832l17.725-10.2a.736.736,0,0,0,.273-.982.75.75,0,0,0-1-.273L39.9,400.584a3.122,3.122,0,0,1-3.081.382,3.122,3.122,0,0,1-1.254-2.822v-4.268a4.445,4.445,0,0,0-1.922-4.09,4.431,4.431,0,0,0-4.513.382l-3.695,2.127a.718.718,0,0,0,.723,1.241l3.695-2.209a3.081,3.081,0,0,1,3.068-.368,3.1,3.1,0,0,1,1.213,2.836v4.349a4.445,4.445,0,0,0,1.922,4.09,3.422,3.422,0,0,0,1.759.436Z" transform="translate(322.005 -34.107)" fill="#42e8e0"/>
          <path id="Path_127" data-name="Path 127" d="M228.518,320.757a3.518,3.518,0,0,0,1.759-.45,4.445,4.445,0,0,0,1.936-4.09v-4.254a2.563,2.563,0,0,1,4.281-2.468l3.681,2.127a.75.75,0,0,0,1-.273.736.736,0,0,0-.273-.982l-3.681-2.127a3.981,3.981,0,0,0-6.449,3.722v4.254a2.563,2.563,0,0,1-4.281,2.468L208.83,308.5a.723.723,0,0,0-.982.259.736.736,0,0,0,.259,1l17.725,10.185A5.454,5.454,0,0,0,228.518,320.757Z" transform="translate(-27.289 -26.924)" fill="#42e8e0"/>
          <path id="Path_128" data-name="Path 128" d="M236.117,325.1a3.422,3.422,0,0,0,1.759-.464,4.431,4.431,0,0,0,1.922-4.09v-4.186a2.577,2.577,0,0,1,4.281-2.481L247.774,316a.718.718,0,1,0,.723-1.241l-3.695-2.127a3.968,3.968,0,0,0-6.435,3.722v4.254a2.577,2.577,0,0,1-4.295,2.468l-17.643-10.185a.723.723,0,1,0-.723,1.241l17.725,10.2a5.645,5.645,0,0,0,2.686.764Z" transform="translate(-41.746 -27.308)" fill="#42e8e0"/>
          <path id="Path_129" data-name="Path 129" d="M243.642,329.408a3.517,3.517,0,0,0,1.759-.45,4.458,4.458,0,0,0,1.936-4.09V320.6a2.577,2.577,0,0,1,4.281-2.468l3.681,2.127a.723.723,0,0,0,.723-1.241l-3.681-2.141a3.981,3.981,0,0,0-6.449,3.722v4.308a2.577,2.577,0,0,1-4.281,2.468l-17.656-10.2a.736.736,0,0,0-.982.273.723.723,0,0,0,.259.982l17.656,10.185A5.453,5.453,0,0,0,243.642,329.408Z" transform="translate(-56.143 -27.68)" fill="#42e8e0"/>
          <path id="Path_130" data-name="Path 130" d="M251.153,333.743a3.463,3.463,0,0,0,1.745-.45,4.445,4.445,0,0,0,1.936-4.09v-4.254a2.563,2.563,0,0,1,4.281-2.468l3.695,2.127a.723.723,0,0,0,.709-1.254l-3.681-2.127a3.981,3.981,0,0,0-6.449,3.722V329.2a3.1,3.1,0,0,1-1.2,2.85,3.15,3.15,0,0,1-3.081-.368l-17.656-10.2a.723.723,0,0,0-.982.259.736.736,0,0,0,.273,1l17.643,10.185a5.59,5.59,0,0,0,2.768.818Z" transform="translate(-70.512 -28.061)" fill="#42e8e0"/>
          <path id="Path_131" data-name="Path 131" d="M258.765,338.074a3.4,3.4,0,0,0,1.759-.464,4.431,4.431,0,0,0,1.922-4.09v-4.254a3.108,3.108,0,0,1,1.213-2.85,3.15,3.15,0,0,1,3.081.368l3.681,2.141a.724.724,0,0,0,.723-1.254l-3.695-2.127a3.968,3.968,0,0,0-6.435,3.722v4.254a2.563,2.563,0,0,1-4.281,2.468L239.009,325.8a.723.723,0,1,0-.723,1.241l17.656,10.2a5.645,5.645,0,0,0,2.822.832Z" transform="translate(-84.995 -28.439)" fill="#42e8e0"/>
          <path id="Path_132" data-name="Path 132" d="M266.09,342.407a3.517,3.517,0,0,0,1.745-.463,4.417,4.417,0,0,0,1.936-4.09v-4.268a2.577,2.577,0,0,1,4.281-2.468l3.681,2.127a.723.723,0,1,0,.723-1.241l-3.681-2.127a3.968,3.968,0,0,0-6.449,3.709v4.268a2.563,2.563,0,0,1-4.281,2.468l-17.67-10.185a.736.736,0,0,0-.982.273.723.723,0,0,0,.273.982l17.643,10.2a5.7,5.7,0,0,0,2.781.818Z" transform="translate(-99.178 -28.817)" fill="#42e8e0"/>
          <path id="Path_133" data-name="Path 133" d="M273.6,346.727a3.558,3.558,0,0,0,1.759-.45,4.472,4.472,0,0,0,1.922-4.09v-4.254a2.563,2.563,0,0,1,4.281-2.468l3.736,2.113a.709.709,0,0,0,.982-.273.723.723,0,0,0-.259-.982l-3.695-2.127a3.968,3.968,0,0,0-6.435,3.722v4.254a3.109,3.109,0,0,1-1.213,2.85,3.15,3.15,0,0,1-3.081-.368l-17.656-10.2a.736.736,0,0,0-1,.259.75.75,0,0,0,.273,1l17.725,10.185A5.454,5.454,0,0,0,273.6,346.727Z" transform="translate(-113.562 -29.197)" fill="#42e8e0"/>
          <path id="Path_134" data-name="Path 134" d="M281.276,351.059a3.4,3.4,0,0,0,1.759-.464,4.431,4.431,0,0,0,1.936-4.09v-4.254a2.563,2.563,0,0,1,4.281-2.468l3.681,2.127a.724.724,0,0,0,.723-1.254l-3.681-2.127a3.968,3.968,0,0,0-6.449,3.722v4.254a2.563,2.563,0,0,1-4.281,2.468l-17.656-10.185a.723.723,0,1,0-.723,1.241l17.725,10.2a5.644,5.644,0,0,0,2.686.832Z" transform="translate(-128.108 -29.575)" fill="#42e8e0"/>
          <path id="Path_135" data-name="Path 135" d="M288.735,355.4a3.341,3.341,0,0,0,1.745-.464,4.418,4.418,0,0,0,1.936-4.09v-4.268a3.1,3.1,0,0,1,1.213-2.836,3.054,3.054,0,0,1,3.068.368l3.695,2.168a.714.714,0,1,0,.709-1.241l-3.681-2.127a3.968,3.968,0,0,0-6.449,3.709v4.268a2.563,2.563,0,0,1-4.281,2.468l-17.643-10.2a.75.75,0,0,0-1,.273.723.723,0,0,0,.273.982l17.643,10.2A5.7,5.7,0,0,0,288.735,355.4Z" transform="translate(-142.425 -29.959)" fill="#42e8e0"/>
          <path id="Path_136" data-name="Path 136" d="M296.245,359.714a3.518,3.518,0,0,0,1.759-.45,4.472,4.472,0,0,0,1.922-4.09V350.92a2.563,2.563,0,0,1,4.281-2.468l3.695,2.127a.709.709,0,0,0,.982-.259.736.736,0,0,0-.259-1L304.93,347.2a3.968,3.968,0,0,0-6.435,3.722v4.254a2.577,2.577,0,0,1-4.281,2.481l-17.656-10.2a.709.709,0,0,0-.982.273.723.723,0,0,0,.259.982l17.656,10.212A5.454,5.454,0,0,0,296.245,359.714Z" transform="translate(-156.807 -30.336)" fill="#42e8e0"/>
          <path id="Path_137" data-name="Path 137" d="M303.7,364.044a3.4,3.4,0,0,0,1.759-.464,4.4,4.4,0,0,0,1.936-4.09v-4.281a2.563,2.563,0,0,1,4.281-2.468l3.681,2.127a.724.724,0,0,0,.723-1.254l-3.681-2.127a3.981,3.981,0,0,0-6.449,3.722v4.254a2.563,2.563,0,0,1-4.281,2.468l-17.656-10.185a.723.723,0,0,0-.723,1.241l17.656,10.2a5.549,5.549,0,0,0,2.754.859Z" transform="translate(-171.138 -30.712)" fill="#42e8e0"/>
          <path id="Path_138" data-name="Path 138" d="M311.3,368.38a3.422,3.422,0,0,0,1.759-.464,4.445,4.445,0,0,0,1.922-4.09v-4.254a2.577,2.577,0,0,1,4.281-2.481l3.695,2.127a.723.723,0,0,0,.723-1.241l-3.695-2.127a3.968,3.968,0,0,0-6.435,3.722v4.2a2.577,2.577,0,0,1-4.295,2.468l-17.643-10.185a.723.723,0,0,0-.723,1.241l17.656,10.2a5.645,5.645,0,0,0,2.754.886Z" transform="translate(-185.592 -31.094)" fill="#42e8e0"/>
          <path id="Path_139" data-name="Path 139" d="M318.921,372.7a3.517,3.517,0,0,0,1.759-.45,4.458,4.458,0,0,0,1.936-4.09V363.9a2.563,2.563,0,0,1,4.213-2.481l3.681,2.127a.709.709,0,0,0,.982-.259.736.736,0,0,0-.259-1l-3.681-2.127a3.981,3.981,0,0,0-6.449,3.722v4.254a3.109,3.109,0,0,1-1.091,2.822,3.054,3.054,0,0,1-3.068-.368l-17.725-10.2a.724.724,0,1,0-.723,1.254l17.725,10.185A5.453,5.453,0,0,0,318.921,372.7Z" transform="translate(-200.084 -31.473)" fill="#42e8e0"/>
          <path id="Path_140" data-name="Path 140" d="M326.381,377.033a3.464,3.464,0,0,0,1.745-.45,4.445,4.445,0,0,0,1.936-4.09v-4.254a2.563,2.563,0,0,1,4.268-2.481l3.681,2.127a.724.724,0,1,0,.723-1.254l-3.681-2.127a3.981,3.981,0,0,0-6.449,3.722v4.254a2.563,2.563,0,0,1-4.281,2.468L306.68,364.762a.724.724,0,1,0-.723,1.254L323.6,376.2A5.591,5.591,0,0,0,326.381,377.033Z" transform="translate(-214.403 -31.852)" fill="#42e8e0"/>
          <path id="Path_141" data-name="Path 141" d="M333.724,381.373a3.4,3.4,0,0,0,1.759-.464,4.431,4.431,0,0,0,1.922-4.09v-4.254a2.577,2.577,0,0,1,4.281-2.481l3.695,2.127a.723.723,0,1,0,.723-1.241l-3.695-2.127a4.418,4.418,0,0,0-4.513-.382,4.472,4.472,0,0,0-1.922,4.09v4.254a2.563,2.563,0,0,1-4.281,2.468l-17.656-10.185a.723.723,0,0,0-.723,1.241l17.725,10.2A5.644,5.644,0,0,0,333.724,381.373Z" transform="translate(-228.617 -32.238)" fill="#42e8e0"/>
          <path id="Path_142" data-name="Path 142" d="M341.32,385.739a3.517,3.517,0,0,0,1.759-.45,4.458,4.458,0,0,0,1.936-4.09v-4.322a2.577,2.577,0,0,1,4.281-2.468l3.681,2.127a.723.723,0,1,0,.723-1.241l-3.681-2.141a3.981,3.981,0,0,0-6.449,3.722v4.268a2.577,2.577,0,0,1-4.281,2.468l-17.656-10.144a.724.724,0,0,0-.723,1.254l17.656,10.185a5.549,5.549,0,0,0,2.754.832Z" transform="translate(-243.085 -32.61)" fill="#42e8e0"/>
          <path id="Path_143" data-name="Path 143" d="M348.919,390.018a3.558,3.558,0,0,0,1.759-.45,4.472,4.472,0,0,0,1.922-4.09V381.21a2.563,2.563,0,0,1,4.281-2.468l3.695,2.127a.724.724,0,0,0,.723-1.254l-3.695-2.127a3.968,3.968,0,0,0-6.435,3.722v4.254a2.577,2.577,0,0,1-4.281,2.481l-17.656-10.2a.723.723,0,0,0-1,.273.736.736,0,0,0,.273.982l17.6,10.185A5.454,5.454,0,0,0,348.919,390.018Z" transform="translate(-257.542 -32.989)" fill="#42e8e0"/>
          <path id="Path_144" data-name="Path 144" d="M356.419,394.35a3.4,3.4,0,0,0,1.759-.464,4.431,4.431,0,0,0,1.936-4.09v-4.254a3.1,3.1,0,0,1,1.2-2.85,3.149,3.149,0,0,1,3.081.368l3.681,2.141a.724.724,0,0,0,.723-1.254l-3.681-2.127a3.968,3.968,0,0,0-6.449,3.722V389.8a2.563,2.563,0,0,1-4.281,2.468l-17.656-10.185a.723.723,0,0,0-.723,1.241l17.684,10.2A5.645,5.645,0,0,0,356.419,394.35Z" transform="translate(-271.94 -33.367)" fill="#42e8e0"/>
          <path id="Path_145" data-name="Path 145" d="M364.043,398.684a3.477,3.477,0,0,0,1.745-.464,4.417,4.417,0,0,0,1.936-4.09v-4.268a3.1,3.1,0,0,1,1.213-2.836,3.054,3.054,0,0,1,3.068.368l3.695,2.127a.714.714,0,1,0,.709-1.241l-3.681-2.127a3.968,3.968,0,0,0-6.449,3.709v4.268A2.563,2.563,0,0,1,362,396.6l-17.725-10.2a.736.736,0,0,0-.982.273.723.723,0,0,0,.273.982l17.752,10.2A5.74,5.74,0,0,0,364.043,398.684Z" transform="translate(-286.382 -33.747)" fill="#42e8e0"/>
          <path id="Path_146" data-name="Path 146" d="M371.569,403a3.518,3.518,0,0,0,1.759-.45,4.472,4.472,0,0,0,1.922-4.09v-4.254a2.563,2.563,0,0,1,4.281-2.468l3.695,2.127a.709.709,0,0,0,.982-.259.736.736,0,0,0-.259-1l-3.695-2.127a3.968,3.968,0,0,0-6.435,3.722v4.254a2.577,2.577,0,0,1-4.281,2.481l-17.725-10.2a.709.709,0,0,0-.982.259.736.736,0,0,0,.259,1l17.656,10.185A5.454,5.454,0,0,0,371.569,403Z" transform="translate(-300.794 -34.128)" fill="#42e8e0"/>
          <path id="Path_147" data-name="Path 147" d="M57.681,395.253v15.679l135.648,78.316,135.648-78.316V395.253Z" transform="translate(21.916 -34.625)" fill="url(#linear-gradient)"/>
          <path id="Path_148" data-name="Path 148" d="M193.329,466.049l135.648-78.316L193.329,309.418,57.681,387.733Z" transform="translate(21.916 -27.105)" fill="#bcbeff"/>
          <path id="Path_149" data-name="Path 149" d="M193.329,471.654l134.066-77.4,1.582.914L193.329,473.481,57.681,395.165l1.582-.914Z" transform="translate(21.916 -34.537)" fill="#fff"/>
          <path id="Path_150" data-name="Path 150" d="M196.336,449.734l104.33-60.25-104.33-60.236L92.006,389.5Z" transform="translate(18.909 -28.843)" fill="#0f054c"/>
          <path id="Path_151" data-name="Path 151" d="M196.335,449.734l104.344-60.25L196.335,329.248,91.992,389.5Z" transform="translate(18.91 -28.843)" opacity="0.5" fill="url(#linear-gradient-2)"/>
          <path id="Path_152" data-name="Path 152" d="M310.7,312.6l-104.344,60.25V388.04L310.7,327.789Z" transform="translate(-95.452 -27.384)" opacity="0.5" fill="url(#linear-gradient-3)"/>
          <path id="Path_153" data-name="Path 153" d="M91.992,327.789l104.344,60.236V372.837L91.992,312.6Z" transform="translate(123.254 -27.384)" opacity="0.5" fill="url(#linear-gradient-4)"/>
          <path id="Path_154" data-name="Path 154" d="M196.335,433.087l104.344-60.25L196.335,312.6,91.992,372.851Z" transform="translate(18.91 -27.384)" opacity="0.5" fill="url(#linear-gradient-3)"/>
          <path id="Path_155" data-name="Path 155" d="M202.35,400.388l41.694-24.078L202.35,352.246l-41.694,24.078Z" transform="translate(12.895 -30.857)" fill="#42e8e0" opacity="0.5"/>
          <path id="Path_156" data-name="Path 156" d="M202.35,354.454l-39.771,22.974-1.922-1.1,41.694-24.078,41.694,24.065-1.922,1.118Z" transform="translate(12.895 -30.857)" fill="#42e8e0" opacity="0.5"/>
          <path id="Path_157" data-name="Path 157" d="M310.7,438.872v15.189L206.353,393.824V378.636Z" transform="translate(-95.452 -33.169)" opacity="0.5" fill="url(#linear-gradient-4)"/>
          <path id="Path_158" data-name="Path 158" d="M196.335,378.621v15.189L91.992,454.06V438.871Z" transform="translate(123.254 -33.168)" opacity="0.5" fill="url(#linear-gradient-2)"/>
          <path id="Path_159" data-name="Path 159" d="M196.335,437.129l102.9-59.4,1.445.818-104.344,60.25L91.992,378.556l1.445-.832Z" transform="translate(18.91 -33.089)" fill="#42e8e0" opacity="0.8"/>
          <path id="Path_160" data-name="Path 160" d="M208.421,515.478a.654.654,0,0,0,.354-.1l17.656-10.2a12.489,12.489,0,0,0,5.726-9.912v-4.254a11.016,11.016,0,0,1,4.99-8.685l3.681-2.141a.723.723,0,1,0-.723-1.241l-3.681,2.127a12.489,12.489,0,0,0-5.726,9.912v4.254a11.1,11.1,0,0,1-5,8.671L208.053,514.1a.723.723,0,0,0-.273.982.736.736,0,0,0,.641.4Z" transform="translate(-27.234 -41.944)" fill="#42e8e0"/>
          <path id="Path_161" data-name="Path 161" d="M216.086,511.152a.736.736,0,0,0,.368-.1l17.643-10.2a12.462,12.462,0,0,0,5.726-9.912v-4.254a11.1,11.1,0,0,1,5-8.671l3.695-2.127a.718.718,0,0,0-.723-1.241L244.1,476.78a12.475,12.475,0,0,0-5.713,9.912v4.254a11.1,11.1,0,0,1-5,8.671L215.663,509.8a.723.723,0,0,0,.354,1.363Z" transform="translate(-41.771 -41.572)" fill="#42e8e0"/>
          <path id="Path_162" data-name="Path 162" d="M223.564,506.823a.682.682,0,0,0,.354-.109l17.656-10.13a12.489,12.489,0,0,0,5.726-9.912v-4.254a11.057,11.057,0,0,1,5-8.671l3.681-2.127a.724.724,0,0,0-.723-1.254l-3.681,2.141a12.462,12.462,0,0,0-5.726,9.912v4.254a11.071,11.071,0,0,1-5,8.658l-17.656,10.2a.723.723,0,0,0,.368,1.363Z" transform="translate(-56.107 -41.196)" fill="#42e8e0"/>
          <path id="Path_163" data-name="Path 163" d="M231.27,502.472a.735.735,0,0,0,.368-.1l17.6-10.185a12.462,12.462,0,0,0,5.726-9.912v-4.268a11.085,11.085,0,0,1,5-8.658l3.681-2.127a.723.723,0,0,0-.709-1.254l-3.695,2.127a12.516,12.516,0,0,0-5.726,9.912v4.268a11.058,11.058,0,0,1-5,8.658l-17.643,10.2a.709.709,0,0,0,.354,1.363Z" transform="translate(-70.685 -40.814)" fill="#42e8e0"/>
          <path id="Path_164" data-name="Path 164" d="M238.611,498.136a.655.655,0,0,0,.354-.1l17.656-10.185a12.5,12.5,0,0,0,5.713-9.912v-4.268a11.085,11.085,0,0,1,5-8.658l3.695-2.127a.736.736,0,0,0,.259-1,.709.709,0,0,0-.982-.259l-3.681,2.127a12.476,12.476,0,0,0-5.726,9.912v4.268a11.085,11.085,0,0,1-5,8.658l-17.656,10.2a.723.723,0,0,0,.368,1.363Z" transform="translate(-84.884 -40.431)" fill="#42e8e0"/>
          <path id="Path_165" data-name="Path 165" d="M246.027,493.8a.654.654,0,0,0,.354-.1l17.725-10.2a12.489,12.489,0,0,0,5.726-9.912v-4.254a11.017,11.017,0,0,1,5-8.658l3.681-2.141a.753.753,0,1,0-.791-1.282l-3.681,2.127a12.489,12.489,0,0,0-5.726,9.912v4.322a11.057,11.057,0,0,1-5,8.671l-17.643,10.185a.723.723,0,0,0-.273.982.736.736,0,0,0,.627.341Z" transform="translate(-99.172 -40.046)" fill="#42e8e0"/>
          <path id="Path_166" data-name="Path 166" d="M253.784,489.467a.736.736,0,0,0,.368-.1l17.643-10.2a12.462,12.462,0,0,0,5.726-9.912v-4.2a11.1,11.1,0,0,1,5-8.671l3.695-2.236a.723.723,0,0,0-.723-1.241L281.8,455.04a12.475,12.475,0,0,0-5.713,9.912v4.254a11.1,11.1,0,0,1-5,8.671l-17.725,10.185a.723.723,0,0,0,.354,1.363Z" transform="translate(-113.801 -39.67)" fill="#42e8e0"/>
          <path id="Path_167" data-name="Path 167" d="M261.224,485.134a.8.8,0,0,0,.355-.1l17.656-10.2a12.489,12.489,0,0,0,5.726-9.912v-4.254a11.057,11.057,0,0,1,5-8.671l3.681-2.127a.724.724,0,0,0-.723-1.254l-3.681,2.141a12.462,12.462,0,0,0-5.726,9.912v4.254a11.044,11.044,0,0,1-5,8.658l-17.725,10.2a.723.723,0,0,0-.259.982.736.736,0,0,0,.7.368Z" transform="translate(-128.099 -39.292)" fill="#42e8e0"/>
          <path id="Path_168" data-name="Path 168" d="M268.761,480.787a.654.654,0,0,0,.354-.1l17.656-10.185A12.475,12.475,0,0,0,292.5,460.6v-4.268a11.085,11.085,0,0,1,5-8.658l3.681-2.127a.723.723,0,0,0,.273-.982.75.75,0,0,0-1-.273l-3.681,2.127a12.516,12.516,0,0,0-5.726,9.912V460.6a11.058,11.058,0,0,1-5,8.658l-17.643,10.2a.709.709,0,0,0,.354,1.363Z" transform="translate(-142.508 -38.912)" fill="#42e8e0"/>
          <path id="Path_169" data-name="Path 169" d="M276.238,476.453a.7.7,0,0,0,.355-.1l17.656-10.185a12.5,12.5,0,0,0,5.713-9.912v-4.268a11.071,11.071,0,0,1,5-8.658l3.695-2.127a.736.736,0,0,0,.259-1,.709.709,0,0,0-.982-.259l-3.681,2.127a12.462,12.462,0,0,0-5.726,9.912v4.268a11.085,11.085,0,0,1-5,8.658l-17.656,10.2a.723.723,0,0,0,.368,1.363Z" transform="translate(-156.843 -38.532)" fill="#42e8e0"/>
          <path id="Path_170" data-name="Path 170" d="M283.652,472.115a.654.654,0,0,0,.354-.1l17.656-10.2a12.489,12.489,0,0,0,5.726-9.912v-4.254a11.071,11.071,0,0,1,5-8.658l3.681-2.141a.723.723,0,1,0-.723-1.241l-3.681,2.127a12.489,12.489,0,0,0-5.726,9.912v4.254a11.057,11.057,0,0,1-5,8.671l-17.656,10.185a.736.736,0,0,0-.259,1A.75.75,0,0,0,283.652,472.115Z" transform="translate(-171.127 -38.148)" fill="#42e8e0"/>
          <path id="Path_171" data-name="Path 171" d="M291.153,467.782a.928.928,0,0,0,.368-.1l17.643-10.2a12.462,12.462,0,0,0,5.726-9.912v-4.254a11.1,11.1,0,0,1,5-8.671l3.695-2.127a.723.723,0,1,0-.723-1.241l-3.695,2.127a12.475,12.475,0,0,0-5.713,9.912v4.254a11.1,11.1,0,0,1-5,8.671L290.8,466.432a.723.723,0,0,0-.259.982A.7.7,0,0,0,291.153,467.782Z" transform="translate(-185.501 -37.768)" fill="#42e8e0"/>
          <path id="Path_172" data-name="Path 172" d="M298.709,463.452a.8.8,0,0,0,.354-.1l17.725-10.2a12.489,12.489,0,0,0,5.726-9.912v-4.254a11.058,11.058,0,0,1,5-8.671l3.681-2.127a.724.724,0,0,0-.723-1.254l-3.681,2.141a12.435,12.435,0,0,0-5.726,9.912v4.254a11.043,11.043,0,0,1-5,8.658l-17.725,10.2a.723.723,0,0,0-.259.982.736.736,0,0,0,.627.368Z" transform="translate(-199.914 -37.392)" fill="#42e8e0"/>
          <path id="Path_173" data-name="Path 173" d="M306.389,459.1a.735.735,0,0,0,.368-.1L324.4,448.765a12.462,12.462,0,0,0,5.726-9.912v-4.268a11.085,11.085,0,0,1,5-8.658l3.681-2.127a.723.723,0,0,0,.273-.982.736.736,0,0,0-.982-.273l-3.695,2.127a12.516,12.516,0,0,0-5.726,9.912v4.268a11.057,11.057,0,0,1-5,8.658l-17.643,10.2a.709.709,0,0,0,.354,1.363Z" transform="translate(-214.466 -37.008)" fill="#42e8e0"/>
          <path id="Path_174" data-name="Path 174" d="M313.9,454.77a.7.7,0,0,0,.354-.1l17.656-10.185a12.5,12.5,0,0,0,5.713-9.926V430.31a11.085,11.085,0,0,1,5-8.658l3.695-2.127a.736.736,0,0,0,.259-1,.709.709,0,0,0-.982-.259L341.9,420.4a12.476,12.476,0,0,0-5.713,9.912v4.254a11.1,11.1,0,0,1-5,8.671L313.463,453.42a.736.736,0,0,0-.259,1,.709.709,0,0,0,.7.354Z" transform="translate(-228.835 -36.632)" fill="#42e8e0"/>
          <path id="Path_175" data-name="Path 175" d="M321.279,450.432a.654.654,0,0,0,.354-.1l17.656-10.2a12.489,12.489,0,0,0,5.726-9.912v-4.254a11.017,11.017,0,0,1,5-8.658l3.681-2.141a.723.723,0,1,0-.723-1.241L349.3,416.06a12.489,12.489,0,0,0-5.726,9.912v4.308a11.057,11.057,0,0,1-5,8.671l-17.656,10.185a.736.736,0,0,0-.259,1,.75.75,0,0,0,.627.3Z" transform="translate(-243.086 -36.248)" fill="#42e8e0"/>
          <path id="Path_176" data-name="Path 176" d="M328.971,446.1a.927.927,0,0,0,.368-.1L347,435.81a12.475,12.475,0,0,0,5.713-9.912v-4.254a11.1,11.1,0,0,1,5-8.671l3.695-2.154a.723.723,0,0,0-.723-1.241L356.99,411.7a12.475,12.475,0,0,0-5.713,9.912v4.254a11.1,11.1,0,0,1-5,8.671l-17.656,10.185a.723.723,0,0,0,.354,1.363Z" transform="translate(-257.65 -35.874)" fill="#42e8e0"/>
          <path id="Path_177" data-name="Path 177" d="M336.479,441.791a.654.654,0,0,0,.354-.1L354.49,431.51a12.489,12.489,0,0,0,5.726-9.912v-4.349a11.057,11.057,0,0,1,5-8.671l3.681-2.127a.724.724,0,0,0-.723-1.254l-3.681,2.141a12.435,12.435,0,0,0-5.726,9.912V421.5a11.112,11.112,0,0,1-5,8.672l-17.725,10.253a.738.738,0,0,0,.436,1.363Z" transform="translate(-272.016 -35.488)" fill="#42e8e0"/>
          <path id="Path_178" data-name="Path 178" d="M344.044,437.421a.736.736,0,0,0,.368-.1l17.643-10.185a12.462,12.462,0,0,0,5.726-9.912v-4.268a11.085,11.085,0,0,1,5-8.658l3.681-2.127a.723.723,0,0,0,.273-.982.709.709,0,0,0-.982-.273l-3.695,2.127a12.516,12.516,0,0,0-5.726,9.912v4.268a11.057,11.057,0,0,1-5,8.658l-17.67,10.2a.709.709,0,0,0,.354,1.363Z" transform="translate(-286.452 -35.113)" fill="#42e8e0"/>
          <path id="Path_179" data-name="Path 179" d="M351.477,433.087a.654.654,0,0,0,.354-.1l17.725-10.185a12.5,12.5,0,0,0,5.713-9.926v-4.254a11.085,11.085,0,0,1,5-8.658l3.586-2.127a.723.723,0,0,0,.259-.982.709.709,0,0,0-.982-.273l-3.681,2.127a12.475,12.475,0,0,0-5.726,9.912v4.254a11.1,11.1,0,0,1-5,8.671l-17.588,10.185a.736.736,0,0,0-.259,1,.709.709,0,0,0,.6.355Z" transform="translate(-300.744 -34.733)" fill="#42e8e0"/>
          <path id="Path_180" data-name="Path 180" d="M200.451,515.487a.723.723,0,0,0,.368-1.363l-17.725-10.185a11.1,11.1,0,0,1-5-8.671v-4.254a12.462,12.462,0,0,0-5.726-9.912l-3.681-2.127a.723.723,0,0,0-.723,1.241l3.763,2.127a11.03,11.03,0,0,1,4.99,8.658v4.254a12.489,12.489,0,0,0,5.726,9.912l17.725,10.2A.653.653,0,0,0,200.451,515.487Z" transform="translate(49.33 -41.953)" fill="#42e8e0"/>
          <path id="Path_181" data-name="Path 181" d="M192.964,511.159a.736.736,0,0,0,.627-.368.723.723,0,0,0-.273-.982l-17.643-10.117a11.057,11.057,0,0,1-5-8.671v-4.254a12.489,12.489,0,0,0-5.726-9.912l-3.695-2.127a.715.715,0,0,0-.709,1.241l3.681,2.127a11.1,11.1,0,0,1,5,8.671v4.254a12.462,12.462,0,0,0,5.726,9.912l17.725,10.2A.655.655,0,0,0,192.964,511.159Z" transform="translate(63.689 -41.578)" fill="#42e8e0"/>
          <path id="Path_182" data-name="Path 182" d="M185.52,506.818a.7.7,0,0,0,.614-.368.723.723,0,0,0-.259-.982l-17.725-10.2a11.071,11.071,0,0,1-5-8.658v-4.254a12.475,12.475,0,0,0-5.713-9.912l-3.695-2.141a.736.736,0,0,0-.982.273.723.723,0,0,0,.259.982l3.695,2.127a11.1,11.1,0,0,1,5,8.671v4.254a12.475,12.475,0,0,0,5.781,9.967l17.725,10.185a.722.722,0,0,0,.3.055Z" transform="translate(78.004 -41.192)" fill="#42e8e0"/>
          <path id="Path_183" data-name="Path 183" d="M177.977,502.47a.723.723,0,0,0,.627-.354.709.709,0,0,0-.259-.982l-17.725-10.2a11.057,11.057,0,0,1-5-8.658V478.01a12.516,12.516,0,0,0-5.726-9.912l-3.681-2.127a.724.724,0,0,0-.723,1.254l3.681,2.127a11.057,11.057,0,0,1,5,8.658v4.268a12.489,12.489,0,0,0,5.726,9.912l17.725,10.185a.654.654,0,0,0,.354.1Z" transform="translate(92.405 -40.811)" fill="#42e8e0"/>
          <path id="Path_184" data-name="Path 184" d="M170.468,498.136a.682.682,0,0,0,.614-.354.709.709,0,0,0-.259-.982L153.1,486.6a11.085,11.085,0,0,1-5-8.658v-4.268a12.5,12.5,0,0,0-5.713-9.912l-3.695-2.127a.723.723,0,0,0-.982.259.736.736,0,0,0,.259,1l3.695,2.127a11.085,11.085,0,0,1,5,8.658v4.268a12.475,12.475,0,0,0,5.726,9.912l17.643,10.185A.736.736,0,0,0,170.468,498.136Z" transform="translate(106.786 -40.432)" fill="#42e8e0"/>
          <path id="Path_185" data-name="Path 185" d="M162.824,493.8a.723.723,0,0,0,.368-1.363l-17.725-10.185a11.1,11.1,0,0,1-5-8.671v-4.254a12.462,12.462,0,0,0-5.726-9.912l-3.681-2.127a.723.723,0,0,0-.723,1.241l3.681,2.141a11.017,11.017,0,0,1,5,8.658v4.295a12.489,12.489,0,0,0,5.726,9.912l17.725,10.2a.654.654,0,0,0,.354.068Z" transform="translate(121.289 -40.054)" fill="#42e8e0"/>
          <path id="Path_186" data-name="Path 186" d="M155.336,489.474a.736.736,0,0,0,.627-.368.723.723,0,0,0-.273-.982L138.048,477.94a11.057,11.057,0,0,1-5-8.671v-4.2a12.489,12.489,0,0,0-5.726-9.912l-3.695-2.127a.715.715,0,1,0-.709,1.241L126.6,456.4a11.1,11.1,0,0,1,4.936,8.671v4.254a12.462,12.462,0,0,0,5.726,9.912l17.725,10.2a.655.655,0,0,0,.355.041Z" transform="translate(135.647 -39.678)" fill="#42e8e0"/>
          <path id="Path_187" data-name="Path 187" d="M147.879,485.135a.709.709,0,0,0,.627-.368.723.723,0,0,0-.259-.982l-17.725-10.2a11.044,11.044,0,0,1-5-8.658v-4.254a12.462,12.462,0,0,0-5.726-9.912l-3.681-2.141a.736.736,0,0,0-.982.273.723.723,0,0,0,.259.982L119.084,452a11.1,11.1,0,0,1,5,8.671v4.254a12.475,12.475,0,0,0,5.713,9.912l17.725,10.2A.8.8,0,0,0,147.879,485.135Z" transform="translate(149.963 -39.292)" fill="#42e8e0"/>
          <path id="Path_188" data-name="Path 188" d="M140.317,480.784a.723.723,0,0,0,.368-1.363l-17.725-10.2a11.057,11.057,0,0,1-5-8.658V456.3a12.475,12.475,0,0,0-5.726-9.912l-3.681-2.127a.724.724,0,1,0-.723,1.254l3.681,2.127a11.057,11.057,0,0,1,5,8.658v4.268a12.516,12.516,0,0,0,5.726,9.912l17.725,10.185a.654.654,0,0,0,.354.123Z" transform="translate(164.397 -38.909)" fill="#42e8e0"/>
          <path id="Path_189" data-name="Path 189" d="M132.8,476.456a.682.682,0,0,0,.614-.355.709.709,0,0,0-.259-.982l-17.725-10.2a11.085,11.085,0,0,1-5-8.658V452a12.475,12.475,0,0,0-5.672-9.885l-3.695-2.127a.723.723,0,0,0-.982.259.736.736,0,0,0,.259,1l3.695,2.127a11.071,11.071,0,0,1,5,8.658v4.268a12.475,12.475,0,0,0,5.726,9.912l17.67,10.158a.736.736,0,0,0,.368.1Z" transform="translate(178.786 -38.535)" fill="#42e8e0"/>
          <path id="Path_190" data-name="Path 190" d="M125.308,472.115a.724.724,0,0,0,.368-1.35L108.02,460.58a11.1,11.1,0,0,1-5-8.671v-4.254a12.462,12.462,0,0,0-5.726-9.912l-3.681-2.127a.723.723,0,1,0-.723,1.241L96.567,439a11.03,11.03,0,0,1,5,8.658v4.254a12.489,12.489,0,0,0,5.726,9.912l17.725,10.2a.654.654,0,0,0,.286.1Z" transform="translate(193.135 -38.148)" fill="#42e8e0"/>
          <path id="Path_191" data-name="Path 191" d="M117.654,467.786a.736.736,0,0,0,.627-.368.723.723,0,0,0-.273-.982l-17.588-10.185a11.057,11.057,0,0,1-5-8.671v-4.254a12.489,12.489,0,0,0-5.726-9.912L86,431.287a.714.714,0,1,0-.709,1.241l3.681,2.127a11.1,11.1,0,0,1,5,8.671v4.254a12.462,12.462,0,0,0,5.726,9.912l17.656,10.2A.806.806,0,0,0,117.654,467.786Z" transform="translate(207.661 -37.773)" fill="#42e8e0"/>
          <path id="Path_192" data-name="Path 192" d="M110.178,463.448a.709.709,0,0,0,.627-.368.723.723,0,0,0-.259-.982L92.9,451.873a11.044,11.044,0,0,1-5-8.658v-4.254a12.475,12.475,0,0,0-5.713-9.912l-3.695-2.141a.724.724,0,1,0-.723,1.254l3.695,2.127a11.1,11.1,0,0,1,5,8.671v4.254a12.476,12.476,0,0,0,5.713,9.912l17.725,10.2a.86.86,0,0,0,.273.123Z" transform="translate(221.996 -37.389)" fill="#42e8e0"/>
          <path id="Path_193" data-name="Path 193" d="M102.662,459.1a.723.723,0,0,0,.368-1.363l-17.7-10.171a11.058,11.058,0,0,1-5-8.658v-4.268a12.516,12.516,0,0,0-5.726-9.912L70.921,422.6a.724.724,0,0,0-.723,1.254l3.681,2.127a11.058,11.058,0,0,1,5,8.658v4.268a12.516,12.516,0,0,0,5.767,9.858l17.725,10.185a.653.653,0,0,0,.286.15Z" transform="translate(236.383 -37.012)" fill="#42e8e0"/>
          <path id="Path_194" data-name="Path 194" d="M95.149,454.77a.682.682,0,0,0,.614-.355.736.736,0,0,0-.259-1L77.847,443.236a11.1,11.1,0,0,1-5-8.671V430.31a12.475,12.475,0,0,0-5.713-9.912l-3.695-2.127a.723.723,0,0,0-.982.259.736.736,0,0,0,.259,1l3.695,2.127a11.085,11.085,0,0,1,5,8.658v4.254a12.489,12.489,0,0,0,5.726,9.926l17.643,10.185A.736.736,0,0,0,95.149,454.77Z" transform="translate(250.767 -36.633)" fill="#42e8e0"/>
          <path id="Path_195" data-name="Path 195" d="M87.681,450.437a.724.724,0,0,0,.368-1.35L70.392,438.9a11.1,11.1,0,0,1-5-8.617v-4.254a12.462,12.462,0,0,0-5.726-9.912l-3.681-2.127a.723.723,0,1,0-.723,1.241l3.681,2.141a11.017,11.017,0,0,1,5,8.658v4.254A12.489,12.489,0,0,0,69.67,440.2l17.725,10.2a.653.653,0,0,0,.286.041Z" transform="translate(265.094 -36.254)" fill="#42e8e0"/>
          <path id="Path_196" data-name="Path 196" d="M80.111,446.1a.736.736,0,0,0,.627-.368.723.723,0,0,0-.273-.982L62.823,434.567a11.057,11.057,0,0,1-5-8.671v-4.254a12.489,12.489,0,0,0-5.726-9.912L48.4,409.6a.717.717,0,1,0-.764,1.213l3.681,2.127a11.1,11.1,0,0,1,5,8.671v4.254a12.462,12.462,0,0,0,5.726,9.912l17.725,10.2a.8.8,0,0,0,.341.123Z" transform="translate(279.535 -35.872)" fill="#42e8e0"/>
          <path id="Path_197" data-name="Path 197" d="M72.624,441.791a.709.709,0,0,0,.627-.355.723.723,0,0,0-.259-.982l-17.725-10.2a11.071,11.071,0,0,1-5-8.658v-4.349a12.462,12.462,0,0,0-5.726-9.912L40.856,405.2a.736.736,0,0,0-.982.273.723.723,0,0,0,.259.982l3.695,2.127a11.1,11.1,0,0,1,5.072,8.671V421.5a12.475,12.475,0,0,0,5.713,9.912L72.27,441.655a.654.654,0,0,0,.354.136Z" transform="translate(293.88 -35.488)" fill="#42e8e0"/>
          <path id="Path_198" data-name="Path 198" d="M65.062,437.418a.723.723,0,0,0,.368-1.363l-17.725-10.2a11.057,11.057,0,0,1-5-8.658v-4.268a12.516,12.516,0,0,0-5.726-9.912l-3.681-2.127a.724.724,0,1,0-.723,1.254l3.681,2.127a11.057,11.057,0,0,1,5,8.658V417.2a12.516,12.516,0,0,0,5.726,9.912l17.725,10.212a.654.654,0,0,0,.354.1Z" transform="translate(308.314 -35.11)" fill="#42e8e0"/>
          <path id="Path_199" data-name="Path 199" d="M57.521,433.093a.682.682,0,0,0,.614-.355.736.736,0,0,0-.259-1L40.151,421.558a11.1,11.1,0,0,1-5-8.671v-4.254a12.5,12.5,0,0,0-5.645-9.858l-3.695-2.127a.709.709,0,0,0-.982.273.723.723,0,0,0,.259.982l3.695,2.127a11.085,11.085,0,0,1,5,8.658v4.254a12.489,12.489,0,0,0,5.726,9.926L57.153,433a.736.736,0,0,0,.368.1Z" transform="translate(322.727 -34.738)" fill="#42e8e0"/>
          <g id="Group_103" data-name="Group 103" transform="translate(0 89.222)" opacity="0.3">
            <path id="Path_200" data-name="Path 200" d="M433.324,155.3c-1.213,6.817-6.326,24.2-27.4,36.172-30,13.852-50.774,32.054-57.728,52.4a46.951,46.951,0,0,1-1.813,4.377c-.75-1.227-.75-1.227-.75-4.213V209.947c0-20.042,1.132-24.46,2.563-30,6.954-20.342,27.732-38.544,57.728-52.4,23.942-7.731,29.736,14.711,27.405,27.855Z" transform="translate(-345.628 -100.257)" fill="#42e8e0"/>
            <path id="Path_201" data-name="Path 201" d="M235.333,111.874C203.565,102.643,166,97.476,125.9,97.8c-5.29,0-10.539.191-15.72.409-35.2,3.218-47.72,40.412-26.505,56.678,9.749,7.472,21.488,7.39,26.505,7.349s10.43-.368,15.72-.409C166,161.5,203.619,166.7,235.333,175.9c32.068,7.812,33.963-24.774,22.742-44.707C254.311,124.458,247.3,115.691,235.333,111.874Z" transform="translate(72.34 -97.788)" fill="#42e8e0"/>
            <path id="Path_202" data-name="Path 202" d="M27.273,262.22c-.873-10.158-1.568-18.161-11.9-32.15-21.815-32.15-17.384-69.535-5.345-67.776,1.936.273,3.954,2.372,5.345,3.736,7.322,9.53,11.48,19.783,11.9,30.473v65.772Z" transform="translate(376.249 -103.434)" fill="#42e8e0"/>
          </g>
          <rect id="Rectangle_177" data-name="Rectangle 177" width="7.485" height="63.863" transform="translate(124.883 317.923) rotate(-157.97)" fill="#42e8e0"/>
          <circle id="Ellipse_32" data-name="Ellipse 32" cx="23.246" cy="23.246" r="23.246" transform="matrix(-0.829, -0.559, 0.559, -0.829, 279.95, 260.575)" fill="url(#radial-gradient)"/>
          <path id="Path_203" data-name="Path 203" d="M142.381,282.285c0,45.13,26.873,81.7,59.991,81.7s59.991-36.567,59.991-81.7-26.86-58.628-59.991-58.628S142.381,237.169,142.381,282.285Z" transform="translate(11.251 -19.593)" fill="url(#radial-gradient-2)"/>
          <g id="Group_104" data-name="Group 104" transform="translate(153.632 204.065)">
            <path id="Path_204" data-name="Path 204" d="M142.381,282.285c0,45.13,26.873,81.7,59.991,81.7s59.991-36.567,59.991-81.7-26.86-58.628-59.991-58.628S142.381,237.169,142.381,282.285Z" transform="translate(-142.381 -223.658)" fill="url(#linear-gradient-8)"/>
          </g>
          <ellipse id="Ellipse_33" data-name="Ellipse 33" cx="40.958" cy="23.642" rx="40.958" ry="23.642" transform="translate(172.692 204.665)" fill="#393091"/>
          <path id="Path_205" data-name="Path 205" d="M233.1,237.546c-15.993-9.23-41.926-9.23-57.932,0-6.6,3.818-10.471,8.6-11.616,13.634-1.636-7.063,2.236-14.452,11.616-19.879,16.007-9.23,41.939-9.23,57.932,0,9.394,5.454,13.253,12.816,11.63,19.865C243.548,246.149,239.689,241.364,233.1,237.546Z" transform="translate(9.533 -19.656)" fill="#453c9e"/>
          <path id="Path_206" data-name="Path 206" d="M162.837,183.853l-7.4-12.775a41.176,41.176,0,0,1-9.544-16.552l-7.5-12.925,10.785-6.2a9.463,9.463,0,0,1,1.091-.627h0c3.068-1.445,7.144-1.063,11.63,1.527,9.544,5.454,17.275,18.9,17.275,29.914,0,5.454-1.936,9.38-5.058,11.18h0Z" transform="translate(98.083 -11.733)" fill="url(#radial-gradient-3)"/>
          <ellipse id="Ellipse_34" data-name="Ellipse 34" cx="24.433" cy="14.112" rx="24.433" ry="14.112" transform="translate(248.787 179.119) rotate(-120)" fill="#bcbeff"/>
          <circle id="Ellipse_35" data-name="Ellipse 35" cx="61.205" cy="61.205" r="61.205" transform="translate(245.281 251.484) rotate(-158.14)" fill="url(#radial-gradient-4)"/>
          <g id="Group_105" data-name="Group 105" transform="translate(131.673 92.299)">
            <circle id="Ellipse_36" data-name="Ellipse 36" cx="61.205" cy="61.205" r="61.205" transform="translate(113.608 159.186) rotate(-158.14)" fill="url(#linear-gradient-9)"/>
          </g>
          <path id="Path_207" data-name="Path 207" d="M254.97,228.952l-7.417-12.775a41.421,41.421,0,0,1-9.612-16.552l-7.5-12.939,10.8-6.19a7.659,7.659,0,0,1,1.077-.627h0c3.081-1.445,7.158-1.063,11.63,1.527,9.544,5.454,17.275,18.9,17.275,29.914,0,5.454-1.936,9.38-5.058,11.18h0Z" transform="translate(-77.956 -15.684)" fill="url(#radial-gradient-5)"/>
          <ellipse id="Ellipse_37" data-name="Ellipse 37" cx="24.433" cy="14.112" rx="24.433" ry="14.112" transform="translate(164.872 220.274) rotate(-120)" fill="#bcbeff"/>
          <path id="Path_208" data-name="Path 208" d="M268.922,218.468c0-11.017-7.744-24.405-17.275-29.914a14.589,14.589,0,0,0-9.026-2.277c2.727-.614,6.163,0,9.817,2.127,9.544,5.454,17.275,18.911,17.275,30,0,7.2-3.313,11.6-8.262,12.271C265.963,229.58,268.922,225.285,268.922,218.468Z" transform="translate(-87.558 -16.298)" fill="#fff"/>
          <ellipse id="Ellipse_38" data-name="Ellipse 38" cx="17.526" cy="10.11" rx="17.526" ry="10.11" transform="translate(164.081 211.344) rotate(-119.887)" fill="#393091"/>
          <path id="Path_209" data-name="Path 209" d="M255.491,193.218a10.2,10.2,0,0,0-2.018,6.654c0,7.881,5.522,17.452,12.353,21.392a9.8,9.8,0,0,0,7.09,1.5c-2.209,2.6-6,2.972-10.321.477-6.817-3.927-12.353-13.512-12.353-21.379C250.242,197.036,252.314,193.968,255.491,193.218Z" transform="translate(-97.715 -16.926)" fill="#453c9e"/>
          <ellipse id="Ellipse_39" data-name="Ellipse 39" cx="15.543" cy="26.914" rx="15.543" ry="26.914" transform="matrix(-0.923, -0.384, 0.384, -0.923, 251.819, 218.336)" fill="#393091"/>
          <path id="Path_210" data-name="Path 210" d="M167.14,207.371c.559,4.363,3.872,5.74,7.376,3.068a15.325,15.325,0,0,0,5.317-12.775c-.573-4.377-3.872-5.754-7.376-3.068a15.27,15.27,0,0,0-5.317,12.775Z" transform="translate(71.188 -16.927)" fill="#42e8e0"/>
          <path id="Path_211" data-name="Path 211" d="M161.728,223.11c9.653-7.376,16.2-23.11,14.63-35.149-.627-4.908-2.522-8.44-5.181-10.4,5.031.464,8.849,4.745,9.817,12.162,1.568,12.039-4.99,27.773-14.63,35.136-5.713,4.377-11.221,4.827-15.107,1.963C154.407,227.118,158.033,225.932,161.728,223.11Z" transform="translate(84.29 -15.554)" fill="#453c9e"/>
          <path id="Path_212" data-name="Path 212" d="M164.387,224.536c9.639-7.376,16.2-23.11,14.63-35.149-.723-5.576-3.068-9.367-6.313-11.112,3.681,1.513,6.354,5.454,7.144,11.507,1.568,12.039-4.99,27.773-14.63,35.136-5.181,3.968-10.185,4.69-13.962,2.727C154.925,229.1,159.588,228.2,164.387,224.536Z" transform="translate(85.435 -15.617)" fill="#42e8e0"/>
          <ellipse id="Ellipse_40" data-name="Ellipse 40" cx="23.247" cy="23.247" rx="23.247" ry="23.247" transform="matrix(-0.822, -0.569, 0.569, -0.822, 151.255, 289.651)" fill="url(#radial-gradient-6)"/>
          <g id="Group_106" data-name="Group 106" transform="translate(113.017 224.966)">
            <ellipse id="Ellipse_41" data-name="Ellipse 41" cx="23.247" cy="23.247" rx="23.247" ry="23.247" transform="matrix(-0.822, -0.569, 0.569, -0.822, 38.238, 64.685)" fill="url(#linear-gradient-10)"/>
          </g>
          <path id="Path_213" data-name="Path 213" d="M288.472,364.286c1.363,11.057,11.071,31.973,19.906,30.923s13.389-23.683,12.066-34.727-9.544-19.156-18.365-18.093S287.163,353.242,288.472,364.286Z" transform="translate(-180.188 -29.985)" fill="url(#radial-gradient-7)"/>
          <path id="Path_214" data-name="Path 214" d="M288.472,364.286c1.363,11.057,11.071,31.973,19.906,30.923s13.389-23.683,12.066-34.727-9.544-19.156-18.365-18.093S287.163,353.242,288.472,364.286Z" transform="translate(-180.188 -29.985)" fill="url(#linear-gradient-11)"/>
          <path id="Path_215" data-name="Path 215" d="M122.542,285.383a3.736,3.736,0,0,0,1.732-7.049L76.281,253.22a3.738,3.738,0,0,0-3.463,6.626l47.993,25.114A3.736,3.736,0,0,0,122.542,285.383Z" transform="translate(212.63 -22.145)" fill="#42e8e0"/>
          <path id="Path_216" data-name="Path 216" d="M46.359,300.8c9.749,5.345,32.45,9.544,36.717,1.772s-11.494-24.665-21.242-30-21.133-3.354-25.4,4.431S36.6,295.457,46.359,300.8Z" transform="translate(287.969 -23.616)" fill="url(#radial-gradient-8)"/>
          <path id="Path_217" data-name="Path 217" d="M46.359,300.8c9.749,5.345,32.45,9.544,36.717,1.772s-11.494-24.665-21.242-30-21.133-3.354-25.4,4.431S36.6,295.457,46.359,300.8Z" transform="translate(287.969 -23.616)" fill="url(#linear-gradient-12)"/>
          <g id="Group_107" data-name="Group 107" transform="translate(0.027 183.941)" opacity="0.5">
            <path id="Path_218" data-name="Path 218" d="M.372,284.43c1.459,11.753,7.553,18.747,13.907,10.008,8.181-11.221,9.012-22.2,9.544-28.755V201.6c0,10.008-3.327,19.674-9.544,28.755C.741,252.757-.868,274.859.318,284.389Z" transform="translate(379.671 -201.601)" fill="#42e8e0"/>
            <path id="Path_219" data-name="Path 219" d="M104.547,303.6q7.581.2,15.3.15c40.262-.341,77.552-6.176,108.679-15.979,31.1-8.3,32.981,24.228,22.129,44.325-7.731,14.316-18.188,18.229-22.129,19.7-31.127,9.8-68.417,15.639-108.679,15.979q-7.7,0-15.3-.15c-36.54-2.727-46.1-37.781-29.028-54.156,4.772-4.568,13.634-9.994,29.028-9.871Z" transform="translate(85.407 -209.034)" fill="#42e8e0"/>
            <path id="Path_220" data-name="Path 220" d="M338.932,246.484c.177,27.691,1.8,32.722,3.858,39.1,8.562,20.192,30.759,38.026,61.818,51.361,27.269,8.017,34.713-20.247,23.656-41.2a54.537,54.537,0,0,0-23.656-22.838c-31.059-13.321-53.256-31.154-61.818-51.347a34.985,34.985,0,0,0-2.345-4.336l-.7-.082c-.532,1.473-.75,2.086-.818,9.639v19.7Z" transform="translate(-338.932 -202.963)" fill="#42e8e0"/>
          </g>
          <path id="Path_221" data-name="Path 221" d="M322.71,253.2h0a5.358,5.358,0,0,0,5.358-5.358V64.324a5.358,5.358,0,0,0-5.358-5.372h0a5.358,5.358,0,0,0-5.372,5.372V247.855a5.358,5.358,0,0,0,5.372,5.345Z" transform="translate(-214.085 -5.164)" opacity="0.8" fill="url(#linear-gradient-13)"/>
          <path id="Path_222" data-name="Path 222" d="M91.043,169.761h0a2.89,2.89,0,0,0,2.822-2.877V2.877A2.877,2.877,0,0,0,91.042,0h0a2.863,2.863,0,0,0-2.877,2.877V166.884A2.877,2.877,0,0,0,91.043,169.761Z" transform="translate(229.214 0)" opacity="0.8" fill="url(#linear-gradient-14)"/>
        </g>
      </g>
    </g>
  </g>
</svg>
