<svg xmlns="http://www.w3.org/2000/svg" width="241.972" height="241.974" viewBox="0 0 241.972 241.974">
  <g id="user" transform="translate(0)">
    <ellipse id="rachel_roxas" cx="120.986" cy="120.987" rx="120.986" ry="120.987" transform="translate(0 0)" fill="#fff"/>
    <g id="badge" transform="translate(41.153 44.975)">
      <g id="Group_955" data-name="Group 955" transform="translate(19.278 0)">
        <path id="Path_5229" data-name="Path 5229" d="M137.529,62.25a11.717,11.717,0,0,0-1.349-14.563,7.32,7.32,0,0,1-1.872-6.58,11.716,11.716,0,0,0-6.519-13.092,7.32,7.32,0,0,1-4.123-5.459A11.717,11.717,0,0,0,112.858,12.7a7.32,7.32,0,0,1-5.817-3.6A11.717,11.717,0,0,0,93.4,3.819a7.32,7.32,0,0,1-6.724-1.257,11.717,11.717,0,0,0-14.625,0A7.319,7.319,0,0,1,65.33,3.819,11.717,11.717,0,0,0,51.692,9.1a7.319,7.319,0,0,1-5.816,3.6,11.717,11.717,0,0,0-10.808,9.853,7.319,7.319,0,0,1-4.122,5.459,11.717,11.717,0,0,0-6.519,13.092,7.32,7.32,0,0,1-1.872,6.58A11.717,11.717,0,0,0,21.2,62.251a7.319,7.319,0,0,1,.631,6.812,11.717,11.717,0,0,0,4,14.067,7.319,7.319,0,0,1,3.049,6.124A11.718,11.718,0,0,0,37.7,100.925a7.317,7.317,0,0,1,3.913,2.555L29.377,133.021a5.3,5.3,0,0,0,6.446,7.089L49.219,136a.856.856,0,0,1,1.005.417L56.79,148.8a5.3,5.3,0,0,0,9.571-.455l12.754-30.79q.251-.008.5,0l12.754,30.79a5.3,5.3,0,0,0,9.571.455l6.566-12.38a.855.855,0,0,1,1.005-.416l13.4,4.111a5.3,5.3,0,0,0,6.446-7.089L117.119,103.48a7.317,7.317,0,0,1,3.913-2.555,11.718,11.718,0,0,0,8.814-11.671A7.319,7.319,0,0,1,132.9,83.13a11.717,11.717,0,0,0,4-14.067,7.326,7.326,0,0,1,.632-6.813Zm-75.27,84.39a.852.852,0,0,1-1.544.073l-6.566-12.38a5.3,5.3,0,0,0-6.232-2.581l-13.4,4.111a.852.852,0,0,1-1.04-1.144l10.856-26.21a11.712,11.712,0,0,0,10.855,4.722A7.322,7.322,0,0,1,61.57,115.7a11.672,11.672,0,0,0,12,3.628Zm61.955-10.777-13.4-4.111a5.3,5.3,0,0,0-6.232,2.581l-6.566,12.38a.853.853,0,0,1-1.544-.073l-11.31-27.3a11.71,11.71,0,0,0,12-3.633,7.317,7.317,0,0,1,6.379-2.471A11.7,11.7,0,0,0,114.4,108.51l10.857,26.209A.853.853,0,0,1,124.213,135.864Zm9.6-76.041A11.758,11.758,0,0,0,132.8,70.765a7.294,7.294,0,0,1-2.491,8.757,11.758,11.758,0,0,0-4.9,9.837,7.294,7.294,0,0,1-5.487,7.266,11.756,11.756,0,0,0-7.26,5.546l-.013.023a11.763,11.763,0,0,0-.848,1.834,7.291,7.291,0,0,1-7.741,4.793,11.757,11.757,0,0,0-10.247,3.97,7.3,7.3,0,0,1-8.95,1.673,11.752,11.752,0,0,0-3.231-1.139l-.028-.006a11.747,11.747,0,0,0-4.475,0l-.016,0a11.767,11.767,0,0,0-3.239,1.141,7.294,7.294,0,0,1-8.949-1.673,11.758,11.758,0,0,0-10.247-3.969,7.294,7.294,0,0,1-7.741-4.793,11.777,11.777,0,0,0-.847-1.832l-.015-.028a11.756,11.756,0,0,0-7.259-5.543,7.294,7.294,0,0,1-5.487-7.265,11.759,11.759,0,0,0-4.9-9.837,7.294,7.294,0,0,1-2.491-8.757,11.758,11.758,0,0,0-1.014-10.942,7.294,7.294,0,0,1,.84-9.065,11.759,11.759,0,0,0,3.007-10.569,7.294,7.294,0,0,1,4.058-8.15,11.758,11.758,0,0,0,6.623-8.769,7.294,7.294,0,0,1,6.728-6.134,11.757,11.757,0,0,0,9.343-5.785,7.3,7.3,0,0,1,8.49-3.289,11.758,11.758,0,0,0,10.8-2.019,7.294,7.294,0,0,1,9.1,0,11.757,11.757,0,0,0,10.8,2.019,7.294,7.294,0,0,1,8.49,3.289,11.759,11.759,0,0,0,9.343,5.785,7.294,7.294,0,0,1,6.728,6.134,11.76,11.76,0,0,0,6.623,8.77,7.294,7.294,0,0,1,4.058,8.15,11.758,11.758,0,0,0,3.007,10.569,7.3,7.3,0,0,1,.839,9.066Z" transform="translate(-19.278 0)"/>
        <path id="Path_5230" data-name="Path 5230" d="M40.948,60.417a2.221,2.221,0,0,0,2.475-1.933A39.893,39.893,0,0,1,122.6,58.5a2.221,2.221,0,0,0,4.409-.54,44.334,44.334,0,0,0-87.994-.021,2.221,2.221,0,0,0,1.933,2.475Z" transform="translate(-22.922 -3.526)"/>
        <path id="Path_5231" data-name="Path 5231" d="M125.075,77.1A2.224,2.224,0,0,0,122.6,79.03a39.893,39.893,0,0,1-79.178.017,2.221,2.221,0,1,0-4.408.542,44.334,44.334,0,0,0,87.994-.02A2.22,2.22,0,0,0,125.075,77.1Z" transform="translate(-22.922 -14.243)"/>
        <path id="Path_5232" data-name="Path 5232" d="M117.188,57.05a4.258,4.258,0,0,0-3.934-2.967l-17.412-.624L89.868,37.092a4.3,4.3,0,0,0-8.075,0L75.818,53.458l-17.412.624a4.3,4.3,0,0,0-2.5,7.68L69.63,72.5,64.844,89.256A4.3,4.3,0,0,0,71.377,94L85.83,84.273,100.284,94a4.3,4.3,0,0,0,6.533-4.747L102.03,72.5l13.719-10.74a4.257,4.257,0,0,0,1.439-4.713ZM99.217,69.065a4.281,4.281,0,0,0-1.484,4.566L102.439,90.1,88.231,80.535a4.281,4.281,0,0,0-4.8,0L69.222,90.1l4.705-16.468a4.281,4.281,0,0,0-1.483-4.566L58.957,58.507l17.117-.614a4.281,4.281,0,0,0,3.883-2.822l5.873-16.089L91.7,55.071a4.281,4.281,0,0,0,3.884,2.821l17.116.614Z" transform="translate(-25.741 -6.332)"/>
      </g>
    </g>
  </g>
</svg>
