<svg xmlns="http://www.w3.org/2000/svg" width="241.972" height="241.974" viewBox="0 0 241.972 241.974">
  <g id="user" transform="translate(0)">
    <ellipse id="rachel_roxas" cx="120.986" cy="120.987" rx="120.986" ry="120.987" transform="translate(0 0)" fill="#fff"/>
    <g id="money" transform="translate(52 51.91)">
      <g id="Group_944" data-name="Group 944" transform="translate(80.502 69.044)">
        <g id="Group_943" data-name="Group 943">
          <path id="Path_5223" data-name="Path 5223" d="M120.223,112.424c-3.256,0-5.9-2.293-5.9-5.11s2.649-5.111,5.9-5.111,5.9,2.293,5.9,5.111a2.684,2.684,0,0,0,5.368,0,10.678,10.678,0,0,0-8.588-10.176v-1.4a2.684,2.684,0,1,0-5.368,0v1.4a10.678,10.678,0,0,0-8.588,10.176c0,5.777,5.057,10.478,11.272,10.478,3.256,0,5.9,2.293,5.9,5.111s-2.649,5.111-5.9,5.111-5.9-2.293-5.9-5.111a2.684,2.684,0,1,0-5.368,0,10.678,10.678,0,0,0,8.588,10.176v1.159a2.684,2.684,0,0,0,5.368,0v-1.159a10.678,10.678,0,0,0,8.588-10.176C131.495,117.125,126.438,112.424,120.223,112.424Z" transform="translate(-108.951 -93.059)"/>
        </g>
      </g>
      <g id="Group_946" data-name="Group 946" transform="translate(103.038 59.539)">
        <g id="Group_945" data-name="Group 945">
          <path id="Path_5224" data-name="Path 5224" d="M157.582,93.1A34.968,34.968,0,0,0,143.3,80.46a2.684,2.684,0,1,0-2.326,4.838,29.547,29.547,0,0,1,13.308,40.47,2.684,2.684,0,1,0,4.739,2.521A34.928,34.928,0,0,0,157.582,93.1Z" transform="translate(-139.451 -80.195)"/>
        </g>
      </g>
      <g id="Group_948" data-name="Group 948" transform="translate(93.128 56.376)">
        <g id="Group_947" data-name="Group 947">
          <path id="Path_5225" data-name="Path 5225" d="M128.9,75.915h-.181a2.684,2.684,0,1,0,0,5.368h.168a2.684,2.684,0,0,0,.012-5.368Z" transform="translate(-126.039 -75.914)"/>
        </g>
      </g>
      <g id="Group_950" data-name="Group 950" transform="translate(56.897 73.475)">
        <g id="Group_949" data-name="Group 949">
          <path id="Path_5226" data-name="Path 5226" d="M99.12,143.47A29.547,29.547,0,0,1,85.813,103a2.684,2.684,0,1,0-4.739-2.521,34.9,34.9,0,0,0,15.72,47.829,2.684,2.684,0,1,0,2.326-4.838Z" transform="translate(-77.004 -99.056)"/>
        </g>
      </g>
      <g id="Group_952" data-name="Group 952" transform="translate(84.91 120.787)">
        <g id="Group_951" data-name="Group 951">
          <path id="Path_5227" data-name="Path 5227" d="M117.768,163.088h-.155a2.684,2.684,0,0,0-.024,5.368h.18a2.684,2.684,0,0,0,0-5.368Z" transform="translate(-114.916 -163.088)"/>
        </g>
      </g>
      <g id="Group_954" data-name="Group 954" transform="translate(0 1.09)">
        <g id="Group_953" data-name="Group 953">
          <path id="Path_5228" data-name="Path 5228" d="M103.973,47.3a12.319,12.319,0,0,0-1.192-2.192h6.987a12.346,12.346,0,0,0,0-24.691H88.276A12.337,12.337,0,0,0,78.1,1.09H12.346a12.346,12.346,0,1,0,0,24.691H33.837a12.311,12.311,0,0,0,0,13.956h-7a12.338,12.338,0,0,0-7.672,22.007,12.323,12.323,0,0,0,0,19.323,12.323,12.323,0,0,0,0,19.323A12.338,12.338,0,0,0,26.838,122.4H58.467a45.615,45.615,0,1,0,45.506-75.1Zm5.795-21.516a6.978,6.978,0,0,1,0,13.956H44.014a6.978,6.978,0,1,1,0-13.956ZM12.346,20.413a6.978,6.978,0,1,1,0-13.956H78.1a6.978,6.978,0,0,1,0,13.956ZM26.838,45.1H92.591a6.974,6.974,0,0,1,3.045.7c-1.269-.107-2.553-.164-3.85-.164A45.483,45.483,0,0,0,59.5,59.06H26.838a6.978,6.978,0,0,1,0-13.956Zm0,19.323H54.915a45.5,45.5,0,0,0-6.9,13.956H26.838a6.978,6.978,0,0,1,0-13.956Zm0,19.323H46.784a45.661,45.661,0,0,0-.166,13.956H26.838a6.978,6.978,0,1,1,0-13.956Zm0,33.279a6.978,6.978,0,1,1,0-13.956H47.714a45.445,45.445,0,0,0,6.439,13.956Zm64.948,14.493a40.257,40.257,0,1,1,40.257-40.257A40.3,40.3,0,0,1,91.787,131.523Z" transform="translate(0 -1.09)"/>
        </g>
      </g>
    </g>
  </g>
</svg>
