<svg xmlns="http://www.w3.org/2000/svg" width="241.972" height="241.974" viewBox="0 0 241.972 241.974">
  <g id="user" transform="translate(0)">
    <ellipse id="rachel_roxas" cx="120.986" cy="120.987" rx="120.986" ry="120.987" transform="translate(0 0)" fill="#fff"/>
    <g id="world-wide-web" transform="translate(44.949 44.95)">
      <path id="Path_5233" data-name="Path 5233" d="M144.2,101.8c-18.356,38.494-46.6,46.811-67.1,46.811A71.783,71.783,0,0,1,18.92,118.286C5.465,99.307,2.257,75.248,10.009,52.258l1.426-2.94c10.871-25.93,37.246-43.87,65.671-43.87a71.784,71.784,0,0,1,58.187,30.326C148.747,54.754,151.955,78.812,144.2,101.8Z" transform="translate(-1.069 -0.993)" fill="#65b1fc"/>
      <path id="Path_5234" data-name="Path 5234" d="M160.083,101.8c-18.356,38.494-46.6,46.811-67.1,46.811V5.448a71.783,71.783,0,0,1,58.187,30.326C164.627,54.754,167.835,78.812,160.083,101.8Z" transform="translate(-16.949 -0.993)" fill="#1689fc"/>
      <path id="Path_5235" data-name="Path 5235" d="M137.894,32.2A76.423,76.423,0,0,0,76.054,0C45.491,0,17.511,19.188,6.017,47.434L4.5,50.553c-8.181,24.913-5,48.51,9.713,69.324a76.423,76.423,0,0,0,61.84,32.2c30.207,0,57.83-18.742,69.681-46.365l1.336-2.673C155.978,77.695,152.858,53.35,137.894,32.2ZM21.521,114.709C8.868,96.888,5.928,74.344,13.234,52.691l1.158-2.406a67.909,67.909,0,0,1,38.672-37.1C42.283,27.266,35.778,54.651,36.58,63.562a2.638,2.638,0,0,0-.179.891c-2.317,29.85,4.455,58.661,17.2,74.79A68.015,68.015,0,0,1,21.521,114.709ZM71.6,142.361c-3.118-1.069-6.237-3.415-9.178-6.534-12.475-13.455-19.336-41.88-17.108-70.661v-.8c0-.268.089-.624.089-.891C47.985,35.761,58.857,13.9,71.6,9.712Zm8.911-.089V9.712c13.722,4.544,25.217,29.791,26.553,59.909,1.247,27.8-5.7,53.909-17.732,66.563C86.479,139.124,83.539,141.292,80.509,142.272Zm58.364-42.889c-9.98,21.029-24.059,33.979-40.365,39.771,11.94-15.059,18.712-41.91,17.464-69.889-1.069-23.7-7.752-44.137-17.464-56.434a68.011,68.011,0,0,1,32.078,24.534C143.24,55.186,146.18,77.73,138.874,99.383Z" transform="translate(-0.017 0)" fill="#96ebe6"/>
      <path id="Path_5236" data-name="Path 5236" d="M154.825,32.2A76.423,76.423,0,0,0,92.986,0V152.074c30.207,0,57.83-18.742,69.681-46.365L164,103.036C172.909,77.695,169.79,53.35,154.825,32.2ZM97.441,142.272V9.712c13.722,4.544,25.217,29.791,26.553,59.909,1.247,27.8-5.7,53.909-17.732,66.563C103.411,139.124,100.471,141.292,97.441,142.272Zm58.364-42.889c-9.98,21.029-24.059,33.979-40.365,39.771,11.94-15.059,18.712-41.91,17.464-69.889-1.069-23.7-7.752-44.137-17.465-56.434a68.011,68.011,0,0,1,32.078,24.534C160.171,55.186,163.112,77.73,155.806,99.383Z" transform="translate(-16.949 0)" fill="#00c8c8"/>
      <path id="Path_5237" data-name="Path 5237" d="M138.411,54.847H13.663A13.6,13.6,0,0,0,0,68.213v35.642a13.6,13.6,0,0,0,13.663,13.366H138.411a13.6,13.6,0,0,0,13.663-13.366V68.213A13.6,13.6,0,0,0,138.411,54.847Z" transform="translate(0 -9.997)" fill="#0053bf"/>
      <path id="Path_5238" data-name="Path 5238" d="M169.023,68.213v35.642a13.6,13.6,0,0,1-13.663,13.366H92.986V54.847H155.36A13.6,13.6,0,0,1,169.023,68.213Z" transform="translate(-16.949 -9.997)" fill="#05377f"/>
      <path id="Path_5239" data-name="Path 5239" d="M109.85,83.055l-8.911,17.821a4.469,4.469,0,0,1-8.02,0l-4.9-9.8-4.9,9.8c-1.515,3.03-6.505,3.03-8.02,0L66.188,83.055a4.463,4.463,0,0,1,8.02-3.921l4.9,9.8,4.9-9.8a4.628,4.628,0,0,1,8.02,0l4.9,9.8,4.9-9.8a4.463,4.463,0,0,1,8.02,3.921Z" transform="translate(-11.982 -13.968)" fill="#e1f1fa"/>
      <path id="Path_5240" data-name="Path 5240" d="M151.384,103.373a4.457,4.457,0,0,1-3.985-2.463l-4.925-9.85-4.925,9.85c-1.514,3.02-6.457,3.02-7.971,0l-8.536-17.077a4.407,4.407,0,0,1,3.054-7.166,4.9,4.9,0,0,1,4.542,2.436l4.925,9.85,4.925-9.85c1.514-3.02,6.457-3.02,7.971,0l4.925,9.85,4.925-9.85a4.456,4.456,0,0,1,7.971,3.985l-8.911,17.821A4.457,4.457,0,0,1,151.384,103.373Z" transform="translate(-21.884 -13.97)" fill="#bfe1ff"/>
      <path id="Path_5241" data-name="Path 5241" d="M51.645,76.65A4.661,4.661,0,0,0,47.372,79.1l-4.925,9.85L37.522,79.1a4.518,4.518,0,0,0-7.971,0l-4.925,9.85L19.7,79.1a4.456,4.456,0,1,0-7.971,3.985l8.911,17.821a4.456,4.456,0,0,0,7.971,0l4.925-9.85,4.925,9.85a4.456,4.456,0,0,0,7.971,0l8.393-16.786a4.506,4.506,0,0,0-3.18-7.475Z" transform="translate(-2.052 -13.97)" fill="#e1f1fa"/>
      <path id="Path_5242" data-name="Path 5242" d="M114.817,83.055l-8.911,17.821a4.469,4.469,0,0,1-8.02,0l-4.9-9.8V76.817A4.5,4.5,0,0,1,97,79.134l4.9,9.8,4.9-9.8a4.463,4.463,0,0,1,8.02,3.921Z" transform="translate(-16.949 -13.968)" fill="#bfe1ff"/>
    </g>
  </g>
</svg>
