<svg id="menu" xmlns="http://www.w3.org/2000/svg" width="46.813" height="33.809" viewBox="0 0 46.813 33.809">
  <path id="Path_5244" data-name="Path 5244" d="M44.862,126.569H1.951a1.951,1.951,0,1,1,0-3.9H44.862a1.951,1.951,0,1,1,0,3.9Zm0,0" transform="translate(0 -107.714)" fill="#fff"/>
  <path id="Path_5245" data-name="Path 5245" d="M44.862,3.9H1.951a1.951,1.951,0,0,1,0-3.9H44.862a1.951,1.951,0,0,1,0,3.9Zm0,0" transform="translate(0 0)" fill="#fff"/>
  <path id="Path_5246" data-name="Path 5246" d="M44.862,249.233H1.951a1.951,1.951,0,0,1,0-3.9H44.862a1.951,1.951,0,0,1,0,3.9Zm0,0" transform="translate(0 -215.424)" fill="#fff"/>
</svg>
