<svg xmlns="http://www.w3.org/2000/svg" xmlns:xlink="http://www.w3.org/1999/xlink" width="278" height="280" viewBox="0 0 278 280">
  <defs>
    <clipPath id="clip-path">
      <path id="Rectangle_161" data-name="Rectangle 161" d="M40,0H278a0,0,0,0,1,0,0V280a0,0,0,0,1,0,0H40A40,40,0,0,1,0,240V40A40,40,0,0,1,40,0Z" fill="#abd2ff"/>
    </clipPath>
  </defs>
  <g id="Mask_Group_6" data-name="Mask Group 6" clip-path="url(#clip-path)">
    <g id="Layer_2" data-name="Layer 2" transform="translate(26.994 48.01)">
      <g id="OBJECTS" transform="translate(0.267 -0.002)">
        <path id="Path_494" data-name="Path 494" d="M95.988,148.663,12.11,169.234C3.337,171.4-1.651,165.87.962,156.911L33.4,45.844C36,36.885,45.246,27.883,54.019,25.733L137.883,5.162C146.656,3,151.645,8.526,149.027,17.481L116.6,128.552C113.988,137.511,104.756,146.513,95.988,148.663Z" transform="translate(-0.267 -0.909)" fill="none" stroke="#0a58cf" stroke-miterlimit="10" stroke-width="0.538"/>
        <path id="Path_495" data-name="Path 495" d="M144.172,58.877l-23.15,5.678c-2.419.594-3.8-.932-3.073-3.4L126.9,30.5a8.8,8.8,0,0,1,5.691-5.552l23.15-5.678c2.419-.594,3.8.932,3.073,3.4l-8.968,30.652A8.731,8.731,0,0,1,144.172,58.877Z" transform="translate(-23.065 -3.713)" fill="#fff" opacity="0.1"/>
        <path id="Path_496" data-name="Path 496" d="M77.476,168.318,54.326,174c-2.419.594-3.8-.928-3.073-3.4l8.933-30.652a8.806,8.806,0,0,1,5.691-5.548l23.15-5.678c2.419-.594,3.8.928,3.077,3.4l-8.946,30.67A8.765,8.765,0,0,1,77.476,168.318Z" transform="translate(-10.123 -24.95)" fill="#fff" opacity="0.1"/>
        <path id="Path_497" data-name="Path 497" d="M65.735,151.129,42.586,156.8c-2.423.594-3.8-.928-3.077-3.4l8.955-30.657A8.79,8.79,0,0,1,54.15,117.2l23.15-5.678c2.423-.594,3.8.928,3.077,3.4l-8.955,30.652A8.8,8.8,0,0,1,65.735,151.129Z" transform="translate(-7.845 -21.614)" fill="#fff" opacity="0.1"/>
        <path id="Path_498" data-name="Path 498" d="M132.164,42.461l-14.178,3.467c-1.482.364-2.328-.568-1.885-2.08l5.483-18.776a5.388,5.388,0,0,1,3.467-3.4l14.178-3.467c1.482-.364,2.328.568,1.885,2.08l-5.483,18.772a5.388,5.388,0,0,1-3.467,3.4Z" transform="translate(-22.722 -3.516)" fill="#fff" opacity="0.24"/>
        <path id="Path_499" data-name="Path 499" d="M205.755,165.7l-14.178,3.467c-1.482.364-2.328-.568-1.885-2.08l5.483-18.776a5.388,5.388,0,0,1,3.467-3.4l14.178-3.467c1.482-.364,2.328.568,1.885,2.08L209.222,162.3A5.388,5.388,0,0,1,205.755,165.7Z" transform="translate(-37.001 -27.429)" fill="#fff" opacity="0.1"/>
        <path id="Path_500" data-name="Path 500" d="M214.929,173.629l-10.454,2.562c-1.092.269-1.734-.433-1.391-1.534l2.978-10.043a3.988,3.988,0,0,1,2.57-2.505l10.459-2.566c1.092-.269,1.712.433,1.387,1.539l-2.947,10.038a3.975,3.975,0,0,1-2.6,2.51Z" transform="translate(-39.605 -30.946)" fill="#fff" opacity="0.24"/>
        <path id="Path_501" data-name="Path 501" d="M228.968,14.363l-25.3,6.2c-1.508.368-2.367-.581-1.916-2.119l1.214-4.2a5.474,5.474,0,0,1,3.545-3.467l25.3-6.194c1.5-.368,2.362.581,1.929,2.119l-1.227,4.2a5.483,5.483,0,0,1-3.541,3.459Z" transform="translate(-39.34 -0.873)" fill="#fff" opacity="0.14"/>
        <path id="Path_502" data-name="Path 502" d="M226.514,9.856l-25.291,6.2c-1.508.373-2.367-.576-1.916-2.119l1.227-4.2a5.492,5.492,0,0,1,3.545-3.467L229.361.078c1.508-.368,2.367.581,1.916,2.119L230.05,6.4a5.474,5.474,0,0,1-3.537,3.459Z" transform="translate(-38.867 0.002)" fill="#fff" opacity="0.14"/>
        <circle id="Ellipse_44" data-name="Ellipse 44" cx="26.431" cy="26.431" r="26.431" transform="matrix(0.097, -0.995, 0.995, 0.097, 28.96, 61.522)" fill="#fb0"/>
        <path id="Path_503" data-name="Path 503" d="M176.623,210.266c.845,2.3,10.836-3.628,10.836-3.628l-2.947-6.168S174.989,205.823,176.623,210.266Z" transform="translate(-34.451 -38.899)" fill="#063985"/>
        <path id="Path_504" data-name="Path 504" d="M189.654,198.678a79.708,79.708,0,0,0,5.522,6.879c1.747,1.677,8.53,1.5,11.269.776s8.556-2.791,9.7-.867-8.734,8.018-10.879,9.457-4.308,3.2-6.393,4.469-3.246,4.867-5.83,2.141-2.813-8.643-3.923-9.674-9.007-8.435-9.007-8.435S187.439,198.488,189.654,198.678Z" transform="translate(-35.165 -38.55)" fill="#fb0"/>
        <path id="Path_505" data-name="Path 505" d="M201.365,220.84c2.085-1.266,4.252-3.034,6.393-4.469s12.015-7.529,10.879-9.458-6.965.143-9.7.867a23.254,23.254,0,0,1-9.614.03c-1.183,2.028-1.937,6.618-3.775,7.68a12.832,12.832,0,0,0-2.536,2,12.964,12.964,0,0,0,2.518,5.492C198.118,225.708,199.276,222.106,201.365,220.84Z" transform="translate(-37.669 -39.994)" fill="#fff"/>
        <path id="Path_506" data-name="Path 506" d="M159.861,177.373s-4.893,8.092-6.12,10.4a74.884,74.884,0,0,0-4.555,12.648c-.615,2.991.819,7.8-1.5,8.517s-4.009-5.661-4.282-10.489-1.9-7.069-2.167-9.449,3.333-3.676,5.305-4.217,5.73-11.3,5.73-11.3Z" transform="translate(-27.62 -33.663)" fill="#fb0"/>
        <path id="Path_507" data-name="Path 507" d="M143.278,201.185c.282,4.967,2.028,11.542,4.408,10.788s.91-5.682,1.539-8.76a67.531,67.531,0,0,1,2.744-8.469c-1.976-1.777-4.49-1.4-5.682-2.232-1.053-.741-1.023-3.233-.563-5.158-2.072.659-4.928,1.946-4.681,4.1C141.319,193.907,143,196.218,143.278,201.185Z" transform="translate(-27.581 -36.354)" fill="#fff"/>
        <path id="Path_508" data-name="Path 508" d="M111.2,103.508a7.953,7.953,0,0,1,4.443,4.716s22.937,2.947,34.54,3.875,23.3,4.1,19.938,18.065-16.037,38.619-16.037,38.619l-12.509-8.157s2.627-4.334,2.991-8.071a23.84,23.84,0,0,1,2.722-9.882c1.725-3.082,2.085-7.888,2.536-12.058l-35,1.994-24.658-18.72Z" transform="translate(-17.713 -20.084)" fill="#0a58cf"/>
        <line id="Line_22" data-name="Line 22" y1="0.563" x2="11.876" transform="translate(132.107 109.967)" fill="none" stroke="#063985" stroke-miterlimit="10" stroke-width="0.602"/>
        <line id="Line_23" data-name="Line 23" x2="6.87" y2="2.787" transform="translate(135.076 112.551)" fill="none" stroke="#063985" stroke-miterlimit="10" stroke-width="0.602"/>
        <path id="Path_509" data-name="Path 509" d="M168.138,150.682c-3.307-5.258-5.756-6.527-6.15-11.035h0c-.39,3.628-.867,7.446-2.323,10.038a23.8,23.8,0,0,0-2.722,9.882c-.364,3.714-2.991,8.07-2.991,8.07l12.509,8.157s3.142-6.1,6.714-13.961C171.367,158.627,170.4,154.275,168.138,150.682Z" transform="translate(-30.089 -27.096)" fill="#0848a8"/>
        <path id="Path_510" data-name="Path 510" d="M142.506,134.028c-2.141-1.118-5.1-2.293-6.857-3.129-2.718-1.3-4.768-3.741-8.976-5.032a46.275,46.275,0,0,1-12.782-5.509c-5.167-2.908-7.979-2.258-7.979-2.258l1.4,9.3,10.571,8.027Z" transform="translate(-20.767 -22.903)" fill="#0848a8"/>
        <path id="Path_511" data-name="Path 511" d="M77.32,119.794s-1.682,13.436,10.472,19.353c16.21,7.9,37.215,14.737,37.215,14.737a22.207,22.207,0,0,0,6.714,10.142c4.98,3.988,5.981,4.807,8.066,8.162s2.267,4.8,6.71,7.16,5.531,5.075,10.879,13.6c0,0-.182-3.81,13.436-10.155,0,0-21.034-30.1-27.306-37.171s-12.136-11.239-22.486-16.9-20.67-11.937-20.67-11.937l-3.008-5.513Z" transform="translate(-15.204 -21.589)" fill="#0a58cf"/>
        <path id="Path_512" data-name="Path 512" d="M85.664,130.144s2.9,5.171,15.777,10.792S130,152.267,130,152.267a101.918,101.918,0,0,0,9.336,11.252c4.278,4.161,6.619,9.427,13.146,14.958s11.321,10.541,11.824,12.435" transform="translate(-16.838 -25.252)" fill="none" stroke="#fff" stroke-miterlimit="10" stroke-width="0.602"/>
        <path id="Path_513" data-name="Path 513" d="M113.135,108.223a7.953,7.953,0,0,0-4.443-4.716L87.657,113.888l-10.337,4.4a16.036,16.036,0,0,0-.078,1.734l.811,1.3a43.014,43.014,0,0,0,10.4-1.981c5.847-1.833,8.279-5.409,15.916-5.795,4.1-.208,8.669.2,10.97-1.708a13.216,13.216,0,0,1,6.263-2.544C116.645,108.674,113.135,108.223,113.135,108.223Z" transform="translate(-15.204 -20.084)" fill="#0848a8"/>
        <path id="Path_514" data-name="Path 514" d="M112.165,84.5c4.334.906,9.7-6.857,9.566-12.83-.069-3.034-10.7.7-10.7.7S108.325,83.7,112.165,84.5Z" transform="translate(-21.581 -13.675)" fill="#819dc7"/>
        <path id="Path_515" data-name="Path 515" d="M123.137,52.7l6.389,1.088S149.9,36.518,151.331,35.018s4.334-4.486,5.981-5.258,7.165-2.128,8.478-2.536-.043.867-1,1.179-3.082,1.3-3.082,1.3a2.384,2.384,0,0,1,.325,1.734,3.6,3.6,0,0,1,0,1.994,1.734,1.734,0,0,1-.507,1.634c-.771.815-3.034,1.812-4.4,1.222,0,0-12.422,17.905-16.41,23.665s-9.111,10.329-19.041,9.462S107.767,67.9,107.767,67.9,117.424,52.338,123.137,52.7Z" transform="translate(-21.127 -5.266)" fill="#ff6363"/>
        <path id="Path_516" data-name="Path 516" d="M119.876,72.625c-2.106-4.118-1.11-10.147,1.227-12.049l-1.656-.048c-5.431,3.728-11.7,13.87-11.7,13.87-1.166-.338,4.183.667,10.086,1.248a2.08,2.08,0,0,0,2.046-3.021Z" transform="translate(-21.091 -11.744)" fill="#cc3737"/>
        <path id="Path_517" data-name="Path 517" d="M169.961,31.174c1.088-.2,2.6.035,2.891.646s.308,2.926,0,3.06-1.088-.919-1.088-2.167a2.6,2.6,0,0,1-2.9,1.76" transform="translate(-32.983 -6.034)" fill="none" stroke="#cc3737" stroke-linecap="round" stroke-linejoin="round" stroke-width="0.602"/>
        <path id="Path_518" data-name="Path 518" d="M50.3,63.946s18.768-5.266,25.3-7.394,12.509-1.43,15.864,0c1.179.5,2.085-.494,5.895.594s7.979-.724,11.061,1c0,0-5.635,2.9-9.882,12.136s-1.543,11.243-1.543,11.243l-5.531-.637a9.009,9.009,0,0,1,4.334,3.9c1.339,2.722,1.088,4.334,3.628,5.349s5.8,1.994,4.9,3.628S91.078,101.07,82.1,105.9s-14.867,7.537-16.5,6-1.088-2.752-2.9-6-8.084-13.675-8.084-13.675l-1.734,4.2a3.467,3.467,0,0,1-2.228,2.015c-2.293.676-6.64,1.491-10.714-.325-5.895-2.631-7.368-4.989-7.979-6.71-.585-1.582,2.167-1.452,2.54-3.9s.269-3.355,1.9-5.349A19.109,19.109,0,0,0,40.575,75C41.663,71.553,44.133,66.213,50.3,63.946Z" transform="translate(-6.402 -10.711)" fill="#fff"/>
        <circle id="Ellipse_45" data-name="Ellipse 45" cx="15.595" cy="15.595" r="15.595" transform="matrix(0.391, -0.92, 0.92, 0.391, 43.303, 117.648)" fill="#fb0"/>
        <path id="Path_519" data-name="Path 519" d="M68.626,87.3c1.3-5.778-2.921-5.574-3.875-2.921s-4.638,13.168-4.638,13.168,3.71,6.168,6.246,10.493C64.379,100.256,67.456,92.549,68.626,87.3Z" transform="translate(-11.88 -16.026)" fill="#ffd685"/>
        <path id="Path_520" data-name="Path 520" d="M96.156,68.358c3.467,2.921,2.817,11.269,7.8,14.537" transform="translate(-18.874 -13.263)" fill="none" stroke="#ffd685" stroke-miterlimit="10" stroke-width="0.602"/>
        <path id="Path_521" data-name="Path 521" d="M105.8,87.084l.1.048Z" transform="translate(-20.745 -16.897)" fill="#ffd685"/>
        <path id="Path_522" data-name="Path 522" d="M104.689,84.4l5.531.637s-1.183-.867-.763-4.118c-1.79-2.237-2.986-5.171-4.768-6.827l-.16-.143a2.666,2.666,0,0,0-4.334,2.752C101.1,79.713,102.18,82.769,104.689,84.4Z" transform="translate(-19.636 -14.216)" fill="#ffd685"/>
        <path id="Path_523" data-name="Path 523" d="M71.929,132.392c.763-.98,4.547-3.251,6.684-4.425" transform="translate(-14.173 -24.83)" fill="none" stroke="#fff" stroke-miterlimit="10" stroke-width="0.602"/>
        <path id="Path_524" data-name="Path 524" d="M72.063,139.156a1.092,1.092,0,0,1-.316-1.638c2.124-2.635,7.78-9.635,9-11.04,1.513-1.734,3.173-1.413,6.632-.667s4.2,1.829,3.858,2.83-2.245,1.378-4.287,1.508-3.034.607-4.824,2.843-6.267,8.3-6.267,8.3Z" transform="translate(-14.091 -24.295)" fill="#0a58cf"/>
        <path id="Path_525" data-name="Path 525" d="M91.2,130.536c-1.127.355-3.155,1.244-3.155,1.244l-5.019,5.154-1.695-.867,2.128-4.226a4.928,4.928,0,0,1,3.823-2.674l2.423-.282C91.693,128.651,92.668,130.077,91.2,130.536Z" transform="translate(-15.997 -25.003)" fill="#0c2c5e"/>
        <path id="Path_526" data-name="Path 526" d="M49.952,105.157,45.666,115.43s18.291,12.106,20.467,12.24,5.1-1.565,8.43-1.361,3.537,1.7,2.6,1.768-3-.065-3.467,0c0,0,1.972.139,1.7,1.361s-2.791,3.741-4.148,3.806-2.245-.134-3.671,0-2.856-.2-3.129-1.56c0,0-15.981-2.315-26.041-5.509s-9.791-10.064-8.162-15.569,3.264-10.949,3.264-10.949Z" transform="translate(-5.919 -19.336)" fill="#ff6363"/>
        <path id="Path_527" data-name="Path 527" d="M40.316,110.874c2.735-.568,5.4-.633,8.066-1.569l1.734-4.144-16.47-5.5s-1.63,5.44-3.264,10.949l-.169.594C33.572,113.453,37.356,111.494,40.316,110.874Z" transform="translate(-6.078 -19.336)" fill="#cc3737"/>
        <line id="Line_24" data-name="Line 24" x1="3.966" y1="2.289" transform="translate(35.781 93.805)" fill="none" stroke="#cc3737" stroke-miterlimit="10" stroke-width="0.602"/>
        <path id="Path_528" data-name="Path 528" d="M57.953,140.726a2.771,2.771,0,0,1-2.475-4.174c1.335-2.956,5.843-6.033,9.657-6.579,4.993-.724,9.007-1.517,11.924-2.882l.412-.485a4.17,4.17,0,0,1,.8-.72c-2.9,1.829-7.368,2.765-13.2,3.606-3.953.568-8.638,3.775-10.025,6.861a3.335,3.335,0,0,0,.056,3.316,3.385,3.385,0,0,0,2.839,1.543h.139c2.492,0,5.83-2.037,8.123-4.932l-.546-.091C63.415,138.918,60.242,140.8,57.953,140.726Z" transform="translate(-10.816 -24.426)" fill="#fff"/>
        <path id="Path_529" data-name="Path 529" d="M53.132,103.4,34.685,93.865c-.048.342-.1.715-.156,1.136-.364,2.449-3.125,2.319-2.54,3.9.633,1.734,2.085,4.079,7.979,6.71,4.074,1.816,8.422,1,10.714.325a3.467,3.467,0,0,0,2.228-2.015Z" transform="translate(-6.407 -18.213)" fill="#fff"/>
        <path id="Path_530" data-name="Path 530" d="M64.654,32.981a3.923,3.923,0,0,0,2.518-.637,20.358,20.358,0,0,1,2.735-1.929c2.041-1.088,3.467.472,5.713-.342a3.391,3.391,0,0,1,4.768,2.6c.433,2.328-2.241,3.671-4.282,3.9s-1.911,1.456-4.7,1.716-4.334-.407-5.171,0c0,0,.139,8.638-2.514,9.995a21.433,21.433,0,0,0-1.565-4.334,11.182,11.182,0,0,1-1.734-5.635C60.29,35.933,62.249,32.843,64.654,32.981Z" transform="translate(-11.939 -5.782)" fill="#020914"/>
        <path id="Path_531" data-name="Path 531" d="M74.363,37.93a22.417,22.417,0,0,0,.5,6.12c.724,2.765,1.959,8.768-2.119,8.95l.611,2.6s7.13,5.791,5.817,7.8-7.3-4.668-13.918-5.392l-1.573-8.14s-3.316,1-3.537-1.56c-.251-2.9,2.765-3.129,4.261-1.677a34.291,34.291,0,0,0,.546-7.256,8.3,8.3,0,0,1,4.035-.269C70.918,39.56,73.41,38.927,74.363,37.93Z" transform="translate(-11.883 -7.359)" fill="#ff6363"/>
        <path id="Path_532" data-name="Path 532" d="M74.144,56.1c-1.734.173-4.607-.1-6.354-2.141a.26.26,0,0,0-.433.243c.78,2.648,2.362,4.768,7.416,4.516Z" transform="translate(-13.285 -10.454)" fill="#cc3737"/>
        <path id="Path_533" data-name="Path 533" d="M66.319,43.711l-3.177,2.345,1.019,1.916a3.316,3.316,0,0,1,3.316.134Z" transform="translate(-12.468 -8.481)" fill="#0a58cf"/>
        <path id="Path_534" data-name="Path 534" d="M77.379,46.441,68.8,47.68a1.439,1.439,0,0,1-1.634-1.218l-.329-2.271a1.443,1.443,0,0,1,1.222-1.634l8.578-1.24a2.6,2.6,0,0,1,2.934,2.193h0A2.6,2.6,0,0,1,77.379,46.441Z" transform="translate(-13.182 -8.011)" fill="#0c2c5e"/>
        <rect id="Rectangle_178" data-name="Rectangle 178" width="10.476" height="5.175" rx="2.576" transform="translate(55.65 34.431) rotate(-8.23)" fill="#0a58cf"/>
        <path id="Path_535" data-name="Path 535" d="M78.379,44.649l-4.646.672a.342.342,0,0,1-.39-.29h0a.342.342,0,0,1,.29-.39l4.646-.672a.347.347,0,0,1,.39.29h0a.347.347,0,0,1-.29.39Z" transform="translate(-14.446 -8.53)" fill="#fb0"/>
        <path id="Path_536" data-name="Path 536" d="M64.91,33.728a3.069,3.069,0,0,0-.529.026c-2.167,2.046-3.433,5.843-2.1,10.563l.932-.26c-1.114-3.931-.282-8.669,2.921-10.4A4.469,4.469,0,0,1,64.91,33.728Z" transform="translate(-12.195 -6.529)" fill="#0c2c5e"/>
        <path id="Path_537" data-name="Path 537" d="M62.628,44.787a4,4,0,0,0-1.573.867l.078.611a5.721,5.721,0,0,0-.221,2.973,6.068,6.068,0,0,0,.91,2.371l.13.993s1.92.282,2.041.264c1.3-.225,2.093-2.211,1.734-4.438S63.955,44.562,62.628,44.787Z" transform="translate(-12.015 -8.685)" fill="#0c2c5e"/>
        <path id="Path_538" data-name="Path 538" d="M63.647,48.9c.325,1.916-.49,3.645-1.812,3.871s-2.666-1.144-2.986-3.034.485-3.649,1.812-3.871S63.322,46.99,63.647,48.9Z" transform="translate(-11.621 -8.894)" fill="#0a58cf"/>
        <path id="Path_539" data-name="Path 539" d="M62.119,50.44l-1.608.269a.433.433,0,0,1-.49-.347h0a.433.433,0,0,1,.347-.49l1.608-.273a.433.433,0,0,1,.49.351h0a.433.433,0,0,1-.347.49Z" transform="translate(-11.861 -9.622)" fill="#fb0"/>
        <path id="Path_540" data-name="Path 540" d="M94.092,112.471c8.976-4.824,21.3-10.5,22.213-12.136s-2.358-2.631-4.9-3.628-2.267-2.631-3.628-5.349a7.546,7.546,0,0,0-1.859-2.328c1.859,2.328-.282,8.716-4.971,13.844-3.832,4.187-6.345,7.607-7.368,9.861Z" transform="translate(-18.374 -17.274)" fill="#ffd685"/>
        <path id="Path_541" data-name="Path 541" d="M205.922,71.446,215.778,37.7c.611-2.1-.555-3.389-2.6-2.882l-36.452,8.937a7.444,7.444,0,0,0-4.828,4.707l-9.852,33.747Z" transform="translate(-31.66 -6.733)" fill="#fff" opacity="0.39"/>
        <path id="Path_542" data-name="Path 542" d="M160.5,91.054l-6.254,21.412c-.615,2.1.555,3.389,2.6,2.882L193.3,106.41a7.437,7.437,0,0,0,4.824-4.707l6.254-21.412Z" transform="translate(-30.114 -15.579)" fill="#fff"/>
        <path id="Path_543" data-name="Path 543" d="M191.57,49.658l10.988-2.692c.559-.139.373.746-.208,1l-9.1,3.957Z" transform="translate(-37.389 -9.109)" fill="#0a58cf"/>
        <path id="Path_544" data-name="Path 544" d="M182.7,79.767l10.992-2.7c.559-.139.9-1.062.386-1.045l-8.031.247Z" transform="translate(-35.668 -14.751)" fill="#0a58cf"/>
        <path id="Path_545" data-name="Path 545" d="M189.385,56.649,184.7,57.8c-.5.121-.78-.238-.615-.806h0a1.95,1.95,0,0,1,1.218-1.253l4.681-1.149c.5-.121.78.238.615.806h0A1.95,1.95,0,0,1,189.385,56.649Z" transform="translate(-35.928 -10.587)" fill="#fb0"/>
        <path id="Path_546" data-name="Path 546" d="M190.477,60.958,185.8,62.106c-.5.126-.78-.234-.615-.8h0a1.929,1.929,0,0,1,1.218-1.253l4.694-1.149c.507-.126.785.234.615.8h0a1.924,1.924,0,0,1-1.231,1.253Z" transform="translate(-36.139 -11.424)" fill="#fb0"/>
        <path id="Path_547" data-name="Path 547" d="M184.54,73.24l-4.685,1.149a1.933,1.933,0,0,0-1.214,1.253h0c-.165.568.108.928.615.8l4.677-1.149a1.929,1.929,0,0,0,1.218-1.253h0C185.32,73.475,185.056,73.115,184.54,73.24Z" transform="translate(-34.87 -14.206)" fill="#fb0"/>
        <path id="Path_548" data-name="Path 548" d="M188.51,67.691l-4.677,1.144a1.937,1.937,0,0,0-1.218,1.253h0c-.165.568.108.928.615.806l4.681-1.149a1.942,1.942,0,0,0,1.214-1.253h0C189.295,67.925,189.017,67.565,188.51,67.691Z" transform="translate(-35.642 -13.129)" fill="#fb0"/>
        <path id="Path_549" data-name="Path 549" d="M205.961,56.366,188.19,48.083a.485.485,0,0,0-.689.433l.087,7.256A26.254,26.254,0,0,1,183.9,68.39l-4.087,7.368a.485.485,0,0,0,.711.624L206.1,57.554a.706.706,0,0,0-.139-1.188Z" transform="translate(-35.097 -9.32)" fill="#0a58cf"/>
        <path id="Path_550" data-name="Path 550" d="M204.144,60.089a7.681,7.681,0,0,1-4.811,4.954c-2,.49-3.09-.932-2.436-3.177a7.662,7.662,0,0,1,4.811-4.954C203.711,56.422,204.8,57.835,204.144,60.089Z" transform="translate(-38.385 -11.023)" fill="#fff"/>
        <path id="Path_551" data-name="Path 551" d="M198.134,89.193l-30.293,7.429c-.481.117-.746-.225-.585-.767h0a1.851,1.851,0,0,1,1.157-1.2l30.293-7.425c.481-.121.746.221.585.763h0a1.842,1.842,0,0,1-1.157,1.2Z" transform="translate(-32.661 -16.921)" fill="#fb0"/>
        <path id="Path_552" data-name="Path 552" d="M184.117,91.676l-15.7,3.849a1.851,1.851,0,0,0-1.157,1.2c-.16.542.1.867.585.767l15.7-3.849Z" transform="translate(-32.661 -17.788)" fill="#12b849"/>
        <path id="Path_553" data-name="Path 553" d="M189.764,91.866a3.467,3.467,0,0,1-2.167,2.228c-.9.221-1.391-.433-1.1-1.426a3.467,3.467,0,0,1,2.167-2.228C189.568,90.219,190.041,90.86,189.764,91.866Z" transform="translate(-36.388 -17.539)" fill="#0a58cf"/>
        <path id="Path_554" data-name="Path 554" d="M195.663,97.522l-30.189,7.407c-.507.126-.793-.2-.641-.711l.026-.091a1.851,1.851,0,0,1,1.188-1.162l30.2-7.407c.507-.121.8.2.646.711l-.026.091a1.851,1.851,0,0,1-1.2,1.162Z" transform="translate(-32.192 -18.536)" fill="#fb0"/>
        <path id="Path_555" data-name="Path 555" d="M190.862,97.2l-24.875,6.1a1.838,1.838,0,0,0-1.162,1.2c-.16.542.1.867.585.763l24.879-6.1Z" transform="translate(-32.19 -18.86)" fill="#12b849"/>
        <path id="Path_556" data-name="Path 556" d="M198,97.566a3.467,3.467,0,0,1-2.167,2.228c-.9.221-1.387-.433-1.092-1.426a3.467,3.467,0,0,1,2.167-2.228C197.808,95.919,198.3,96.561,198,97.566Z" transform="translate(-37.988 -18.646)" fill="#0a58cf"/>
        <path id="Path_557" data-name="Path 557" d="M193.273,105.826l-30.288,7.429c-.485.117-.745-.225-.589-.767h0a1.868,1.868,0,0,1,1.162-1.2l30.293-7.429c.481-.117.745.225.585.767h0A1.838,1.838,0,0,1,193.273,105.826Z" transform="translate(-31.719 -20.148)" fill="#fb0"/>
        <path id="Path_558" data-name="Path 558" d="M190.691,104.831l-27.133,6.653a1.868,1.868,0,0,0-1.157,1.179c-.156.542.1.867.589.767l27.15-6.636Z" transform="translate(-31.72 -20.34)" fill="#12b849"/>
        <path id="Path_559" data-name="Path 559" d="M197.595,105.39a3.467,3.467,0,0,1-2.167,2.224c-.9.221-1.387-.433-1.092-1.426a3.467,3.467,0,0,1,2.167-2.228C197.4,103.739,197.889,104.38,197.595,105.39Z" transform="translate(-37.908 -20.163)" fill="#0a58cf"/>
        <path id="Path_560" data-name="Path 560" d="M240.254,91.574l-23.1,5.661c-2.471.607-3.875-.945-3.138-3.467l9.874-33.808a8.975,8.975,0,0,1,5.8-5.665l23.1-5.656c2.466-.607,3.871.945,3.134,3.467l-9.869,33.808A8.988,8.988,0,0,1,240.254,91.574Z" transform="translate(-41.706 -9.411)" fill="#0a58cf"/>
        <ellipse id="Ellipse_46" data-name="Ellipse 46" cx="6.562" cy="3.723" rx="6.562" ry="3.723" transform="matrix(0.644, -0.765, 0.765, 0.644, 188.511, 56.291)" fill="none" stroke="#fff" stroke-miterlimit="10" stroke-width="0.683"/>
        <path id="Path_561" data-name="Path 561" d="M241.042,71.566c-6.194,1.066-9.687,9.206-15.422,9.752a19.076,19.076,0,0,0-8.066,3.077l-3.467,11.863c-.772,2.644.511,4.334,2.865,3.741l23.509-5.765c2.358-.576,4.889-3.19,5.661-5.834l7.572-25.915C249.711,65.636,245.645,70.781,241.042,71.566Z" transform="translate(-41.714 -12.124)" fill="#12b849"/>
        <path id="Path_562" data-name="Path 562" d="M246.056,77.253l-10.7,14.16-12.318,1.851" transform="translate(-43.494 -14.989)" fill="none" stroke="#fff" stroke-miterlimit="10" stroke-width="0.495"/>
        <path id="Path_563" data-name="Path 563" d="M249.224,37.942a12.148,12.148,0,0,0-8.1,8.417c-.928,3.177-.325,5.08.576,7.68.55,1.582.533,4.941.468,6.861,0,.4.52.269.754-.186a64.918,64.918,0,0,1,4.854-8.166c2.674-3.467,4.568-5.99,5.5-9.167C254.746,38.336,251.894,37.287,249.224,37.942Zm-2.852,9.765c-1.448.355-2.241-.676-1.764-2.3a5.571,5.571,0,0,1,3.467-3.589c1.435-.355,2.241.676,1.764,2.3a5.561,5.561,0,0,1-3.467,3.589Z" transform="translate(-46.914 -7.327)" fill="#ff6363"/>
        <path id="Path_564" data-name="Path 564" d="M253.348,76.033a4.987,4.987,0,0,1-3.116,3.207c-1.3.316-2-.6-1.573-2.059a4.952,4.952,0,0,1,3.112-3.207C253.067,73.657,253.773,74.589,253.348,76.033Z" transform="translate(-48.442 -14.341)" fill="#fff"/>
        <path id="Path_565" data-name="Path 565" d="M240.07,93.6a4.994,4.994,0,0,1-3.116,3.212c-1.3.321-2-.607-1.573-2.059a4.962,4.962,0,0,1,3.112-3.207C239.789,91.232,240.5,92.147,240.07,93.6Z" transform="translate(-45.866 -17.751)" fill="#fff"/>
        <path id="Path_566" data-name="Path 566" d="M224.786,95.893a4.994,4.994,0,0,1-3.116,3.212c-1.3.321-2-.607-1.578-2.059a4.984,4.984,0,0,1,3.116-3.212C224.5,93.513,225.21,94.441,224.786,95.893Z" transform="translate(-42.899 -18.194)" fill="#fff"/>
        <path id="Path_567" data-name="Path 567" d="M194.417,24.158c-1.253,4.287-5.366,8.526-9.189,9.462s-5.9-1.781-4.646-6.068,5.362-8.526,9.184-9.462S195.669,19.867,194.417,24.158Z" transform="translate(-35.185 -3.473)" fill="#fb0"/>
        <path id="Path_568" data-name="Path 568" d="M187.783,29.9c-1.391.342-2.167-.65-1.7-2.219a5.411,5.411,0,0,1,3.359-3.467c1.4-.351,2.167.654,1.7,2.219A5.4,5.4,0,0,1,187.783,29.9Zm1.413-4.846a3.806,3.806,0,0,0-2.38,2.453c-.325,1.11.217,1.812,1.2,1.573a3.805,3.805,0,0,0,2.362-2.458C190.726,25.516,190.184,24.81,189.2,25.057Z" transform="translate(-36.298 -4.684)" fill="#fff"/>
        <path id="Path_569" data-name="Path 569" d="M187.809,31.282l-.767.186,2.8-9.562.763-.191Z" transform="translate(-36.51 -4.212)" fill="#fff"/>
        <path id="Path_570" data-name="Path 570" d="M183.81,28.885l.251-.858,8.517-2.089-.251.858Z" transform="translate(-35.883 -5.032)" fill="#fff"/>
        <path id="Path_571" data-name="Path 571" d="M228.294,24.482l-27.2,6.671c-.984.243-1.517-.433-1.2-1.556h0a3.758,3.758,0,0,1,2.358-2.432l27.224-6.671c.98-.243,1.513.459,1.192,1.56h0a3.753,3.753,0,0,1-2.38,2.427Z" transform="translate(-38.987 -3.966)" fill="#12b849"/>
        <path id="Path_572" data-name="Path 572" d="M251.188,18.624a3.754,3.754,0,0,1-2.358,2.427c-.98.243-1.517-.455-1.192-1.556a3.758,3.758,0,0,1,2.375-2.432C250.976,16.825,251.513,17.523,251.188,18.624Z" transform="translate(-48.25 -3.301)" fill="#0a58cf"/>
        <path id="Path_573" data-name="Path 573" d="M259.776,16.513a3.771,3.771,0,0,1-2.358,2.414c-.98.238-1.517-.459-1.2-1.56a3.775,3.775,0,0,1,2.362-2.432C259.564,14.714,260.1,15.412,259.776,16.513Z" transform="translate(-49.916 -2.889)" fill="#0a58cf"/>
        <path id="Path_574" data-name="Path 574" d="M268.365,14.408a3.749,3.749,0,0,1-2.358,2.432c-.984.243-1.517-.433-1.2-1.556a3.749,3.749,0,0,1,2.358-2.432C268.152,12.61,268.685,13.32,268.365,14.408Z" transform="translate(-51.582 -2.483)" fill="#0a58cf"/>
        <path id="Path_575" data-name="Path 575" d="M276.953,12.3a3.771,3.771,0,0,1-2.358,2.432c-.984.238-1.517-.459-1.2-1.56a3.771,3.771,0,0,1,2.358-2.432C276.741,10.506,277.274,11.2,276.953,12.3Z" transform="translate(-53.249 -2.074)" fill="#0a58cf"/>
        <path id="Path_576" data-name="Path 576" d="M134.613,123.729l-22.721,5.57c-2.375.585-3.728-.91-3.034-3.337l8.79-30.085a8.631,8.631,0,0,1,5.583-5.448l22.721-5.57c2.375-.585,3.728.91,3.034,3.337l-8.79,30.1A8.654,8.654,0,0,1,134.613,123.729Z" transform="translate(-21.304 -16.44)" fill="#fff" opacity="0.39"/>
        <ellipse id="Ellipse_47" data-name="Ellipse 47" cx="7.416" cy="4.209" rx="7.416" ry="4.209" transform="matrix(0.644, -0.765, 0.765, 0.644, 94.615, 90.224)" fill="#fff"/>
        <path id="Path_577" data-name="Path 577" d="M128.733,102.982a1.9,1.9,0,0,0-1.508,1.448,12.209,12.209,0,0,0-.074,2.072l.6-.147.6-.147a26.443,26.443,0,0,0,1.218-2.349C129.825,103.164,129.6,102.756,128.733,102.982Z" transform="translate(-24.885 -19.97)" fill="#020914"/>
        <path id="Path_578" data-name="Path 578" d="M120.625,112.622c.433,1.539,1.825,2.3,3.81,1.816a10.67,10.67,0,0,0,5.544-4.109,6.938,6.938,0,0,0-.113-.993c-.269-1.222-1.335-.889-2.037-.845l-1.894.811-1.673.065a4.993,4.993,0,0,0-2.887,2.054C121.146,111.755,120.886,112.171,120.625,112.622Z" transform="translate(-23.622 -21.036)" fill="#fb0"/>
        <path id="Path_579" data-name="Path 579" d="M127.838,107.617l.234-1.339-.537.13-.537.134-.568,1.417a1.435,1.435,0,0,1-.715.754l-.576.238c.035.5.685.8,1.478.6a3.845,3.845,0,0,0,2.089-1.478l-.516.03C127.924,108.124,127.781,107.924,127.838,107.617Z" transform="translate(-24.498 -20.621)" fill="#ff6363"/>
        <path id="Path_580" data-name="Path 580" d="M128.27,107.266l.173-.988-.537.13-.537.134-.316.793c.039.308.191.559.516.481A1.487,1.487,0,0,0,128.27,107.266Z" transform="translate(-24.869 -20.621)" fill="#cc3737"/>
        <path id="Path_581" data-name="Path 581" d="M129.313,104.9c-.061-.134-.433.134-.433.134l.143-.65-.728.178-.728.178-.243.676a.433.433,0,0,0-.433.082c-.26.312-.2.867.178.628-.1.433,0,1.062.494.941s1.006-.9,1.166-1.348C129,105.789,129.413,105.125,129.313,104.9Z" transform="translate(-24.807 -20.254)" fill="#ff6363"/>
        <ellipse id="Ellipse_48" data-name="Ellipse 48" cx="7.416" cy="4.209" rx="7.416" ry="4.209" transform="matrix(0.644, -0.765, 0.765, 0.644, 107.548, 87.056)" fill="#fff"/>
        <path id="Path_582" data-name="Path 582" d="M145.15,101.962a2.284,2.284,0,0,0,.269-1.162,2.436,2.436,0,0,1-.043-.962c.087-.611-.173-1-.962-.806a2.406,2.406,0,0,0-1.621,1.443,6.449,6.449,0,0,1-.654,1.131,2.731,2.731,0,0,0-.433,1.2,2.5,2.5,0,0,1-.433.954l1.9-.464,1.9-.468a1.3,1.3,0,0,1,.078-.863Z" transform="translate(-27.628 -19.205)" fill="#063985"/>
        <path id="Path_583" data-name="Path 583" d="M144.116,104.125c-.191.03-.3-.1-.256-.316l.247-1.253-.529.13-.529.13-.5,1.3a.867.867,0,0,1-.494.5l-.615.234a1.838,1.838,0,0,0,1.105,1.4,9.046,9.046,0,0,0,2.167-2.206Z" transform="translate(-27.661 -19.899)" fill="#ff6363"/>
        <path id="Path_584" data-name="Path 584" d="M144.162,103.774l.238-1.218-.529.13-.529.13-.4,1.049C143.082,104.173,143.42,104.528,144.162,103.774Z" transform="translate(-27.953 -19.899)" fill="#cc3737"/>
        <path id="Path_585" data-name="Path 585" d="M145.648,106.6c.139-1.179-.3-2.059-1.231-2.232a1.434,1.434,0,0,0-.607,0l-1.959,1.5-1.3-.672a2.7,2.7,0,0,0-.689.3,7.425,7.425,0,0,0-2.826,3.229l-.169.377c.563,1.244,1.864,1.825,3.654,1.383a10.264,10.264,0,0,0,5.084-3.528Z" transform="translate(-26.774 -20.245)" fill="#063985"/>
        <path id="Path_586" data-name="Path 586" d="M145.355,100.965c-.061-.13-.433.139-.433.139-.351-.1-.308-.715-.308-.715a5.3,5.3,0,0,1-1.248,1.1s-.282-.1-.433.078c-.26.312-.2.867.178.628-.1.433,0,1.062.494.945s1.006-.9,1.166-1.352C145.043,101.832,145.455,101.177,145.355,100.965Z" transform="translate(-27.92 -19.478)" fill="#ff6363"/>
        <path id="Path_587" data-name="Path 587" d="M126.364,123.494c-.993,3.394-4.243,6.744-7.269,7.485s-4.668-1.409-3.68-4.8,4.248-6.744,7.269-7.485S127.373,120.092,126.364,123.494Z" transform="translate(-22.555 -23.002)" fill="#fff"/>
        <path id="Path_588" data-name="Path 588" d="M124.15,128.061c.117-.537-.091-.91-.524-.932l-1.469-.074-.056-.7-1.071.039-1.209.52-.507.841-1.734.867a2.6,2.6,0,0,0-1.192,1.348l-.559,1.552a3,3,0,0,0,3.428.98,9.844,9.844,0,0,0,4.573-2.939Z" transform="translate(-22.691 -24.517)" fill="#063985"/>
        <path id="Path_589" data-name="Path 589" d="M120.654,129.5l-.485-1.357.186-.069.368,1.019.633-.815.221.6,1.127-1.452.156.126-1.348,1.738-.221-.607Z" transform="translate(-23.533 -24.725)" fill="#0a58cf"/>
        <path id="Path_590" data-name="Path 590" d="M119.953,133.143h.1l.1-.03,1.023-3.506-.2.048Z" transform="translate(-23.492 -25.148)" fill="#0a58cf"/>
        <path id="Path_591" data-name="Path 591" d="M124.316,121.449c.295-.368.074-.776-.338-.464-.048-.433-.572.056-.572.056s-.286-.3-.62.238c-.282-.143-.793.433-.685.711-.316.048-.524.607-.269.628-.052.321-.191.993-.191.993l.949.23,1.235-.767s.264-.7.407-1.045C124.542,121.874,124.654,121.337,124.316,121.449Z" transform="translate(-23.819 -23.44)" fill="#063985"/>
        <path id="Path_592" data-name="Path 592" d="M122.513,126.694l-.906.824-.524-.472.858-2.414,1.1-.273Z" transform="translate(-23.711 -24.129)" fill="#ff6363"/>
        <path id="Path_593" data-name="Path 593" d="M122.736,126.086l.39-1.734-1.1.269-.507,1.43C121.7,126.476,122.168,126.506,122.736,126.086Z" transform="translate(-23.795 -24.128)" fill="#cc3737"/>
        <path id="Path_594" data-name="Path 594" d="M124.027,122.986c-.056-.134-.433.134-.433.134l.143-.65-.728.178-.728.178-.243.676s-.286-.1-.433.082c-.26.312-.2.867.178.628-.1.433,0,1.062.494.941s1.006-.9,1.166-1.348C123.715,123.887,124.122,123.211,124.027,122.986Z" transform="translate(-23.781 -23.763)" fill="#ff6363"/>
        <path id="Path_595" data-name="Path 595" d="M142.428,119.558c-.993,3.394-4.243,6.744-7.269,7.485s-4.668-1.409-3.676-4.8,4.243-6.749,7.264-7.49S143.42,116.164,142.428,119.558Z" transform="translate(-25.673 -22.238)" fill="#fff"/>
        <path id="Path_596" data-name="Path 596" d="M139.749,120.889c.043-.433.147-.685.173-1.019s-.13-.546-.022-.949.182-.737.022-.915-.13-.988-1.049-.763-1.4,1.149-1.695,1.435a2.306,2.306,0,0,0-.546,1.045,8.136,8.136,0,0,1-.624,1.105c-.182.377-.221.611-.433,1.088s-.763,1.461-.763,1.461l2.458-.607,2.462-.6S139.719,121.323,139.749,120.889Z" transform="translate(-26.375 -22.742)" fill="#ffd685"/>
        <path id="Path_597" data-name="Path 597" d="M140.111,122.1a9.328,9.328,0,0,0-1.812.1c-.2.026-.312-.117-.273-.342l.221-1.266-.5.121-.494.121-.546,1.344a.984.984,0,0,1-.529.542,16.15,16.15,0,0,0-2.028.841,2.522,2.522,0,0,0-.893.945,10.537,10.537,0,0,0,3.493-.381,17.255,17.255,0,0,0,3.8-1.4S140.574,122.18,140.111,122.1Z" transform="translate(-26.073 -23.399)" fill="#ff6363"/>
        <path id="Path_598" data-name="Path 598" d="M138.9,121.787l.212-1.2-.5.121-.494.121-.39.962C137.888,122.364,138.348,122.377,138.9,121.787Z" transform="translate(-26.942 -23.397)" fill="#cc3737"/>
        <path id="Path_599" data-name="Path 599" d="M140.741,124.516a2.6,2.6,0,0,1-.139-1.352c.1-.433-.121-.516-.789-.251s-3.311,1.257-3.311,1.257-2.436.256-3.034.3a1.04,1.04,0,0,0-1.062.706,7.19,7.19,0,0,1-1.014,1.634c.433,1.539,1.829,2.306,3.81,1.816A10.585,10.585,0,0,0,140.741,124.516Z" transform="translate(-25.711 -23.82)" fill="#fb0"/>
        <path id="Path_600" data-name="Path 600" d="M140.071,119.035c-.061-.13-.433.139-.433.139-.351-.1-.308-.715-.308-.715a5.3,5.3,0,0,1-1.261,1.1s-.282-.1-.433.078c-.26.312-.2.867.178.628-.1.433,0,1.062.494.945s1.006-.9,1.166-1.352C139.755,119.928,140.171,119.26,140.071,119.035Z" transform="translate(-26.892 -22.985)" fill="#ff6363"/>
        <path id="Path_601" data-name="Path 601" d="M145.18,88.02l-15.17,3.719c-1.409.347-2.206-.542-1.786-1.981l.074-.251a5.11,5.11,0,0,1,3.311-3.229l15.17-3.723c1.409-.342,2.211.542,1.79,1.981l-.074.251A5.128,5.128,0,0,1,145.18,88.02Z" transform="translate(-25.075 -16.003)" fill="#12b849"/>
        <path id="Path_602" data-name="Path 602" d="M229.471,16.23l-25.291,6.2c-1.508.368-2.367-.581-1.916-2.119l1.231-4.2a5.492,5.492,0,0,1,3.545-3.467l25.286-6.211c1.508-.368,2.367.581,1.916,2.119l-1.227,4.2a5.483,5.483,0,0,1-3.545,3.476Z" transform="translate(-39.44 -1.232)" fill="none" stroke="#fff" stroke-miterlimit="10" stroke-width="0.495"/>
        <path id="Path_603" data-name="Path 603" d="M210.723,18.194a2.6,2.6,0,0,1-1.89,1.734l-.472.117-.26.9-1.1.269,1.071-3.663,1.569-.36C210.545,16.954,210.97,17.344,210.723,18.194Zm-1.11.273c.078-.269-.022-.394-.321-.321l-.4.1-.251.867.4-.1a.754.754,0,0,0,.572-.546Z" transform="translate(-40.382 -3.321)" fill="#fff"/>
        <path id="Path_604" data-name="Path 604" d="M213.464,16.279l1.1-.269-.789,2.7,1.474-.364-.282.958-2.57.633Z" transform="translate(-41.429 -3.105)" fill="#fff"/>
        <path id="Path_605" data-name="Path 605" d="M219.5,17.523l-1.24.3-.4.689-1.118.277,2.492-4.009,1.079-.269.36,3.311-1.14.282Zm-.043-.815-.048-.845-.585,1Z" transform="translate(-42.272 -2.815)" fill="#fff"/>
        <path id="Path_606" data-name="Path 606" d="M225.221,15.493l-.386,1.3-1.1.269.394-1.344-.555-2.015,1.157-.286.3,1.105,1.04-1.43,1.062-.26Z" transform="translate(-43.599 -2.489)" fill="#fff"/>
        <path id="Path_607" data-name="Path 607" d="M236.035,11.776,233,10.267a.4.4,0,0,0-.563.247l-1.413,4.846a.4.4,0,0,0,.624.433l4.447-3.342a.4.4,0,0,0-.061-.676Z" transform="translate(-45.042 -1.983)" fill="#fff"/>
        <path id="Path_608" data-name="Path 608" d="M232.746,113.9l-30.293,7.429c-.481.121-.745-.225-.585-.763h0a1.842,1.842,0,0,1,1.157-1.2l30.314-7.429c.481-.117.745.225.585.767h0A1.838,1.838,0,0,1,232.746,113.9Z" transform="translate(-39.378 -21.717)" fill="#0a58cf"/>
        <path id="Path_609" data-name="Path 609" d="M218.729,116.388l-15.7,3.853a1.842,1.842,0,0,0-1.157,1.2c-.16.537.1.867.585.763l15.716-3.827Z" transform="translate(-39.378 -22.583)" fill="#7daefa"/>
        <path id="Path_610" data-name="Path 610" d="M224.375,116.582a3.441,3.441,0,0,1-2.167,2.224c-.9.221-1.391-.433-1.1-1.426a3.467,3.467,0,0,1,2.167-2.228C224.18,114.935,224.67,115.572,224.375,116.582Z" transform="translate(-43.104 -22.335)" fill="#fff"/>
        <path id="Path_611" data-name="Path 611" d="M230.265,122.234l-30.206,7.407c-.5.126-.793-.191-.641-.711l.026-.091a1.838,1.838,0,0,1,1.188-1.157l30.206-7.407c.507-.126.8.191.646.711l-.026.091A1.833,1.833,0,0,1,230.265,122.234Z" transform="translate(-38.903 -23.332)" fill="#0a58cf"/>
        <path id="Path_612" data-name="Path 612" d="M225.505,121.916l-24.879,6.1a1.851,1.851,0,0,0-1.162,1.2c-.156.542.1.867.589.767l24.875-6.1Z" transform="translate(-38.912 -23.656)" fill="#7daefa"/>
        <path id="Path_613" data-name="Path 613" d="M232.594,122.262a3.467,3.467,0,0,1-2.167,2.224c-.9.221-1.387-.433-1.092-1.426a3.467,3.467,0,0,1,2.167-2.228C232.416,120.628,232.906,121.269,232.594,122.262Z" transform="translate(-44.7 -23.438)" fill="#fff"/>
        <path id="Path_614" data-name="Path 614" d="M227.885,130.538,197.6,137.967c-.481.117-.746-.225-.589-.767h0a1.851,1.851,0,0,1,1.162-1.192l30.293-7.429c.481-.121.746.225.585.767h0A1.833,1.833,0,0,1,227.885,130.538Z" transform="translate(-38.435 -24.944)" fill="#0a58cf"/>
        <path id="Path_615" data-name="Path 615" d="M225.3,129.542,198.153,136.2a1.851,1.851,0,0,0-1.162,1.192c-.156.542.108.867.589.767l27.133-6.653Z" transform="translate(-38.432 -25.135)" fill="#7daefa"/>
        <path id="Path_616" data-name="Path 616" d="M232.207,130.1a3.467,3.467,0,0,1-2.167,2.228c-.9.217-1.387-.433-1.092-1.43a3.441,3.441,0,0,1,2.167-2.224C232.012,128.455,232.519,129.092,232.207,130.1Z" transform="translate(-44.625 -24.959)" fill="#fff"/>
        <g id="Group_129" data-name="Group 129" transform="translate(197.44 15.732)" opacity="0.2">
          <path id="Path_617" data-name="Path 617" d="M248.874,27.444a3.771,3.771,0,0,1-2.341,2.432c-.984.238-1.517-.459-1.2-1.56a3.771,3.771,0,0,1,2.358-2.432C248.662,25.645,249.195,26.343,248.874,27.444Z" transform="translate(-245.244 -20.744)" fill="#fff"/>
          <path id="Path_618" data-name="Path 618" d="M257.458,25.336a3.775,3.775,0,0,1-2.362,2.432c-.98.243-1.513-.433-1.192-1.56a3.754,3.754,0,0,1,2.358-2.427C257.246,23.537,257.779,24.235,257.458,25.336Z" transform="translate(-246.906 -20.335)" fill="#fff"/>
          <path id="Path_619" data-name="Path 619" d="M266.046,23.233a3.758,3.758,0,0,1-2.362,2.427c-.98.243-1.517-.455-1.192-1.556a3.771,3.771,0,0,1,2.358-2.432C265.83,21.434,266.367,22.132,266.046,23.233Z" transform="translate(-248.572 -19.927)" fill="#fff"/>
          <path id="Path_620" data-name="Path 620" d="M274.63,21.125a3.771,3.771,0,0,1-2.358,2.432c-.98.238-1.517-.459-1.192-1.56a3.758,3.758,0,0,1,2.358-2.432C274.418,19.326,274.956,20.024,274.63,21.125Z" transform="translate(-250.239 -19.517)" fill="#fff"/>
        </g>
        <path id="Path_621" data-name="Path 621" d="M114.48,171.655h-3.845v-3.845h-1.461v3.845h-3.849v1.465h3.849v3.845h1.461V173.12h3.845Z" transform="translate(-20.653 -32.561)" fill="#fb0"/>
        <path id="Path_622" data-name="Path 622" d="M242.639,146.949h-3.845V143.1H237.33v3.845h-3.845v1.465h3.845v3.845h1.465v-3.845h3.845Z" transform="translate(-45.522 -27.767)" fill="#fb0"/>
        <path id="Path_623" data-name="Path 623" d="M109.274,8.179h-3.845V4.335h-1.461V8.179H100.12V9.644h3.849v3.845h1.461V9.644h3.845Z" transform="translate(-19.643 -0.84)" fill="#fb0"/>
      </g>
    </g>
  </g>
</svg>
